<svg width="30" height="26" viewBox="0 0 30 26" fill="none" xmlns="http://www.w3.org/2000/svg">
<path fill-rule="evenodd" clip-rule="evenodd" d="M23.4713 1.12199C20.9259 0.557387 19.0478 2.08913 18.427 2.92558C19.1384 3.22618 20.7319 4.01558 21.4148 4.76839C22.0977 5.52119 22.1132 5.65711 22.0356 5.63097C20.0179 3.9058 18.1942 3.36995 17.5345 3.31767C16.9137 3.34904 16.7326 3.51371 16.7197 3.59213C19.9791 4.90954 19.0608 6.93793 18.1942 7.78744C15.7108 10.9555 14.8054 12.3226 14.6631 12.6101C11.5589 17.3935 11.0933 20.8047 11.0156 21.6281C10.9536 22.2868 11.0156 22.2423 11.0545 22.1378C13.2895 17.4327 16.2799 14.7404 17.4957 13.9824C17.8993 13.606 18.0001 13.6949 18.0001 13.7864C16.3247 15.7968 15.8424 16.6967 15.2822 17.742C15.2197 17.8587 15.1562 17.9772 15.0899 18.0993C14.5622 19.0717 14.3268 20.308 14.2751 20.8047L16.9913 25H18.0001L17.9225 24.8824L15.5944 21.0791C18.5744 21.6751 21.57 20.9354 22.6953 20.491C26.3815 18.6874 29.9126 14.8842 28.7873 8.76766C27.8871 3.87443 24.8682 1.6317 23.4713 1.12199ZM5.27284 23.6277L10.55 20.2166L10.7052 19.6676L10.8604 19.1187C11.2873 17.864 11.7788 16.7139 11.9857 16.3741C8.71336 18.5306 2.04445 22.9219 1.54777 23.2356C1.0511 23.5493 0.978666 23.6277 1.00453 23.6277H5.27284ZM21.2984 21.5889L25.6055 24.7255H23.9758L19.4747 21.7065C19.7204 21.798 20.2119 21.8633 20.7552 21.7849L21.0268 21.7065L21.2984 21.5889ZM23.2992 2.85055C23.6167 2.81287 24.1246 3.09169 23.9342 3.6041C23.696 4.24463 23.1008 4.01857 22.942 3.7925C22.8724 3.69338 22.5452 3.03894 23.2992 2.85055Z" fill="#363A3A"/>
<path d="M18.427 2.92558L18.4014 2.90659L18.3772 2.93915L18.4146 2.95493L18.427 2.92558ZM23.4713 1.12199L23.4824 1.0918L23.4782 1.09088L23.4713 1.12199ZM21.4148 4.76839L21.4384 4.74698L21.4148 4.76839ZM22.0356 5.63097L22.0133 5.65708L22.0255 5.66117L22.0356 5.63097ZM17.5345 3.31767L17.537 3.28564L17.5329 3.28585L17.5345 3.31767ZM16.7197 3.59213L16.6882 3.58694L16.6841 3.61211L16.7077 3.62167L16.7197 3.59213ZM18.1942 7.78744L18.1717 7.7645L18.1691 7.76779L18.1942 7.78744ZM14.6631 12.6101L14.69 12.6276L14.6917 12.6242L14.6631 12.6101ZM11.0156 21.6281L11.0474 21.6311L11.0156 21.6281ZM11.0545 22.1378L11.0256 22.1241L11.0246 22.1267L11.0545 22.1378ZM17.4957 13.9824L17.5129 14.0099L17.5174 14.0057L17.4957 13.9824ZM18.0001 13.7864L18.0246 13.8068L18.032 13.7979V13.7864H18.0001ZM15.2822 17.742L15.2542 17.727L15.2822 17.742ZM15.0899 18.0993L15.1179 18.1145L15.0899 18.0993ZM14.2751 20.8047L14.2434 20.8014L14.2422 20.8126L14.2483 20.822L14.2751 20.8047ZM16.9913 25L16.9645 25.0173L16.9739 25.0319H16.9913V25ZM18.0001 25V25.0319H18.0593L18.0267 24.9825L18.0001 25ZM17.9225 24.8824L17.8953 24.899L17.8959 24.8999L17.9225 24.8824ZM15.5944 21.0791L15.6006 21.0479L15.5291 21.0336L15.5672 21.0958L15.5944 21.0791ZM22.6953 20.491L22.707 20.5207L22.7093 20.5196L22.6953 20.491ZM28.7873 8.76766L28.8186 8.76189L28.7873 8.76766ZM10.55 20.2166L10.5673 20.2433L10.5774 20.2368L10.5807 20.2252L10.55 20.2166ZM5.27284 23.6277V23.6596H5.28224L5.29014 23.6545L5.27284 23.6277ZM10.7052 19.6676L10.7359 19.6763V19.6763L10.7052 19.6676ZM10.8604 19.1187L10.8302 19.1084L10.8298 19.11L10.8604 19.1187ZM11.9857 16.3741L12.0129 16.3907L11.9682 16.3475L11.9857 16.3741ZM1.54777 23.2356L1.56479 23.2626L1.54777 23.2356ZM25.6055 24.7255V24.7574H25.7034L25.6243 24.6998L25.6055 24.7255ZM21.2984 21.5889L21.3171 21.5631L21.3024 21.5524L21.2857 21.5596L21.2984 21.5889ZM23.9758 24.7255L23.958 24.752L23.9661 24.7574H23.9758V24.7255ZM19.4747 21.7065L19.4858 21.6766L19.4569 21.7329L19.4747 21.7065ZM20.7552 21.7849L20.7597 21.8167L20.764 21.8155L20.7552 21.7849ZM21.0268 21.7065L21.0357 21.7373L21.0394 21.7357L21.0268 21.7065ZM23.9342 3.6041L23.9043 3.593L23.9342 3.6041ZM23.2992 2.85055L23.2954 2.81865L23.2915 2.81964L23.2992 2.85055ZM22.942 3.7925L22.9159 3.81081L22.942 3.7925ZM18.4526 2.94457C19.0689 2.11422 20.9355 0.592151 23.4644 1.1531L23.4782 1.09088C20.9163 0.522624 19.0268 2.06405 18.4014 2.90659L18.4526 2.94457ZM21.4384 4.74698C21.0934 4.36669 20.5206 3.97911 19.9474 3.64978C19.3735 3.32005 18.7961 3.04698 18.4394 2.89623L18.4146 2.95493C18.7692 3.10478 19.3442 3.37672 19.9157 3.70503C20.4878 4.03376 21.0533 4.41728 21.3912 4.78979L21.4384 4.74698ZM22.0255 5.66117C22.0368 5.665 22.0555 5.66934 22.0729 5.66109C22.0952 5.6505 22.1002 5.62812 22.0992 5.61123C22.0983 5.59488 22.092 5.57586 22.0823 5.55476C22.0724 5.53305 22.0576 5.50659 22.0373 5.47466C21.9562 5.34741 21.78 5.12354 21.4384 4.74698L21.3912 4.78979C21.7325 5.16604 21.9055 5.38653 21.9835 5.50891C22.003 5.53939 22.0161 5.56316 22.0244 5.5813C22.033 5.60004 22.0353 5.61046 22.0356 5.61494C22.0358 5.61888 22.0346 5.60871 22.0456 5.6035C22.0517 5.60061 22.0538 5.60348 22.0458 5.60078L22.0255 5.66117ZM17.532 3.34943C18.1837 3.40108 20.0012 3.93348 22.0149 5.65519L22.0563 5.60676C20.0345 3.87812 18.2047 3.33882 17.537 3.28591L17.532 3.34943ZM16.7511 3.59732C16.7528 3.58706 16.7614 3.56797 16.787 3.54372C16.8122 3.51988 16.8521 3.49279 16.912 3.46641C17.0317 3.41362 17.228 3.36506 17.5361 3.34949L17.5329 3.28585C17.2202 3.30165 17.0155 3.35111 16.8863 3.4081C16.8216 3.43661 16.775 3.46736 16.7432 3.49743C16.7119 3.52709 16.693 3.55799 16.6882 3.58694L16.7511 3.59732ZM18.2165 7.8102C18.6532 7.38202 19.1066 6.65372 19.0359 5.86241C18.9649 5.06769 18.367 4.2236 16.7316 3.56259L16.7077 3.62167C18.3317 4.27807 18.9044 5.10688 18.9724 5.86808C19.0408 6.63269 18.6017 7.34335 18.1719 7.76469L18.2165 7.8102ZM14.6917 12.6242C14.7614 12.4832 15.0218 12.0717 15.5766 11.2975C16.1308 10.5243 16.9777 9.39088 18.2192 7.8071L18.1691 7.76779C16.9272 9.35206 16.0797 10.4862 15.5248 11.2604C14.9706 12.0337 14.707 12.4495 14.6345 12.596L14.6917 12.6242ZM11.0474 21.6311C11.1246 20.8121 11.5888 17.406 14.6898 12.6274L14.6364 12.5928C11.529 17.381 11.062 20.7973 10.9839 21.6251L11.0474 21.6311ZM11.0246 22.1267C11.02 22.1389 11.0154 22.1497 11.011 22.1579C11.0088 22.1621 11.0068 22.1652 11.0052 22.1675C11.0035 22.1699 11.0026 22.1706 11.0029 22.1704C11.003 22.1703 11.0062 22.1675 11.0123 22.1669C11.0198 22.1661 11.0261 22.169 11.0297 22.1721C11.0324 22.1745 11.0327 22.1761 11.0317 22.1739C11.0309 22.172 11.0297 22.1684 11.0284 22.1624C11.0229 22.1374 11.0196 22.0878 11.0219 22.0011C11.0242 21.9153 11.0319 21.7954 11.0474 21.6311L10.9839 21.6251C10.9684 21.7901 10.9605 21.9116 10.9582 21.9995C10.9559 22.0864 10.9589 22.1427 10.9661 22.1759C10.9679 22.1844 10.9702 22.1924 10.9733 22.1994C10.9762 22.206 10.9806 22.2139 10.9878 22.2202C10.9959 22.2272 11.0068 22.2316 11.0192 22.2302C11.0302 22.2291 11.0384 22.2237 11.0437 22.2194C11.0538 22.211 11.0615 22.1986 11.0672 22.1879C11.0734 22.1763 11.0792 22.1628 11.0843 22.1489L11.0246 22.1267ZM17.4789 13.9554C16.2574 14.7169 13.2631 17.4141 11.0257 22.1241L11.0832 22.1514C13.3159 17.4514 16.3024 14.764 17.5126 14.0094L17.4789 13.9554ZM18.032 13.7864C18.032 13.7585 18.0244 13.7261 18.0003 13.7026C17.975 13.6781 17.9383 13.6697 17.8937 13.6775C17.8499 13.6853 17.7952 13.7092 17.7274 13.7534C17.6591 13.7979 17.5757 13.8642 17.474 13.9591L17.5174 14.0057C17.6175 13.9124 17.698 13.8486 17.7622 13.8068C17.8267 13.7647 17.873 13.7459 17.9048 13.7403C17.9359 13.7348 17.9496 13.7422 17.9559 13.7483C17.9633 13.7555 17.9683 13.7685 17.9683 13.7864H18.032ZM15.3103 17.7571C15.8697 16.7133 16.3508 15.8152 18.0246 13.8068L17.9757 13.766C16.2985 15.7784 15.8151 16.6802 15.2542 17.727L15.3103 17.7571ZM15.1179 18.1145C15.1842 17.9923 15.2478 17.8738 15.3103 17.7571L15.2542 17.727C15.1916 17.8437 15.1281 17.9621 15.0619 18.0841L15.1179 18.1145ZM14.3068 20.808C14.3583 20.3136 14.593 19.0818 15.1179 18.1145L15.0619 18.0841C14.5315 19.0615 14.2954 20.3025 14.2434 20.8014L14.3068 20.808ZM17.018 24.9827L14.3018 20.7874L14.2483 20.822L16.9645 25.0173L17.018 24.9827ZM18.0001 24.9681H16.9913V25.0319H18.0001V24.9681ZM17.8959 24.8999L17.9735 25.0175L18.0267 24.9825L17.9491 24.8648L17.8959 24.8999ZM15.5672 21.0958L17.8954 24.899L17.9497 24.8657L15.6215 21.0625L15.5672 21.0958ZM22.6836 20.4614C21.5622 20.9042 18.573 21.6423 15.6006 21.0479L15.5881 21.1104C18.5759 21.7079 21.5778 20.9665 22.707 20.5207L22.6836 20.4614ZM28.756 8.77342C29.3172 11.8241 28.7172 14.2959 27.5185 16.2299C26.3195 18.1645 24.5204 19.5626 22.6813 20.4624L22.7093 20.5196C24.5565 19.6159 26.366 18.2105 27.5727 16.2635C28.7798 14.3158 29.3827 11.8278 28.8186 8.76189L28.756 8.77342ZM23.4604 1.15192C24.8467 1.65775 27.8578 3.89125 28.756 8.77342L28.8186 8.76189C27.9164 3.85761 24.8898 1.60566 23.4823 1.09206L23.4604 1.15192ZM10.5327 20.1898L5.25554 23.6009L5.29014 23.6545L10.5673 20.2433L10.5327 20.1898ZM10.6746 19.659L10.5194 20.2079L10.5807 20.2252L10.7359 19.6763L10.6746 19.659ZM10.8298 19.11L10.6746 19.659L10.7359 19.6763L10.8911 19.1274L10.8298 19.11ZM11.9585 16.3575C11.7496 16.7006 11.2571 17.8537 10.8303 19.1085L10.8906 19.129C11.3174 17.8744 11.808 16.7272 12.0129 16.3907L11.9585 16.3575ZM1.56479 23.2626C2.06181 22.9487 8.73118 18.557 12.0033 16.4007L11.9682 16.3475C8.69554 18.5042 2.02709 22.8952 1.53076 23.2087L1.56479 23.2626ZM1.00453 23.5958C1.00553 23.5958 1.01363 23.5958 1.0215 23.6024C1.03186 23.6112 1.03252 23.6231 1.03148 23.6291C1.03065 23.6339 1.02879 23.6364 1.0293 23.6356C1.0295 23.6353 1.03037 23.6341 1.03245 23.6317C1.04119 23.6219 1.06124 23.6039 1.09955 23.5746C1.17535 23.5167 1.31666 23.4193 1.56479 23.2626L1.53076 23.2087C1.28221 23.3656 1.13897 23.4643 1.06085 23.524C1.0222 23.5535 0.997951 23.5747 0.984865 23.5894C0.981488 23.5931 0.978308 23.5971 0.9757 23.6012C0.973406 23.6047 0.969984 23.6107 0.968679 23.6183C0.967159 23.6271 0.968429 23.641 0.980334 23.6511C0.989742 23.659 1.00031 23.6596 1.00453 23.6596V23.5958ZM5.27284 23.5958H1.00453V23.6596H5.27284V23.5958ZM25.6243 24.6998L21.3171 21.5631L21.2796 21.6146L25.5867 24.7513L25.6243 24.6998ZM23.9758 24.7574H25.6055V24.6937H23.9758V24.7574ZM19.4569 21.7329L23.958 24.752L23.9935 24.6991L19.4924 21.68L19.4569 21.7329ZM20.7506 21.7534C20.2115 21.8312 19.7255 21.7659 19.4858 21.6766L19.4635 21.7363C19.7153 21.8301 20.2123 21.8954 20.7597 21.8164L20.7506 21.7534ZM21.0179 21.6759L20.7463 21.7543L20.764 21.8155L21.0356 21.7371L21.0179 21.6759ZM21.2857 21.5596L21.0141 21.6772L21.0394 21.7357L21.3111 21.6181L21.2857 21.5596ZM23.964 3.61521C24.0137 3.48166 24.0184 3.36142 23.9908 3.25675C23.9631 3.15225 23.9038 3.06538 23.8285 2.9974C23.679 2.86232 23.4635 2.79896 23.2954 2.81891L23.3029 2.88219C23.4523 2.86446 23.6496 2.92167 23.7858 3.04469C23.8534 3.10575 23.9052 3.1823 23.9291 3.27303C23.9531 3.36357 23.9499 3.47034 23.9043 3.593L23.964 3.61521ZM22.9159 3.81081C23.0013 3.93242 23.1994 4.05019 23.4076 4.05513C23.5127 4.05762 23.6214 4.03134 23.7195 3.96151C23.8175 3.89173 23.9028 3.78001 23.964 3.61521L23.9043 3.593C23.8465 3.74846 23.7681 3.84868 23.6825 3.9096C23.5971 3.97045 23.5023 3.99363 23.4091 3.99142C23.2204 3.98694 23.0414 3.87865 22.9681 3.77419L22.9159 3.81081ZM23.2915 2.81964C23.0983 2.8679 22.9707 2.94697 22.891 3.04291C22.8112 3.139 22.7819 3.24902 22.7799 3.3544C22.7779 3.45936 22.803 3.56041 22.8325 3.64096C22.862 3.72136 22.8967 3.7834 22.9159 3.81081L22.9681 3.77419C22.9525 3.75204 22.9202 3.6951 22.8923 3.61903C22.8645 3.54311 22.8418 3.45019 22.8436 3.3556C22.8454 3.26143 22.8713 3.16633 22.94 3.08363C23.0088 3.00077 23.1231 2.92739 23.3069 2.88146L23.2915 2.81964Z" fill="#363A3A"/>
</svg>
