<svg width="294" height="333" viewBox="0 0 294 333" fill="none" xmlns="http://www.w3.org/2000/svg">
<path d="M229.156 15.2871C244.211 34.2599 259.197 70.2668 253.92 94.2682C244.112 138.866 201.063 156.874 158.71 155.831C147.123 155.546 132.744 150.458 122.121 156.215C116.436 159.295 115.8 163.792 107.99 165.505C106.499 165.829 104.82 164.58 102.991 164.924C99.4932 165.593 92.8352 177.146 91.7719 165.928C91.285 160.791 94.2562 156.038 94.5444 151.374C94.5941 150.586 95.5282 149.317 93.7296 149.819C91.0663 150.567 72.8611 164.924 68.0216 167.798C61.8108 171.478 55.2521 176.635 47.6798 175.936C32.2074 174.499 40.8628 167.906 47.3022 163.005C61.0555 152.525 100.209 132.302 107.105 119.628C121.296 93.599 126.036 84.3587 150.462 65.2087C155.689 61.115 176.548 48.9126 178.684 45.9801C181.715 41.8273 182.053 31.042 179.429 26.7318C176.239 21.4965 163.569 19.9417 159.127 15.0214C164.175 13.2304 172.086 15.4248 176.567 13.9389C178.515 13.2894 183.235 6.32224 186.415 4.22618C200.596 -5.11261 218.682 2.11043 229.156 15.3068V15.2871Z" fill="url(#paint0_linear_291_1902)"/>
<path d="M12.9863 296.212C12.469 297.559 11.5639 298.527 10.2609 299.118C9.65419 299.457 9.00767 299.622 8.31141 299.622C6.75977 299.622 5.45678 299.118 4.42234 298.111C3.46748 297.181 3 296.047 3 294.701C3 294.032 3.1293 293.393 3.38791 292.802L35.9328 207.158C36.2809 206.49 36.6688 205.899 37.0965 205.385C38.1309 204.455 39.3842 204 40.8563 204C42.3283 204 43.5816 204.465 44.616 205.385C45.1332 205.976 45.5212 206.606 45.7798 207.284L78.4639 292.802C78.7225 293.393 78.8518 294.022 78.8518 294.701C78.8518 295.379 78.7225 296.008 78.4639 296.599C77.7676 297.946 76.7332 298.828 75.3506 299.254C74.7439 299.506 74.1172 299.632 73.4707 299.632C72.8242 299.632 72.1976 299.457 71.5908 299.128C70.2083 298.537 69.2534 297.617 68.7362 296.348L40.8563 223.589L25.6879 263.127H47.3414C48.8134 263.127 50.017 263.631 50.9718 264.638C51.9267 265.646 52.4041 266.847 52.4041 268.242C52.4041 269.637 51.9068 270.81 50.9121 271.778C49.9175 272.747 48.7239 273.232 47.3414 273.232H21.6695L12.9763 296.222L12.9863 296.212Z" fill="url(#paint1_linear_291_1902)"/>
<path d="M113.237 298.615C112.282 299.545 111.048 300 109.547 300C108.045 300 106.801 299.535 105.846 298.615C105.329 298.111 104.941 297.481 104.683 296.716L72.7844 210.946C72.5258 210.355 72.3965 209.726 72.3965 209.048C72.3965 207.788 72.8739 206.645 73.8188 205.637C74.336 205.134 74.9428 204.756 75.639 204.504C76.3353 204.252 77.0216 204.126 77.7178 204.126C78.4141 204.126 79.0606 204.3 79.6673 204.63C81.0499 205.221 81.955 206.19 82.3927 207.536L109.497 280.168C127.649 231.747 136.73 207.497 136.73 207.41C137.247 206.151 138.113 205.221 139.326 204.63C140.023 204.291 140.709 204.126 141.405 204.126C142.957 204.126 144.26 204.678 145.294 205.773C146.329 206.703 146.846 207.837 146.846 209.183C146.846 209.774 146.716 210.365 146.458 210.956L114.43 296.725C114.172 297.481 113.784 298.111 113.267 298.624L113.237 298.615Z" fill="url(#paint2_linear_291_1902)"/>
<path d="M163.417 298.363C162.034 298.363 160.821 297.859 159.786 296.851C158.752 295.844 158.225 294.662 158.225 293.315V211.208C158.225 209.861 158.742 208.679 159.786 207.672C160.821 206.664 162.034 206.16 163.417 206.16H208.932C210.483 206.16 211.737 206.664 212.691 207.672C213.646 208.679 214.114 209.861 214.114 211.208C214.114 212.642 213.616 213.843 212.622 214.812C211.627 215.781 210.394 216.265 208.922 216.265H168.589V246.454H201.79C203.262 246.454 204.496 246.938 205.49 247.907C206.485 248.876 206.982 250.058 206.982 251.443C206.982 252.828 206.465 254.03 205.431 255.047C204.396 256.064 203.183 256.558 201.8 256.558H168.599V288.258H208.932C210.404 288.258 211.637 288.742 212.632 289.711C213.626 290.68 214.124 291.843 214.124 293.189C214.124 294.701 213.626 295.95 212.632 296.919C211.637 297.888 210.404 298.372 208.932 298.372H163.417V298.363Z" fill="url(#paint3_linear_291_1902)"/>
<path d="M258.992 300C252.507 300 246.5 298.944 240.969 296.842C235.001 294.565 230.118 291.455 226.318 287.493C225.025 286.398 224.369 285.216 224.369 283.956C224.369 282.61 225.065 281.389 226.447 280.294C227.571 279.287 228.735 278.783 229.949 278.783C231.242 278.783 232.455 279.374 233.579 280.556C236.434 283.424 240.104 285.691 244.6 287.376C249.096 289.062 253.89 289.905 258.992 289.905C267.208 289.905 273.216 288.054 277.015 284.344C279.432 281.99 280.646 278.831 280.646 274.869C280.646 270.151 278.746 266.363 274.936 263.505C270.868 260.395 264.433 258.196 255.611 256.936C246.181 255.425 239.209 252.45 234.663 248.033C230.118 243.615 227.86 237.608 227.86 230.032C227.86 221.865 230.516 215.529 235.837 211.024C241.148 206.519 248.439 204.271 257.689 204.271C262.444 204.271 267.327 205.153 272.34 206.926C277.353 208.699 282.018 211.092 286.345 214.124C286.514 214.211 286.693 214.376 286.862 214.628C287.986 215.635 288.543 216.779 288.543 218.038C288.543 219.385 287.897 220.693 286.594 221.952C285.559 222.882 284.475 223.338 283.351 223.338C282.227 223.338 281.143 222.96 280.109 222.204C276.737 219.675 273.037 217.738 269.018 216.391C265 215.044 261.21 214.366 257.669 214.366C250.836 214.366 245.694 216.013 242.233 219.288C239.547 221.981 238.214 225.605 238.214 230.148C238.214 234.692 239.706 238.587 242.69 241.328C245.674 244.07 250.488 245.94 257.152 246.948C269.685 248.798 278.676 252.334 284.127 257.556C288.712 262.022 291 267.874 291 275.111C291 282.862 288.145 288.946 282.446 293.364C276.737 297.781 268.919 299.99 258.972 299.99L258.992 300Z" fill="url(#paint4_linear_291_1902)"/>
<path d="M1.7964 331.625C1.58734 331.625 1.3982 331.542 1.23892 331.376C1.07964 331.209 1 331.012 1 330.793V317.217C1 316.999 1.07964 316.801 1.23892 316.635C1.3982 316.468 1.58734 316.385 1.7964 316.385H8.81467C9.05359 316.385 9.25269 316.468 9.39206 316.635C9.54139 316.801 9.61107 316.999 9.61107 317.217C9.61107 317.456 9.53143 317.654 9.38211 317.81C9.23278 317.966 9.03368 318.049 8.81467 318.049H2.60275V323.043H7.71962C7.94859 323.043 8.13773 323.126 8.28706 323.282C8.43638 323.438 8.51602 323.636 8.51602 323.865C8.51602 324.094 8.43638 324.291 8.2771 324.458C8.11782 324.624 7.92868 324.707 7.71962 324.707H2.60275V329.951H8.82463C9.05359 329.951 9.24274 330.034 9.39206 330.19C9.54139 330.346 9.62103 330.544 9.62103 330.762C9.62103 331.012 9.54139 331.22 9.39206 331.376C9.24274 331.532 9.04364 331.615 8.82463 331.615H1.7964V331.625Z" fill="url(#paint5_linear_291_1902)" stroke="url(#paint6_linear_291_1902)" stroke-width="0.25" stroke-miterlimit="10"/>
<path d="M12.8167 331.917C12.6574 331.917 12.5081 331.865 12.3587 331.75C12.1298 331.615 12.0203 331.386 12.0203 331.085C12.0203 330.908 12.07 330.752 12.1596 330.627L16.6394 323.73L12.4782 317.363C12.3986 317.228 12.3587 317.072 12.3587 316.905C12.3587 316.603 12.4682 316.364 12.6972 316.218C12.8266 316.104 12.9759 316.052 13.1352 316.052C13.4239 316.052 13.6529 316.187 13.8122 316.447L17.5851 322.252C20.1037 318.361 21.368 316.416 21.3879 316.406C21.5572 316.166 21.7861 316.052 22.0449 316.052C22.244 316.052 22.4133 316.125 22.5427 316.281C22.7318 316.458 22.8214 316.676 22.8214 316.926C22.8214 317.092 22.7717 317.238 22.6821 317.363L18.5607 323.73L23.0205 330.627C23.1101 330.762 23.1599 330.918 23.1599 331.064C23.1599 331.303 23.0902 331.501 22.9409 331.646C22.9011 331.688 22.8613 331.719 22.8214 331.75C22.692 331.865 22.5427 331.917 22.3834 331.917C22.1047 331.917 21.8857 331.792 21.7264 331.542L17.5851 325.217L13.4637 331.542C13.3045 331.792 13.0854 331.917 12.8067 331.917H12.8167Z" fill="url(#paint7_linear_291_1902)" stroke="url(#paint8_linear_291_1902)" stroke-width="0.25" stroke-miterlimit="10"/>
<path d="M27.3011 331.677C27.1518 331.834 26.9626 331.917 26.7536 331.917C26.5146 331.917 26.3155 331.834 26.1662 331.677C26.0169 331.521 25.9373 331.324 25.9373 331.105V317.217C25.9373 316.999 26.0169 316.801 26.1762 316.635C26.3355 316.468 26.5246 316.385 26.7337 316.385H31.5121C32.3085 316.385 33.0352 316.593 33.6922 317.009C34.3492 317.415 34.8669 317.956 35.2551 318.642C35.6434 319.329 35.8325 320.078 35.8325 320.9C35.8325 321.722 35.6434 322.481 35.2551 323.178C34.8669 323.865 34.3492 324.406 33.6922 324.822C33.0352 325.238 32.3085 325.436 31.5121 325.436H27.5301V331.116C27.5301 331.334 27.4504 331.532 27.3011 331.688V331.677ZM27.5301 318.049V323.75H31.5121C32.2587 323.75 32.8958 323.469 33.4334 322.918C33.5927 322.752 33.742 322.554 33.8714 322.335C34.1103 321.909 34.2298 321.42 34.2298 320.889C34.2298 320.109 33.961 319.443 33.4334 318.882C32.9058 318.32 32.2587 318.049 31.5121 318.049H27.5301Z" fill="url(#paint9_linear_291_1902)" stroke="url(#paint10_linear_291_1902)" stroke-width="0.25" stroke-miterlimit="10"/>
<path d="M39.2869 331.625C39.0778 331.625 38.8887 331.542 38.7294 331.376C38.5701 331.209 38.4905 331.012 38.4905 330.793V316.926C38.4905 316.687 38.5701 316.489 38.7294 316.322C38.8887 316.156 39.0778 316.073 39.2869 316.073C39.5258 316.073 39.7249 316.156 39.8643 316.322C40.0136 316.489 40.0833 316.687 40.0833 316.926V329.961H46.3052C46.5341 329.961 46.7233 330.044 46.8726 330.2C47.0219 330.356 47.1016 330.554 47.1016 330.772C47.1016 331.022 47.0219 331.23 46.8726 331.386C46.7233 331.542 46.5242 331.625 46.3052 331.625H39.2869Z" fill="url(#paint11_linear_291_1902)" stroke="url(#paint12_linear_291_1902)" stroke-width="0.25" stroke-miterlimit="10"/>
<path d="M57.5941 331.209C56.8076 331.667 55.8918 331.896 54.8366 331.896C53.7813 331.896 52.8655 331.667 52.079 331.209C51.2926 330.752 50.6754 330.107 50.2374 329.274C49.7993 328.442 49.5803 327.485 49.5803 326.403V321.555C49.5803 320.453 49.7993 319.495 50.2374 318.674C50.6754 317.852 51.2926 317.207 52.079 316.749C52.8655 316.291 53.7813 316.062 54.8366 316.062C55.8918 316.062 56.8076 316.291 57.5941 316.749C58.3805 317.207 58.9978 317.852 59.4358 318.674C59.8738 319.495 60.0928 320.453 60.0928 321.555V326.403C60.0928 327.485 59.8738 328.442 59.4358 329.264C58.9978 330.096 58.3805 330.752 57.5941 331.209ZM54.8366 330.221C55.9515 330.221 56.8375 329.878 57.4945 329.202C57.7036 328.983 57.8828 328.723 58.0321 328.432C58.3407 327.849 58.49 327.173 58.49 326.403V321.555C58.49 320.39 58.1615 319.454 57.5045 318.767C56.8475 318.081 55.9515 317.737 54.8366 317.737C53.7216 317.737 52.8257 318.081 52.1686 318.767C51.5116 319.454 51.1831 320.39 51.1831 321.555V326.403C51.1831 327.173 51.3324 327.849 51.641 328.432C51.9297 329.004 52.3578 329.441 52.8953 329.763C53.4429 330.075 54.0899 330.232 54.8366 330.232V330.221Z" fill="url(#paint13_linear_291_1902)" stroke="url(#paint14_linear_291_1902)" stroke-width="0.25" stroke-miterlimit="10"/>
<path d="M64.6822 331.677C64.5329 331.834 64.3437 331.917 64.1347 331.917C63.8957 331.917 63.6967 331.834 63.5473 331.677C63.398 331.521 63.3184 331.324 63.3184 331.105V317.217C63.3184 316.999 63.398 316.801 63.5573 316.635C63.7166 316.468 63.9057 316.385 64.1148 316.385H69.0325C69.8289 316.385 70.5556 316.593 71.2127 317.009C71.8697 317.415 72.3874 317.956 72.7856 318.642C73.1738 319.329 73.3729 320.078 73.3729 320.9C73.3729 321.607 73.2236 322.273 72.9349 322.887C72.6462 323.501 72.238 324.01 71.7303 324.437C71.3321 324.78 70.8842 325.04 70.3964 325.186L73.3132 330.72C73.3829 330.856 73.4127 330.98 73.4127 331.074C73.4127 331.417 73.2833 331.677 73.0344 331.844C72.915 331.917 72.8055 331.948 72.696 331.948C72.3376 331.948 72.0788 331.802 71.9394 331.511L68.7239 325.436H65.9863C65.7772 325.436 65.5881 325.352 65.4288 325.186C65.2695 325.019 65.1899 324.822 65.1899 324.603C65.1899 324.354 65.2695 324.156 65.4288 324C65.5881 323.844 65.7772 323.771 65.9863 323.771H69.0425C69.5502 323.771 70.0081 323.646 70.4262 323.397C70.8443 323.137 71.1729 322.783 71.4118 322.356C71.6607 321.93 71.7801 321.441 71.7801 320.91C71.7801 320.13 71.5113 319.464 70.9837 318.902C70.8244 318.736 70.6353 318.58 70.4262 318.445C70.0081 318.195 69.5502 318.07 69.0425 318.07H64.9211V331.126C64.9211 331.345 64.8415 331.542 64.6922 331.698L64.6822 331.677Z" fill="url(#paint15_linear_291_1902)" stroke="url(#paint16_linear_291_1902)" stroke-width="0.25" stroke-miterlimit="10"/>
<path d="M77.1857 331.272C77.106 331.49 76.9667 331.657 76.7676 331.75C76.678 331.802 76.5784 331.834 76.4689 331.834C76.23 331.834 76.0309 331.75 75.8716 331.584C75.7223 331.428 75.6526 331.241 75.6526 331.022C75.6526 330.908 75.6725 330.804 75.7123 330.71L80.7296 316.541C80.7794 316.427 80.8391 316.333 80.9088 316.25C81.0681 316.094 81.2573 316.021 81.4862 316.021C81.7152 316.021 81.9043 316.094 82.0636 316.25C82.1432 316.343 82.203 316.447 82.2428 316.562L87.28 330.71C87.3198 330.804 87.3398 330.908 87.3398 331.022C87.3398 331.137 87.3198 331.241 87.28 331.334C87.1705 331.553 87.0112 331.698 86.8022 331.771C86.7126 331.813 86.613 331.834 86.5135 331.834C86.4139 331.834 86.3144 331.802 86.2248 331.75C86.0157 331.657 85.8664 331.501 85.7868 331.293L81.4862 319.256L79.1468 325.8H82.4817C82.7107 325.8 82.8998 325.883 83.0392 326.049C83.1885 326.216 83.2582 326.414 83.2582 326.642C83.2582 326.871 83.1786 327.069 83.0292 327.225C82.8799 327.381 82.6908 327.464 82.4817 327.464H78.5196L77.1757 331.272H77.1857Z" fill="url(#paint17_linear_291_1902)" stroke="url(#paint18_linear_291_1902)" stroke-width="0.25" stroke-miterlimit="10"/>
<path d="M93.4321 331.677C93.2827 331.834 93.0936 331.917 92.8845 331.917C92.6456 331.917 92.4465 331.834 92.2972 331.677C92.1479 331.521 92.0682 331.324 92.0682 331.105V318.049H88.0265C87.7975 318.049 87.6084 317.966 87.469 317.8C87.3197 317.633 87.25 317.436 87.25 317.217C87.25 316.978 87.3296 316.78 87.479 316.624C87.6283 316.468 87.8174 316.385 88.0265 316.385H97.7027C97.9118 316.385 98.1009 316.468 98.2602 316.635C98.4195 316.801 98.4992 316.999 98.4992 317.217C98.4992 317.436 98.4195 317.633 98.2602 317.8C98.1009 317.966 97.9118 318.049 97.7027 318.049H93.661V331.105C93.661 331.324 93.5814 331.521 93.4321 331.677Z" fill="url(#paint19_linear_291_1902)" stroke="url(#paint20_linear_291_1902)" stroke-width="0.25" stroke-miterlimit="10"/>
<path d="M102.889 331.657C102.74 331.813 102.551 331.896 102.342 331.896C102.103 331.896 101.904 331.813 101.755 331.657C101.605 331.501 101.526 331.303 101.526 331.085V316.915C101.526 316.676 101.605 316.479 101.765 316.312C101.924 316.146 102.113 316.062 102.322 316.062C102.561 316.062 102.75 316.146 102.899 316.312C103.049 316.479 103.118 316.676 103.118 316.915V331.085C103.118 331.303 103.039 331.501 102.889 331.657Z" fill="url(#paint21_linear_291_1902)" stroke="url(#paint22_linear_291_1902)" stroke-width="0.25" stroke-miterlimit="10"/>
<path d="M114.756 331.209C113.969 331.667 113.053 331.896 111.998 331.896C110.943 331.896 110.027 331.667 109.241 331.209C108.454 330.752 107.837 330.107 107.399 329.274C106.961 328.442 106.742 327.485 106.742 326.403V321.555C106.742 320.453 106.961 319.495 107.399 318.674C107.837 317.852 108.454 317.207 109.241 316.749C110.027 316.291 110.943 316.062 111.998 316.062C113.053 316.062 113.969 316.291 114.756 316.749C115.542 317.207 116.159 317.852 116.597 318.674C117.035 319.495 117.254 320.453 117.254 321.555V326.403C117.254 327.485 117.035 328.442 116.597 329.264C116.159 330.096 115.542 330.752 114.756 331.209ZM111.998 330.221C113.113 330.221 113.999 329.878 114.656 329.202C114.865 328.983 115.044 328.723 115.194 328.432C115.502 327.849 115.652 327.173 115.652 326.403V321.555C115.652 320.39 115.323 319.454 114.666 318.767C114.009 318.081 113.113 317.737 111.998 317.737C110.883 317.737 109.987 318.081 109.33 318.767C108.673 319.454 108.345 320.39 108.345 321.555V326.403C108.345 327.173 108.494 327.849 108.803 328.432C109.091 329.004 109.519 329.441 110.057 329.763C110.604 330.075 111.252 330.232 111.998 330.232V330.221Z" fill="url(#paint23_linear_291_1902)" stroke="url(#paint24_linear_291_1902)" stroke-width="0.25" stroke-miterlimit="10"/>
<path d="M121.844 331.657C121.694 331.813 121.505 331.896 121.296 331.896C121.057 331.896 120.858 331.813 120.709 331.657C120.56 331.501 120.48 331.303 120.48 331.085V316.895C120.48 316.655 120.55 316.458 120.699 316.312C120.789 316.218 120.898 316.146 121.018 316.114C121.137 316.083 121.237 316.062 121.316 316.062C121.565 316.062 121.784 316.198 121.953 316.458L129.071 328.224V316.905C129.071 316.666 129.151 316.468 129.32 316.312C129.489 316.156 129.678 316.073 129.887 316.073C130.116 316.073 130.296 316.156 130.445 316.323C130.594 316.489 130.664 316.687 130.664 316.905V331.095C130.664 331.334 130.594 331.532 130.445 331.678C130.365 331.761 130.266 331.823 130.146 331.854C130.027 331.886 129.927 331.906 129.848 331.906C129.599 331.906 129.38 331.792 129.211 331.553C129.211 331.542 128.454 330.284 126.951 327.797C125.139 324.791 123.516 322.107 122.073 319.756V331.105C122.073 331.324 121.993 331.521 121.844 331.678V331.657Z" fill="url(#paint25_linear_291_1902)" stroke="url(#paint26_linear_291_1902)" stroke-width="0.25" stroke-miterlimit="10"/>
<path d="M148.463 319.381C148.463 320.785 147.528 322.055 145.666 323.178C146.054 323.657 146.662 324.375 147.498 325.352C148.334 326.33 148.931 327.038 149.31 327.485C149.499 327.194 149.678 326.861 149.867 326.486C150.056 326.112 150.216 325.685 150.345 325.207C150.395 324.967 150.524 324.801 150.723 324.707C150.853 324.635 150.972 324.603 151.062 324.603C151.171 324.603 151.251 324.603 151.321 324.624C151.49 324.676 151.629 324.78 151.739 324.936C151.848 325.092 151.898 325.259 151.898 325.436C151.898 325.529 151.888 325.612 151.858 325.685C151.589 326.715 151.102 327.745 150.395 328.775L151.858 330.512C151.968 330.668 152.017 330.856 152.017 331.074C152.017 331.313 151.928 331.511 151.759 331.657C151.629 331.792 151.46 331.865 151.261 331.865C151.022 331.865 150.813 331.782 150.644 331.615C150.634 331.584 150.494 331.417 150.235 331.116C149.977 330.814 149.668 330.45 149.33 330.055C148.792 330.575 148.195 330.991 147.528 331.334C146.771 331.74 145.935 331.938 145.029 331.938C144.123 331.938 143.317 331.75 142.61 331.376C141.873 330.981 141.306 330.45 140.908 329.774C140.509 329.098 140.31 328.317 140.31 327.423C140.31 325.56 141.266 323.99 143.167 322.72C142.849 322.304 142.55 321.847 142.291 321.358C141.943 320.754 141.774 320.13 141.774 319.475C141.774 318.486 142.082 317.675 142.69 317.03C142.889 316.822 143.118 316.635 143.386 316.489C143.894 316.198 144.462 316.052 145.109 316.052C146.124 316.052 146.95 316.375 147.587 317.03C148.175 317.654 148.463 318.434 148.463 319.371V319.381ZM144.243 323.979C142.68 324.957 141.903 326.101 141.903 327.423C141.903 328.296 142.182 328.993 142.739 329.503C143.297 330.013 144.073 330.263 145.059 330.263C145.646 330.263 146.214 330.127 146.761 329.847C147.309 329.566 147.806 329.212 148.264 328.785C147.836 328.286 147.378 327.745 146.881 327.152C145.885 325.966 144.999 324.905 144.243 323.979ZM144.601 321.888C146.104 321.056 146.861 320.213 146.861 319.381C146.861 318.882 146.701 318.476 146.393 318.164C146.074 317.862 145.656 317.706 145.119 317.706C144.581 317.706 144.143 317.873 143.824 318.195C143.506 318.518 143.357 318.944 143.357 319.454C143.357 319.849 143.486 320.244 143.755 320.671C144.004 321.108 144.292 321.503 144.591 321.888H144.601Z" fill="url(#paint27_linear_291_1902)" stroke="url(#paint28_linear_291_1902)" stroke-width="0.25" stroke-miterlimit="10"/>
<path d="M162.818 331.657C162.669 331.813 162.48 331.896 162.271 331.896C162.032 331.896 161.833 331.813 161.684 331.657C161.534 331.501 161.455 331.303 161.455 331.085V316.915C161.455 316.676 161.534 316.479 161.694 316.312C161.853 316.146 162.042 316.062 162.251 316.062C162.49 316.062 162.679 316.146 162.828 316.312C162.978 316.479 163.047 316.676 163.047 316.915V331.085C163.047 331.303 162.968 331.501 162.818 331.657Z" fill="url(#paint29_linear_291_1902)" stroke="url(#paint30_linear_291_1902)" stroke-width="0.25" stroke-miterlimit="10"/>
<path d="M168.224 331.657C168.075 331.813 167.886 331.896 167.677 331.896C167.438 331.896 167.239 331.813 167.089 331.657C166.94 331.501 166.86 331.303 166.86 331.085V316.895C166.86 316.655 166.93 316.458 167.079 316.312C167.169 316.218 167.278 316.146 167.398 316.114C167.517 316.083 167.617 316.062 167.697 316.062C167.945 316.062 168.164 316.198 168.334 316.458L175.452 328.224V316.905C175.452 316.666 175.531 316.468 175.7 316.312C175.87 316.156 176.059 316.073 176.268 316.073C176.497 316.073 176.676 316.156 176.825 316.323C176.975 316.489 177.044 316.687 177.044 316.905V331.095C177.044 331.334 176.975 331.532 176.825 331.678C176.746 331.761 176.646 331.823 176.527 331.854C176.407 331.886 176.308 331.906 176.228 331.906C175.979 331.906 175.76 331.792 175.591 331.553C175.591 331.542 174.834 330.284 173.331 327.797C171.519 324.791 169.897 322.107 168.453 319.756V331.105C168.453 331.324 168.374 331.521 168.224 331.678V331.657Z" fill="url(#paint31_linear_291_1902)" stroke="url(#paint32_linear_291_1902)" stroke-width="0.25" stroke-miterlimit="10"/>
<path d="M185.914 331.677C185.765 331.834 185.576 331.917 185.366 331.917C185.128 331.917 184.928 331.834 184.779 331.677C184.63 331.521 184.55 331.324 184.55 331.105V318.049H180.508C180.279 318.049 180.09 317.966 179.951 317.8C179.802 317.633 179.732 317.436 179.732 317.217C179.732 316.978 179.812 316.78 179.961 316.624C180.11 316.468 180.299 316.385 180.508 316.385H190.185C190.394 316.385 190.583 316.468 190.742 316.635C190.901 316.801 190.981 316.999 190.981 317.217C190.981 317.436 190.901 317.633 190.742 317.8C190.583 317.966 190.394 318.049 190.185 318.049H186.143V331.105C186.143 331.324 186.063 331.521 185.914 331.677Z" fill="url(#paint33_linear_291_1902)" stroke="url(#paint34_linear_291_1902)" stroke-width="0.25" stroke-miterlimit="10"/>
<path d="M194.416 331.625C194.206 331.625 194.017 331.542 193.858 331.376C193.699 331.209 193.619 331.012 193.619 330.793V317.217C193.619 316.999 193.699 316.801 193.858 316.635C194.017 316.468 194.206 316.385 194.416 316.385H201.434C201.673 316.385 201.872 316.468 202.011 316.635C202.161 316.801 202.23 316.999 202.23 317.217C202.23 317.456 202.151 317.654 202.001 317.81C201.852 317.966 201.653 318.049 201.434 318.049H195.212V323.043H200.329C200.558 323.043 200.747 323.126 200.896 323.282C201.046 323.438 201.125 323.636 201.125 323.865C201.125 324.094 201.046 324.291 200.886 324.458C200.727 324.624 200.538 324.707 200.329 324.707H195.212V329.951H201.434C201.663 329.951 201.852 330.034 202.001 330.19C202.151 330.346 202.23 330.544 202.23 330.762C202.23 331.012 202.151 331.22 202.001 331.376C201.852 331.532 201.653 331.615 201.434 331.615H194.416V331.625Z" fill="url(#paint35_linear_291_1902)" stroke="url(#paint36_linear_291_1902)" stroke-width="0.25" stroke-miterlimit="10"/>
<path d="M206.64 331.677C206.491 331.834 206.302 331.917 206.093 331.917C205.854 331.917 205.655 331.834 205.506 331.677C205.356 331.521 205.277 331.324 205.277 331.105V317.217C205.277 316.999 205.356 316.801 205.516 316.635C205.675 316.468 205.864 316.385 206.073 316.385H210.991C211.787 316.385 212.514 316.593 213.171 317.009C213.828 317.415 214.346 317.956 214.744 318.642C215.132 319.329 215.331 320.078 215.331 320.9C215.331 321.607 215.182 322.273 214.893 322.887C214.604 323.501 214.196 324.01 213.689 324.437C213.29 324.78 212.842 325.04 212.355 325.186L215.271 330.72C215.341 330.856 215.371 330.98 215.371 331.074C215.371 331.417 215.242 331.677 214.993 331.844C214.873 331.917 214.764 331.948 214.654 331.948C214.296 331.948 214.037 331.802 213.898 331.511L210.682 325.436H207.945C207.736 325.436 207.546 325.352 207.387 325.186C207.228 325.019 207.148 324.822 207.148 324.603C207.148 324.354 207.228 324.156 207.387 324C207.546 323.844 207.736 323.771 207.945 323.771H211.001C211.508 323.771 211.966 323.646 212.384 323.397C212.803 323.137 213.131 322.783 213.37 322.356C213.619 321.93 213.738 321.441 213.738 320.91C213.738 320.13 213.47 319.464 212.942 318.902C212.783 318.736 212.594 318.58 212.384 318.445C211.966 318.195 211.508 318.07 211.001 318.07H206.879V331.126C206.879 331.345 206.8 331.542 206.65 331.698L206.64 331.677Z" fill="url(#paint37_linear_291_1902)" stroke="url(#paint38_linear_291_1902)" stroke-width="0.25" stroke-miterlimit="10"/>
<path d="M223.425 332C221.782 332 220.498 331.511 219.562 330.533C218.626 329.555 218.158 328.213 218.158 326.497V321.503C218.158 319.787 218.626 318.445 219.562 317.467C220.498 316.489 221.782 316 223.425 316C224.221 316 224.988 316.187 225.714 316.551C226.441 316.915 227.048 317.436 227.546 318.091C227.665 318.257 227.725 318.434 227.725 318.611C227.725 318.871 227.636 319.09 227.446 319.256C227.437 319.267 227.417 319.277 227.407 319.277C227.257 319.391 227.108 319.443 226.949 319.443C226.67 319.443 226.451 319.339 226.292 319.131C225.943 318.674 225.525 318.309 225.017 318.06C224.52 317.8 223.992 317.675 223.425 317.675C222.26 317.675 221.364 318.008 220.727 318.674C220.09 319.339 219.771 320.286 219.771 321.493V326.486C219.771 327.704 220.09 328.64 220.727 329.306C221.364 329.971 222.27 330.304 223.425 330.304C223.982 330.304 224.52 330.179 225.027 329.93C225.525 329.68 225.943 329.326 226.292 328.869C226.451 328.65 226.67 328.536 226.929 328.536C227.158 328.536 227.347 328.629 227.506 328.806C227.656 328.962 227.725 329.139 227.725 329.347C227.725 329.555 227.665 329.743 227.546 329.909C227.038 330.564 226.431 331.074 225.704 331.438C224.988 331.802 224.221 331.979 223.425 331.979V332Z" fill="url(#paint39_linear_291_1902)" stroke="url(#paint40_linear_291_1902)" stroke-width="0.25" stroke-miterlimit="10"/>
<path d="M232.016 331.657C231.866 331.813 231.677 331.896 231.468 331.896C231.229 331.896 231.03 331.813 230.881 331.657C230.731 331.501 230.652 331.303 230.652 331.085V316.895C230.652 316.676 230.731 316.479 230.891 316.312C231.05 316.146 231.239 316.062 231.448 316.062C231.687 316.062 231.886 316.146 232.026 316.312C232.175 316.479 232.245 316.676 232.245 316.895V322.804H238.964V316.895C238.964 316.676 239.044 316.479 239.203 316.312C239.362 316.146 239.552 316.062 239.761 316.062C240 316.062 240.189 316.146 240.328 316.312C240.467 316.479 240.537 316.676 240.537 316.895V331.085C240.537 331.324 240.467 331.522 240.318 331.667C240.169 331.823 239.99 331.896 239.761 331.896C239.532 331.896 239.343 331.813 239.193 331.657C239.044 331.501 238.964 331.303 238.964 331.085V324.479H232.245V331.085C232.245 331.303 232.165 331.501 232.016 331.657Z" fill="url(#paint41_linear_291_1902)" stroke="url(#paint42_linear_291_1902)" stroke-width="0.25" stroke-miterlimit="10"/>
<path d="M244.758 331.272C244.679 331.49 244.539 331.657 244.34 331.75C244.25 331.802 244.151 331.834 244.041 331.834C243.802 331.834 243.603 331.75 243.444 331.584C243.295 331.428 243.225 331.241 243.225 331.022C243.225 330.908 243.245 330.804 243.285 330.71L248.302 316.541C248.352 316.427 248.412 316.333 248.481 316.25C248.641 316.094 248.83 316.021 249.059 316.021C249.288 316.021 249.477 316.094 249.636 316.25C249.716 316.343 249.775 316.447 249.815 316.562L254.853 330.71C254.892 330.804 254.912 330.908 254.912 331.022C254.912 331.137 254.892 331.241 254.853 331.334C254.743 331.553 254.584 331.698 254.375 331.771C254.285 331.813 254.186 331.834 254.086 331.834C253.986 331.834 253.887 331.802 253.797 331.75C253.588 331.657 253.439 331.501 253.359 331.293L249.059 319.256L246.719 325.8H250.054C250.283 325.8 250.472 325.883 250.612 326.049C250.761 326.216 250.831 326.414 250.831 326.642C250.831 326.871 250.751 327.069 250.602 327.225C250.452 327.381 250.263 327.464 250.054 327.464H246.092L244.748 331.272H244.758Z" fill="url(#paint43_linear_291_1902)" stroke="url(#paint44_linear_291_1902)" stroke-width="0.25" stroke-miterlimit="10"/>
<path d="M258.924 331.657C258.775 331.813 258.586 331.896 258.377 331.896C258.138 331.896 257.939 331.813 257.789 331.657C257.64 331.501 257.56 331.303 257.56 331.085V316.895C257.56 316.655 257.63 316.458 257.779 316.312C257.869 316.218 257.978 316.146 258.098 316.114C258.217 316.083 258.317 316.062 258.397 316.062C258.645 316.062 258.864 316.198 259.034 316.458L266.151 328.224V316.905C266.151 316.666 266.231 316.468 266.4 316.312C266.57 316.156 266.759 316.073 266.968 316.073C267.197 316.073 267.376 316.156 267.525 316.323C267.675 316.489 267.744 316.687 267.744 316.905V331.095C267.744 331.334 267.675 331.532 267.525 331.678C267.446 331.761 267.346 331.823 267.227 331.854C267.107 331.886 267.008 331.906 266.928 331.906C266.679 331.906 266.46 331.792 266.291 331.553C266.291 331.542 265.534 330.284 264.031 327.797C262.219 324.791 260.597 322.107 259.153 319.756V331.105C259.153 331.324 259.073 331.521 258.924 331.678V331.657Z" fill="url(#paint45_linear_291_1902)" stroke="url(#paint46_linear_291_1902)" stroke-width="0.25" stroke-miterlimit="10"/>
<path d="M276.246 331.896C275.191 331.896 274.275 331.667 273.488 331.209C272.702 330.752 272.085 330.107 271.647 329.274C271.209 328.442 270.99 327.485 270.99 326.403V321.555C270.99 319.943 271.467 318.632 272.433 317.623C272.762 317.28 273.15 316.978 273.578 316.749C274.394 316.291 275.34 316.062 276.415 316.062C277.162 316.062 277.858 316.177 278.515 316.416C279.302 316.718 279.959 317.144 280.497 317.685C280.855 318.06 281.134 318.486 281.313 318.965C281.363 319.079 281.392 319.183 281.392 319.298C281.392 319.412 281.363 319.516 281.313 319.61C281.203 319.828 281.044 319.974 280.835 320.047C280.716 320.099 280.596 320.13 280.477 320.13C280.307 320.13 280.148 320.057 280.019 319.922C279.939 319.839 279.869 319.735 279.82 319.61C279.591 319.069 279.173 318.622 278.545 318.268C277.928 317.914 277.221 317.737 276.435 317.737C275.22 317.737 274.265 318.101 273.578 318.819C272.921 319.506 272.602 320.411 272.602 321.555V326.403C272.602 327.173 272.752 327.849 273.06 328.432C273.349 329.004 273.777 329.441 274.314 329.763C274.862 330.075 275.509 330.232 276.256 330.232C276.853 330.232 277.45 330.159 278.028 330.023C278.605 329.888 279.083 329.711 279.461 329.503V326.164H276.644C276.395 326.164 276.186 326.091 276.047 325.935C275.897 325.779 275.828 325.581 275.828 325.332C275.828 325.082 275.897 324.884 276.047 324.728C276.196 324.572 276.395 324.499 276.644 324.499H280.287C280.526 324.499 280.716 324.572 280.855 324.718C280.994 324.863 281.064 325.072 281.064 325.332V329.992C281.064 330.294 280.954 330.533 280.725 330.7L280.706 330.72C280.168 331.085 279.501 331.365 278.685 331.584C277.868 331.802 277.062 331.906 276.266 331.906L276.246 331.896Z" fill="url(#paint47_linear_291_1902)" stroke="url(#paint48_linear_291_1902)" stroke-width="0.25" stroke-miterlimit="10"/>
<path d="M285.185 331.625C284.976 331.625 284.787 331.542 284.628 331.376C284.469 331.209 284.389 331.012 284.389 330.793V317.217C284.389 316.999 284.469 316.801 284.628 316.635C284.787 316.468 284.976 316.385 285.185 316.385H292.204C292.442 316.385 292.642 316.468 292.781 316.635C292.93 316.801 293 316.999 293 317.217C293 317.456 292.92 317.654 292.771 317.81C292.622 317.966 292.423 318.049 292.204 318.049H285.982V323.043H291.099C291.328 323.043 291.517 323.126 291.666 323.282C291.815 323.438 291.895 323.636 291.895 323.865C291.895 324.094 291.815 324.291 291.656 324.458C291.497 324.624 291.308 324.707 291.099 324.707H285.982V329.951H292.204C292.433 329.951 292.622 330.034 292.771 330.19C292.92 330.346 293 330.544 293 330.762C293 331.012 292.92 331.22 292.771 331.376C292.622 331.532 292.423 331.615 292.204 331.615H285.185V331.625Z" fill="url(#paint49_linear_291_1902)" stroke="url(#paint50_linear_291_1902)" stroke-width="0.25" stroke-miterlimit="10"/>
<defs>
<linearGradient id="paint0_linear_291_1902" x1="147" y1="0" x2="147" y2="176" gradientUnits="userSpaceOnUse">
<stop stop-color="#EFE09A"/>
<stop offset="1" stop-color="#D3E5A4"/>
</linearGradient>
<linearGradient id="paint1_linear_291_1902" x1="40.9259" y1="204" x2="40.9259" y2="299.632" gradientUnits="userSpaceOnUse">
<stop stop-color="#EFE09A"/>
<stop offset="1" stop-color="#D3E5A4"/>
</linearGradient>
<linearGradient id="paint2_linear_291_1902" x1="109.621" y1="204.126" x2="109.621" y2="300" gradientUnits="userSpaceOnUse">
<stop stop-color="#EFE09A"/>
<stop offset="1" stop-color="#D3E5A4"/>
</linearGradient>
<linearGradient id="paint3_linear_291_1902" x1="186.174" y1="206.16" x2="186.174" y2="298.372" gradientUnits="userSpaceOnUse">
<stop stop-color="#EFE09A"/>
<stop offset="1" stop-color="#D3E5A4"/>
</linearGradient>
<linearGradient id="paint4_linear_291_1902" x1="257.684" y1="204.271" x2="257.684" y2="300" gradientUnits="userSpaceOnUse">
<stop stop-color="#EFE09A"/>
<stop offset="1" stop-color="#D3E5A4"/>
</linearGradient>
<linearGradient id="paint5_linear_291_1902" x1="5.31051" y1="316.385" x2="5.31051" y2="331.625" gradientUnits="userSpaceOnUse">
<stop stop-color="#EFE09A"/>
<stop offset="1" stop-color="#D3E5A4"/>
</linearGradient>
<linearGradient id="paint6_linear_291_1902" x1="5.31051" y1="316.385" x2="5.31051" y2="331.625" gradientUnits="userSpaceOnUse">
<stop stop-color="#EFE09A"/>
<stop offset="1" stop-color="#D3E5A4"/>
</linearGradient>
<linearGradient id="paint7_linear_291_1902" x1="17.5901" y1="316.052" x2="17.5901" y2="331.917" gradientUnits="userSpaceOnUse">
<stop stop-color="#EFE09A"/>
<stop offset="1" stop-color="#D3E5A4"/>
</linearGradient>
<linearGradient id="paint8_linear_291_1902" x1="17.5901" y1="316.052" x2="17.5901" y2="331.917" gradientUnits="userSpaceOnUse">
<stop stop-color="#EFE09A"/>
<stop offset="1" stop-color="#D3E5A4"/>
</linearGradient>
<linearGradient id="paint9_linear_291_1902" x1="30.8849" y1="316.385" x2="30.8849" y2="331.917" gradientUnits="userSpaceOnUse">
<stop stop-color="#EFE09A"/>
<stop offset="1" stop-color="#D3E5A4"/>
</linearGradient>
<linearGradient id="paint10_linear_291_1902" x1="30.8849" y1="316.385" x2="30.8849" y2="331.917" gradientUnits="userSpaceOnUse">
<stop stop-color="#EFE09A"/>
<stop offset="1" stop-color="#D3E5A4"/>
</linearGradient>
<linearGradient id="paint11_linear_291_1902" x1="42.796" y1="316.073" x2="42.796" y2="331.625" gradientUnits="userSpaceOnUse">
<stop stop-color="#EFE09A"/>
<stop offset="1" stop-color="#D3E5A4"/>
</linearGradient>
<linearGradient id="paint12_linear_291_1902" x1="42.796" y1="316.073" x2="42.796" y2="331.625" gradientUnits="userSpaceOnUse">
<stop stop-color="#EFE09A"/>
<stop offset="1" stop-color="#D3E5A4"/>
</linearGradient>
<linearGradient id="paint13_linear_291_1902" x1="54.8366" y1="316.062" x2="54.8366" y2="331.896" gradientUnits="userSpaceOnUse">
<stop stop-color="#EFE09A"/>
<stop offset="1" stop-color="#D3E5A4"/>
</linearGradient>
<linearGradient id="paint14_linear_291_1902" x1="54.8366" y1="316.062" x2="54.8366" y2="331.896" gradientUnits="userSpaceOnUse">
<stop stop-color="#EFE09A"/>
<stop offset="1" stop-color="#D3E5A4"/>
</linearGradient>
<linearGradient id="paint15_linear_291_1902" x1="68.3655" y1="316.385" x2="68.3655" y2="331.948" gradientUnits="userSpaceOnUse">
<stop stop-color="#EFE09A"/>
<stop offset="1" stop-color="#D3E5A4"/>
</linearGradient>
<linearGradient id="paint16_linear_291_1902" x1="68.3655" y1="316.385" x2="68.3655" y2="331.948" gradientUnits="userSpaceOnUse">
<stop stop-color="#EFE09A"/>
<stop offset="1" stop-color="#D3E5A4"/>
</linearGradient>
<linearGradient id="paint17_linear_291_1902" x1="81.4962" y1="316.021" x2="81.4962" y2="331.834" gradientUnits="userSpaceOnUse">
<stop stop-color="#EFE09A"/>
<stop offset="1" stop-color="#D3E5A4"/>
</linearGradient>
<linearGradient id="paint18_linear_291_1902" x1="81.4962" y1="316.021" x2="81.4962" y2="331.834" gradientUnits="userSpaceOnUse">
<stop stop-color="#EFE09A"/>
<stop offset="1" stop-color="#D3E5A4"/>
</linearGradient>
<linearGradient id="paint19_linear_291_1902" x1="92.8746" y1="316.385" x2="92.8746" y2="331.917" gradientUnits="userSpaceOnUse">
<stop stop-color="#EFE09A"/>
<stop offset="1" stop-color="#D3E5A4"/>
</linearGradient>
<linearGradient id="paint20_linear_291_1902" x1="92.8746" y1="316.385" x2="92.8746" y2="331.917" gradientUnits="userSpaceOnUse">
<stop stop-color="#EFE09A"/>
<stop offset="1" stop-color="#D3E5A4"/>
</linearGradient>
<linearGradient id="paint21_linear_291_1902" x1="102.322" y1="316.062" x2="102.322" y2="331.896" gradientUnits="userSpaceOnUse">
<stop stop-color="#EFE09A"/>
<stop offset="1" stop-color="#D3E5A4"/>
</linearGradient>
<linearGradient id="paint22_linear_291_1902" x1="102.322" y1="316.062" x2="102.322" y2="331.896" gradientUnits="userSpaceOnUse">
<stop stop-color="#EFE09A"/>
<stop offset="1" stop-color="#D3E5A4"/>
</linearGradient>
<linearGradient id="paint23_linear_291_1902" x1="111.998" y1="316.062" x2="111.998" y2="331.896" gradientUnits="userSpaceOnUse">
<stop stop-color="#EFE09A"/>
<stop offset="1" stop-color="#D3E5A4"/>
</linearGradient>
<linearGradient id="paint24_linear_291_1902" x1="111.998" y1="316.062" x2="111.998" y2="331.896" gradientUnits="userSpaceOnUse">
<stop stop-color="#EFE09A"/>
<stop offset="1" stop-color="#D3E5A4"/>
</linearGradient>
<linearGradient id="paint25_linear_291_1902" x1="125.572" y1="316.062" x2="125.572" y2="331.906" gradientUnits="userSpaceOnUse">
<stop stop-color="#EFE09A"/>
<stop offset="1" stop-color="#D3E5A4"/>
</linearGradient>
<linearGradient id="paint26_linear_291_1902" x1="125.572" y1="316.062" x2="125.572" y2="331.906" gradientUnits="userSpaceOnUse">
<stop stop-color="#EFE09A"/>
<stop offset="1" stop-color="#D3E5A4"/>
</linearGradient>
<linearGradient id="paint27_linear_291_1902" x1="146.164" y1="316.052" x2="146.164" y2="331.938" gradientUnits="userSpaceOnUse">
<stop stop-color="#EFE09A"/>
<stop offset="1" stop-color="#D3E5A4"/>
</linearGradient>
<linearGradient id="paint28_linear_291_1902" x1="146.164" y1="316.052" x2="146.164" y2="331.938" gradientUnits="userSpaceOnUse">
<stop stop-color="#EFE09A"/>
<stop offset="1" stop-color="#D3E5A4"/>
</linearGradient>
<linearGradient id="paint29_linear_291_1902" x1="162.251" y1="316.062" x2="162.251" y2="331.896" gradientUnits="userSpaceOnUse">
<stop stop-color="#EFE09A"/>
<stop offset="1" stop-color="#D3E5A4"/>
</linearGradient>
<linearGradient id="paint30_linear_291_1902" x1="162.251" y1="316.062" x2="162.251" y2="331.896" gradientUnits="userSpaceOnUse">
<stop stop-color="#EFE09A"/>
<stop offset="1" stop-color="#D3E5A4"/>
</linearGradient>
<linearGradient id="paint31_linear_291_1902" x1="171.952" y1="316.062" x2="171.952" y2="331.906" gradientUnits="userSpaceOnUse">
<stop stop-color="#EFE09A"/>
<stop offset="1" stop-color="#D3E5A4"/>
</linearGradient>
<linearGradient id="paint32_linear_291_1902" x1="171.952" y1="316.062" x2="171.952" y2="331.906" gradientUnits="userSpaceOnUse">
<stop stop-color="#EFE09A"/>
<stop offset="1" stop-color="#D3E5A4"/>
</linearGradient>
<linearGradient id="paint33_linear_291_1902" x1="185.357" y1="316.385" x2="185.357" y2="331.917" gradientUnits="userSpaceOnUse">
<stop stop-color="#EFE09A"/>
<stop offset="1" stop-color="#D3E5A4"/>
</linearGradient>
<linearGradient id="paint34_linear_291_1902" x1="185.357" y1="316.385" x2="185.357" y2="331.917" gradientUnits="userSpaceOnUse">
<stop stop-color="#EFE09A"/>
<stop offset="1" stop-color="#D3E5A4"/>
</linearGradient>
<linearGradient id="paint35_linear_291_1902" x1="197.925" y1="316.385" x2="197.925" y2="331.625" gradientUnits="userSpaceOnUse">
<stop stop-color="#EFE09A"/>
<stop offset="1" stop-color="#D3E5A4"/>
</linearGradient>
<linearGradient id="paint36_linear_291_1902" x1="197.925" y1="316.385" x2="197.925" y2="331.625" gradientUnits="userSpaceOnUse">
<stop stop-color="#EFE09A"/>
<stop offset="1" stop-color="#D3E5A4"/>
</linearGradient>
<linearGradient id="paint37_linear_291_1902" x1="210.324" y1="316.385" x2="210.324" y2="331.948" gradientUnits="userSpaceOnUse">
<stop stop-color="#EFE09A"/>
<stop offset="1" stop-color="#D3E5A4"/>
</linearGradient>
<linearGradient id="paint38_linear_291_1902" x1="210.324" y1="316.385" x2="210.324" y2="331.948" gradientUnits="userSpaceOnUse">
<stop stop-color="#EFE09A"/>
<stop offset="1" stop-color="#D3E5A4"/>
</linearGradient>
<linearGradient id="paint39_linear_291_1902" x1="222.942" y1="316" x2="222.942" y2="332" gradientUnits="userSpaceOnUse">
<stop stop-color="#EFE09A"/>
<stop offset="1" stop-color="#D3E5A4"/>
</linearGradient>
<linearGradient id="paint40_linear_291_1902" x1="222.942" y1="316" x2="222.942" y2="332" gradientUnits="userSpaceOnUse">
<stop stop-color="#EFE09A"/>
<stop offset="1" stop-color="#D3E5A4"/>
</linearGradient>
<linearGradient id="paint41_linear_291_1902" x1="235.595" y1="316.062" x2="235.595" y2="331.896" gradientUnits="userSpaceOnUse">
<stop stop-color="#EFE09A"/>
<stop offset="1" stop-color="#D3E5A4"/>
</linearGradient>
<linearGradient id="paint42_linear_291_1902" x1="235.595" y1="316.062" x2="235.595" y2="331.896" gradientUnits="userSpaceOnUse">
<stop stop-color="#EFE09A"/>
<stop offset="1" stop-color="#D3E5A4"/>
</linearGradient>
<linearGradient id="paint43_linear_291_1902" x1="249.069" y1="316.021" x2="249.069" y2="331.834" gradientUnits="userSpaceOnUse">
<stop stop-color="#EFE09A"/>
<stop offset="1" stop-color="#D3E5A4"/>
</linearGradient>
<linearGradient id="paint44_linear_291_1902" x1="249.069" y1="316.021" x2="249.069" y2="331.834" gradientUnits="userSpaceOnUse">
<stop stop-color="#EFE09A"/>
<stop offset="1" stop-color="#D3E5A4"/>
</linearGradient>
<linearGradient id="paint45_linear_291_1902" x1="262.652" y1="316.062" x2="262.652" y2="331.906" gradientUnits="userSpaceOnUse">
<stop stop-color="#EFE09A"/>
<stop offset="1" stop-color="#D3E5A4"/>
</linearGradient>
<linearGradient id="paint46_linear_291_1902" x1="262.652" y1="316.062" x2="262.652" y2="331.906" gradientUnits="userSpaceOnUse">
<stop stop-color="#EFE09A"/>
<stop offset="1" stop-color="#D3E5A4"/>
</linearGradient>
<linearGradient id="paint47_linear_291_1902" x1="276.191" y1="316.062" x2="276.191" y2="331.906" gradientUnits="userSpaceOnUse">
<stop stop-color="#EFE09A"/>
<stop offset="1" stop-color="#D3E5A4"/>
</linearGradient>
<linearGradient id="paint48_linear_291_1902" x1="276.191" y1="316.062" x2="276.191" y2="331.906" gradientUnits="userSpaceOnUse">
<stop stop-color="#EFE09A"/>
<stop offset="1" stop-color="#D3E5A4"/>
</linearGradient>
<linearGradient id="paint49_linear_291_1902" x1="288.694" y1="316.385" x2="288.694" y2="331.625" gradientUnits="userSpaceOnUse">
<stop stop-color="#EFE09A"/>
<stop offset="1" stop-color="#D3E5A4"/>
</linearGradient>
<linearGradient id="paint50_linear_291_1902" x1="288.694" y1="316.385" x2="288.694" y2="331.625" gradientUnits="userSpaceOnUse">
<stop stop-color="#EFE09A"/>
<stop offset="1" stop-color="#D3E5A4"/>
</linearGradient>
</defs>
</svg>
