<svg width="216" height="50" viewBox="0 0 216 50" fill="none" xmlns="http://www.w3.org/2000/svg">
<path d="M24.8333 45.6667C36.3396 45.6667 45.6667 36.3396 45.6667 24.8333C45.6667 13.3271 36.3396 4 24.8333 4C13.3271 4 4 13.3271 4 24.8333C4 36.3396 13.3271 45.6667 24.8333 45.6667Z" fill="#B29671"/>
<path d="M28.125 34.375L18.75 25L28.125 15.625" fill="#B29671"/>
<path d="M28.125 34.375L18.75 25L28.125 15.625" stroke="#FEFBF1" stroke-width="2" stroke-linecap="round" stroke-linejoin="round"/>
<path d="M96 25C96 28.3137 93.3137 31 90 31C86.6863 31 84 28.3137 84 25C84 21.6863 86.6863 19 90 19C93.3137 19 96 21.6863 96 25Z" fill="#FEFBF1" stroke="#B29671" stroke-width="4"/>
<path d="M114 29C116.209 29 118 27.2091 118 25C118 22.7909 116.209 21 114 21C111.791 21 110 22.7909 110 25C110 27.2091 111.791 29 114 29Z" fill="#B29671"/>
<path d="M138 29C140.209 29 142 27.2091 142 25C142 22.7909 140.209 21 138 21C135.791 21 134 22.7909 134 25C134 27.2091 135.791 29 138 29Z" fill="#B29671"/>
<path d="M194.833 45.8337C183.327 45.8337 174 36.5066 174 25.0003C174 13.4941 183.327 4.16699 194.833 4.16699C206.34 4.16699 215.667 13.4941 215.667 25.0003C215.667 36.5066 206.34 45.8337 194.833 45.8337Z" fill="#B29671"/>
<path d="M191.709 34.374L201.084 24.999L191.709 15.624" fill="#B29671"/>
<path d="M191.709 34.374L201.084 24.999L191.709 15.624" stroke="#FEFBF1" stroke-width="2" stroke-linecap="round" stroke-linejoin="round"/>
</svg>
