<svg width="160" height="100" viewBox="0 0 160 100" fill="none" xmlns="http://www.w3.org/2000/svg">
<g clip-path="url(#clip0_397_2850)">
<path d="M0 100V0H160V100H0ZM132.58 33.3081V35.3182C133.21 34.2323 133.58 33.596 134.225 32.4949C133.315 32.9495 132.91 33.1515 131.82 34.3485C132.255 33.3889 132.97 32.4596 132.16 31.1566C131.215 31.8232 130.355 32.4394 129.485 33.0505C129.95 33.5303 130.355 33.9394 130.75 34.3485C131.085 34.3485 131.415 34.3485 132.585 33.3131L132.58 33.3081ZM134.285 32.7525C134.625 33.1414 134.725 33.3283 134.795 33.3182C135.035 33.2828 135.265 33.1768 135.495 33.101C135.195 33.0152 134.89 32.9293 135.495 33.3384C135.495 33.5051 135.495 33.6768 135.545 33.8889L135.445 33.7879C135.31 33.904 135.175 34.0202 135.035 34.1414C135.09 34.197 135.14 34.2475 135.195 34.303C135.31 34.1667 135.425 34.0303 135.49 33.8434C136.735 34.298 137.68 35.1414 138.385 36.0455V38.2374C137.855 37.3939 137.535 36.8838 137.195 36.3384C134.485 36.2879 132.77 38.096 131.045 39.5859C130.835 41.1414 131.09 42.3687 132.115 43.3081C133.14 43.0101 134.155 42.7273 135.16 42.4242C136.045 42.1616 136.695 42.7879 137.36 43.1263C137.905 43.399 138.245 44.0808 138.54 44.4242H140.225C141.615 43.2727 142.285 41.8889 141.91 39.9899C140.53 39.0758 139.715 37.6212 139.08 36.0202C139.265 35.8333 139.5 35.596 139.97 35.1212C140.21 35.5556 140.45 35.9848 140.69 36.4141C140.795 36.3586 140.9 36.303 141.005 36.2475C140.87 35.8535 140.73 35.4596 140.58 35.0354C140.81 34.9242 141.14 34.7677 141.615 34.5455C140.79 34.101 139.975 34.3586 139.205 33.9596C138.14 33.4091 136.74 33.5152 134.275 32.7576L134.285 32.7525ZM74 5.0505C73.185 5.0202 72.335 5.23232 71.545 4.5404V5.51515C72.45 5.69192 73.775 5.14646 74.015 6.78283C73.865 6.86869 73.68 6.96465 73.5 7.06566C73.26 6.73232 73.015 6.39394 72.835 6.14646C72.295 6.41919 71.9 6.61616 71.47 6.83838C71.845 7.0101 72.18 7.16162 72.51 7.30808C72.33 7.92424 72.165 8.50505 72 9.08586C71.735 8.74747 71.47 8.41414 71.145 7.99495C70.75 8.19192 70.34 8.39899 69.945 8.59596C69.445 8.32323 68.98 8.06566 68.515 7.80808C68.575 7.74747 68.635 7.68687 68.69 7.63131C69.465 7.56566 70.24 7.50505 71.49 7.39899C70.76 6.74242 70.38 6.39899 69.995 6.05556C69.9417 5.35522 69.6083 5.10606 68.995 5.30808V6.05556C68.66 5.87879 68.325 5.69697 67.98 5.51515C67.435 5.80808 66.93 6.08081 66.375 6.37879C66.545 6.70707 66.645 6.89899 66.775 7.14646C67.23 6.95455 67.57 6.80808 68.025 6.61616C67.97 7.0202 67.94 7.24747 67.9 7.52525C67.3 7.55555 66.745 7.58081 66.195 7.61111C66.31 7.73232 66.42 7.85354 66.535 7.97475C66.115 8.10101 65.695 8.22727 65.33 8.33333C65.635 8.91919 65.815 9.25758 65.99 9.59091C65.295 9.75252 64.6 9.39899 63.85 9.88889C63.32 10.2323 62.215 10.3333 61.765 10C61.035 9.45959 60.35 9.72727 59.66 9.58586C58.975 9.44444 58.305 9.19697 57.615 9.11111C57.25 9.06566 56.835 9.20707 56.485 9.36364C55.795 9.67172 55.135 10.0455 54.24 10.505C54.72 10.8889 55.07 11.1616 55.49 11.4949C54.945 11.5808 54.485 11.6515 53.735 11.7677C54.48 12.2475 54.98 12.5707 55.49 12.904C55.15 13.0707 54.815 13.2374 54.52 13.3788V14.5202C55.17 14.7273 55.835 14.9343 56.5 15.1465C56.37 15.4545 56.24 15.7626 56.055 16.197C56.945 15.9293 57.675 15.7071 58.41 15.4899C58.405 14.3485 59.58 14.6768 59.95 14.1869C60.62 14.404 61.21 14.596 62.12 14.8889C62.485 15.4141 62.87 16.4899 63.62 16.9242C64.575 17.4798 65.215 18.2828 66.005 18.9293V21.9798C66.11 23.0556 67.275 23.0657 67.735 23.7424C68.215 24.4495 68.565 25.2424 68.985 25.9899C69.4 26.7222 70.15 26.7778 70.86 26.8485C71.11 28.2475 72.25 28.6414 73.295 28.7172C74.48 28.803 75.26 29.6768 76.335 29.8737C76.515 31.1364 77.875 30.9394 78.435 31.5758C78.24 32.9848 78.055 34.3232 77.91 35.3939C78.9 36.697 79.68 37.7222 80.5 38.803C80.5 39.4798 80.565 40.2424 80.48 40.9899C80.41 41.6061 80.125 42.1919 80.01 42.803C79.875 43.5151 79.73 44.2424 79.76 44.9545C79.78 45.5 79.62 45.9596 79.535 46.4646C79.41 47.197 79.505 47.9697 79.505 48.1414C80.13 49.0202 80.51 49.5556 80.835 50.0202C81.305 49.9798 81.615 49.9545 81.95 49.9242C81.775 49.4848 81.45 49.0808 81.54 48.8182C81.985 47.4949 82.13 46.0354 83.21 44.9798C84.515 43.702 85.785 42.3889 86.955 41.2071C87.025 40.6364 87.07 40.2525 87.115 39.8838H88.265C88.685 39.4596 89.095 39.0455 89.565 38.5707C88.97 37.1111 90.575 36.1566 90.505 34.4949C89.52 33.404 87.765 33.9141 86.545 33.1111C86.3 31.6313 86.29 31.6566 85.375 31.298C84.3 30.8737 83.245 30.399 81.81 29.7929H79.53C79.345 30.0505 79.07 30.4444 78.865 30.7424C78.325 30.4596 77.915 30.2475 77.505 30.0303V29.0253C77.26 28.7778 77.025 28.5404 76.78 28.2929C76.605 28.4545 76.43 28.6162 75.98 29.0253C76.16 28.2778 76.27 27.8283 76.425 27.1818C75.615 27.3737 74.895 27.5455 74.21 27.7071C73.295 27.0152 73.39 26.1667 73.64 25.3939C74.75 25.1414 75.745 24.9091 76.8 24.6667C77.15 25.1919 77.48 25.697 77.795 26.1667C78.03 25.9495 78.275 25.7222 78.485 25.5303C78.28 25.2475 78.1 24.9949 77.965 24.8131C78.275 23.7273 79.425 23.4646 79.59 22.2879C79.69 21.5606 80.66 20.9545 81.28 20.2424C81.96 20.1869 82.74 20.1263 83.98 20.0253C83.27 19.4394 82.915 19.1465 82.865 19.1061C82.99 18.7323 83.13 18.3131 83.375 17.5707C83.875 18.4495 84.085 18.8182 84.3 19.1919C84.705 19.1667 85.095 19.1414 85.545 19.1162C85.265 18.2071 85.265 17.1717 84.77 16.7879C83.78 16.0202 83.205 14.8838 82.315 14.2222C81.905 14.404 81.57 14.5556 80.995 14.8081V13.6212C82.125 13.3131 82.995 12.3283 82.995 11.5101C82.53 10.8232 82.13 10.2273 81.84 9.80303C80.635 9.09091 79.57 8.45455 78.5 7.82323V6.11111C79.37 5.46465 80.325 4.72727 81.31 4.04545C81.44 3.95455 81.745 4.12626 82.14 4.20707C81.475 4.70202 80.95 5.09596 80.24 5.62626C80.895 6.09091 81.43 6.4697 81.965 6.85353C81.9 6.95455 81.835 7.0505 81.765 7.15151H84.095C84.29 7.78788 84.47 8.37879 84.655 8.97475C84.935 9.07071 85.225 9.17172 85.535 9.27778C85.335 9.5 85.175 9.67677 84.98 9.89394C85.305 10.0101 85.595 10.1162 85.885 10.2172C85.065 11.596 85.585 12.7475 86.44 13.8485C87.02 14.1364 87.575 14.4091 88.275 14.7576C88.62 13.8232 88.935 12.9697 89.155 12.3636C90.855 11.5556 92.39 10.8232 94.04 10.0404V7.97475C94.425 7.73232 94.775 7.51515 95.145 7.28283C94.96 6.47475 94.81 5.81313 94.635 5.05556C95.4 4.48485 96.2 3.88889 97.255 3.10101H94.165C93.86 2.70707 93.555 2.31818 93.305 1.99495C90.53 2.09091 87.805 1.5303 85.49 3.0505C85.105 2.87374 84.69 2.61616 84.635 2.67677C84.155 3.22222 83.55 2.93434 83.005 3.0101C82.56 2.29293 81.905 2 81.075 1.99495C79.475 1.98485 77.965 2.4596 76.435 2.83333C75.375 3.09596 74.29 3.33838 73.54 4.23232C73.695 4.5 73.85 4.76768 74 5.0303V5.0505ZM127.53 31.2424C127.495 31.6263 127.465 31.9394 127.425 32.404C126.925 31.9747 126.56 31.6616 125.87 31.0657C126.52 34.1616 128.825 34.803 130.21 35.6667C130.85 35.4394 131.215 35.3081 131.585 35.1768C131.515 35.0909 131.445 35 131.375 34.9141C130.75 34.8586 130.125 34.8081 129.865 34.7828C128.335 33.8283 128.965 31.9192 127.505 31.3131V29.6263C128.12 30.1768 128.51 30.5303 128.86 30.8434C129.875 30.601 130.07 29.9545 130.01 29.1667C129.625 28.6465 129.255 28.1465 128.585 27.2374C129.495 27.4242 129.94 27.5202 130.06 27.5455C131.345 27.1566 132.38 26.8434 133.405 26.5354C133.295 26.3434 133.15 26.0909 133.005 25.8434C133.378 24.9848 133.39 24.0673 133.04 23.0909C133.29 22.6061 133.505 22.1919 133.78 21.6515C134.13 22.2121 134.45 22.7172 134.775 23.2374C135.005 23.2374 135.255 23.2374 135.48 23.2323C135.51 23.5556 135.535 23.8687 135.585 24.3939C136.63 23.9091 137.52 23.4949 138.43 23.0707C138.705 22.2879 138.98 21.4899 139.21 20.8485C139.555 20.6919 139.76 20.596 139.96 20.505C139.465 20.2273 138.97 20.1111 138.715 20.3131C138.375 20.5808 138.11 21.0707 138.03 21.5101C137.885 22.2576 137.525 22.6263 136.795 22.7576C136.35 22.8384 135.93 23.0707 135.505 23.2475C135.395 22.8081 135.28 22.3636 135.16 21.8889C135.465 21.5606 135.86 21.1313 136.245 20.7172H137.35C137.67 20.2374 138.01 19.7222 138.335 19.2323C138.74 19.197 139.125 19.1566 139.42 19.1313V17.1414C138.765 16.8939 138.145 16.6616 137.6 16.4545C138.725 14.6515 140.48 14.5152 142.825 14.7273C142.885 14.5354 143.03 14.0505 143.09 13.8636C143.5 14.0707 143.78 14.2121 144.045 14.3434C143.44 14.7172 142.975 15.0101 142.47 15.3232C142.525 16.1667 142.575 16.9394 142.65 18.0808C143.48 17.3687 144.02 16.904 144.615 16.3939V14.6212H146.305C147.52 14.0455 148.22 13.7121 148.955 13.3636C149.005 13.0152 149.075 12.5657 149.16 11.9899C150.005 12.2475 150.66 12.4444 151.365 12.6616C151.63 12.2273 151.87 11.8333 152.115 11.4343C151.185 11.0808 150.37 10.8333 149.615 10.4596C148.495 9.90909 147.47 8.97475 146.15 10.0909C145.965 10.2475 145.41 9.90404 145.03 9.89899C144.36 9.88384 143.6 9.96465 143.145 9.44949C142.455 8.68182 141.365 9.56566 140.68 8.64646C140.39 8.25758 139.555 8.27273 139.04 8.12626C139.265 7.5101 139.405 7.12121 139.6 6.58586C138.84 6.58586 138.34 6.5202 137.87 6.61616C137.685 6.65657 137.575 7.06061 137.385 7.36364C137.83 7.52525 138.115 7.62626 138.445 7.74747C138.22 8.20707 137.995 8.66667 137.725 9.21717C137.285 8.99495 136.875 8.78788 136.48 8.59091C136.18 8.75758 135.905 8.90909 135.605 9.08081C135.51 8.61616 135.465 8.38889 135.41 8.11111C133.905 8.06566 132.45 8.15152 130.75 8.0404C131.105 7.42424 131.29 7.10101 131.51 6.71717C130.695 6.43434 129.895 6.15657 129.085 5.87374C129.04 5.49495 128.995 5.09596 128.94 4.61616H127.075C126.825 4.25758 126.545 3.84848 126.305 3.5C125.77 3.56566 125.39 3.61616 124.595 3.71212C125.245 4.33838 125.56 4.80808 126 5.03535C126.54 5.31818 127.18 5.38889 127.77 5.58081C127.855 5.60606 127.89 5.79798 127.945 5.90909C127.755 6.10101 127.58 6.27778 127.315 6.54545H125.045C123 7.4899 121.645 9.74242 119.33 8.00505C118.81 8.75758 117.805 9.0505 118.025 10.1162C117.685 9.93939 117.345 9.75758 117.035 9.59596C116.275 9.82323 115.77 10.8232 114.835 10.1768C114.27 10.9899 113.22 9.32323 112.775 10.601C112.585 10.4394 112.415 10.2929 112.145 10.0556C112.06 10.6212 111.995 11.0808 111.86 11.9848C111.63 11.3687 111.545 11.1313 111.385 10.702C110.75 10.4949 109.785 10.4394 109.17 9.93939C107.645 8.69192 106.295 9.30808 104.875 10.005C104.6 10.1414 104.3 10.2121 104.355 10.1919C103.525 11.6364 102.395 12.3788 101.595 13.3434V15.0303C101.955 15.1566 102.245 15.2576 102.565 15.3687C101.975 16.197 101.42 16.9747 100.875 17.7374C100.155 16.6515 99.49 15.6515 98.975 14.8737C98.53 15.0859 98.245 15.2222 98 15.3434C98.24 15.6566 98.36 15.8182 98.495 15.9949C97.74 16.3889 97.44 16.6869 97.02 17.4293C97.855 17.7424 98.69 18.0556 99.655 18.4192C99.175 18.6515 98.865 18.803 98.495 18.9848C98.92 19.1717 99.25 19.3182 99.555 19.4495C99.49 19.7525 99.46 19.9091 99.39 20.2424H97.585V22.5909C97.935 22.7172 98.225 22.8182 98.45 22.899C97.295 24.2879 96.155 25.6616 95.015 27.0303C95.87 27.7071 95.64 28.404 94.99 29.197C95.755 30.1061 96.52 31.0253 96.98 31.5758C98.82 32.197 100.36 31.2879 101.73 32.2626C101.78 32.298 102.065 32 102.25 31.8687C102.27 31.8535 102.36 31.9444 102.51 32.0455V34.0909C102.89 34.4747 103.185 34.7727 103.525 35.1162C103.525 35.4848 103.7 36.0707 103.495 36.2828C102.425 37.3838 103.195 38.5556 103.6 39.3838C104.27 40.7424 104.245 42.5505 105.785 43.3838C106.86 42.9091 107.92 42.4394 108.665 42.1111C109.27 40.7677 109.715 39.7879 110.39 38.298C110.545 38.1313 111.1 37.5505 111.57 37.0606C111.325 35.9394 111.12 35.0151 110.91 34.0657C112.015 33.005 113.03 32.0202 114 31.0909V30.0354C113.67 29.8788 113.365 29.7323 112.505 29.3182C113.57 29.3182 114.045 29.3182 114.57 29.2677C114.535 29.303 114.505 29.3333 114.47 29.3687C114.585 29.5051 114.7 29.6414 114.82 29.7828C114.875 29.7273 114.925 29.6768 114.98 29.6212C114.845 29.5051 114.71 29.3889 114.525 29.3232C114.84 28.9848 115.095 28.5556 115.475 28.3333C116.27 27.8636 116.475 27.2576 116.12 26.3586H118.12C118.84 26.9949 119.46 27.5455 119.945 27.9697C120.235 29.6212 120.74 30.8636 122.415 31.4394C122.108 30.5438 122.188 29.5859 122.655 28.5657C123.42 28.0404 123.995 27.6465 124.525 27.2828C125.58 27.5505 125.37 29.0707 126.545 29.0202V30.6818C126.865 30.899 127.195 31.1212 127.55 31.2778L127.53 31.2424ZM20.39 36.202C19.285 37.3838 18.2 38.5657 16.58 39.0758C15.41 39.4495 14.275 39.9444 13.13 40.399C10.355 41.5101 7.85 42.9596 6.55 45.7475V49.9091H44.335C44.595 49.6465 44.775 49.4646 44.905 49.3333C45.38 47.4444 44.73 45.7172 43.925 44.2172C43.085 42.6465 41.37 41.7222 39.79 41.0354C38.175 40.3333 36.52 39.6566 34.86 39.0657C32.625 38.2727 30.93 37.1768 30.495 34.6313C30.985 34.1061 31.62 33.6364 31.97 33.0101C32.57 31.9343 32.79 30.5758 33.55 29.6616C34.495 28.5303 34.49 27.1364 34.88 25.9192C35.25 24.7778 35.42 23.3889 35.445 22.1313C35.52 18.2677 34.26 15.0202 30.91 12.7121C29.46 11.7121 27.895 11.4293 26.305 11.1465C25.28 10.9646 24.055 10.8889 23.145 11.2879C20.835 12.3081 18.57 13.4899 17.36 16C16.84 17.0808 15.985 18.6111 16.005 19.2121C16.075 21.5859 15.745 23.9747 16.47 26.3232C16.815 27.4444 18.235 30.6919 18.79 31.9141C19.4 33.2475 20.945 34.2071 20.38 36.1919L20.39 36.202ZM152.455 90.4545H54.68C53.72 91.9192 53.73 92.101 54.775 93.4343H149.425C150.09 93.4343 150.765 93.5 151.42 93.4091C151.78 93.3586 152.1 93.0353 152.455 92.8283V90.4596V90.4545ZM54.705 85.8586H149.465C150.05 85.8586 150.64 85.9293 151.21 85.8384C151.65 85.7677 152.06 85.4899 152.46 85.3182V82.9091H54.655C53.785 84.3081 53.78 84.3687 54.7 85.8636L54.705 85.8586ZM53.975 60.3939C56.455 61.4495 58.76 61.096 61.025 61.096C73.845 61.1212 86.67 61.1061 99.49 61.1061C99.99 61.1061 100.49 61.1061 100.99 61.1061C102.02 61.1061 102.78 60.5455 103.495 59.8737V58.6768C102.975 57.9848 102.58 57.4596 102.32 57.1162H54.715C53.47 58.0707 54.205 59.3182 53.97 60.3889L53.975 60.3939ZM54.67 76.1768H91.455C91.835 75.5152 92.19 74.904 92.53 74.3081C92.28 73.7778 92.05 73.2879 91.74 72.6212C90.915 72.5 89.99 72.2424 89.06 72.2374C78.405 72.2071 67.75 72.2222 57.095 72.2172C55.985 72.2172 54.84 72.0657 54.04 73.0353V75.5353C54.25 75.7475 54.425 75.9242 54.67 76.1717V76.1768ZM7.165 60.5202H43.835C44.095 60.2576 44.275 60.0758 44.575 59.7727C44.16 58.8333 45.1 57.5354 43.78 56.6111H7.89C7.325 57.0909 6.885 57.4646 6.53 57.7677V59.8737C6.735 60.0808 6.91 60.2576 7.17 60.5202H7.165ZM148.085 54.6869V75.5909C148.345 75.8535 148.525 76.0354 148.775 76.2879C150.105 76.0202 151.64 76.7879 152.95 75.6717V54.7475C150.395 52.9949 150.42 53.1364 148.085 54.6869ZM7.665 68.601H32.335C32.595 68.3384 32.775 68.1566 32.935 67.9949V65.3434C32.695 65.101 32.52 64.9242 32.295 64.697H7.205C7.01 64.8939 6.83 65.0758 6.58 65.3283V67.5C6.88 67.803 7.235 68.1616 7.67 68.601H7.665ZM54.125 64.702V67.5505C54.27 67.697 54.45 67.8788 54.67 68.101H79.83C80.085 67.8434 80.265 67.6616 80.48 67.4444C80.41 66.5404 80.885 65.4848 79.78 64.702H54.125ZM139.58 58.7576V75.0808C139.835 75.3384 140.01 75.5151 140.2 75.7071H143.805C144.035 75.4747 144.21 75.298 144.445 75.0606V58.8535C144.035 58.4091 143.64 57.9798 143.28 57.5859H140.755C140.325 58.0151 139.91 58.4293 139.58 58.7576ZM126.805 75.7121C127.105 75.0808 127.39 74.6818 127.48 74.2374C127.58 73.7525 127.505 73.2323 127.505 72.7273V62.3737C127.095 61.9596 126.68 61.5454 126.26 61.1212H123.235C122.86 61.5202 122.46 61.9444 122.005 62.4293V69.404C122.005 70.1616 122.14 70.9545 121.97 71.6667C121.775 72.4596 122.47 73.0303 122.22 73.8636C122.06 74.399 122.52 75.1212 122.69 75.7273C124.665 76.4646 124.89 76.4596 126.81 75.7121H126.805ZM135.315 75.803C136.6 73.3081 135.78 70.6919 135.995 68.1818C136.1 66.9646 136.105 65.7374 135.23 64.6212C133.895 64.904 132.345 64.096 131.045 65.2576V75.1465C132.345 76.303 133.895 75.5 135.315 75.803ZM7.05 72.7778C6.82 73.6768 6.585 74.5808 6.39 75.3333C6.955 75.9343 7.355 76.3636 7.725 76.7626H18.755C19 76.5152 19.235 76.2778 19.425 76.0859V72.7778H7.05ZM117.91 75.5909V67.8384C117.645 67.5707 117.47 67.3939 117.315 67.2374H113.605C112.39 70 113.305 72.8333 112.96 75.5758C114.345 76.8131 115.895 76.0051 117.225 76.2879C117.47 76.0404 117.645 75.8636 117.915 75.5909H117.91ZM105.06 5.77273C105.78 5.88889 106.345 5.9798 107.21 6.11616C106.825 5.66667 106.68 5.4899 106.505 5.28788C106.84 5.13131 107.17 4.97475 107.535 4.80808C107.485 4.56061 107.445 4.33333 107.36 3.90404C105.855 4.17172 104.415 4.42929 102.65 4.74747C103.445 5.54545 104.02 6.11616 104.715 6.81313C104.885 6.29798 104.98 6.01515 105.06 5.76768V5.77273ZM112.62 40.8889C113.145 39.1263 114.22 37.9747 113.695 35.9444C112.75 37.1162 112.045 37.9899 111.385 38.8081C111.795 39.4949 112.09 39.9949 112.62 40.8889ZM115.805 6.65152C115.07 7.63636 114.47 8.43939 113.71 9.4596H115.59V8.0505C116.76 7.5 117.895 6.9697 119.025 6.43939C118.98 6.30303 118.93 6.16162 118.885 6.02525C117.845 6.23232 116.81 6.44444 115.81 6.64646L115.805 6.65152ZM145.825 47.0657C146.945 45.9343 147.89 44.9798 148.835 44.0252C148.705 44 148.48 43.9545 148.2 43.899C148.07 43.6111 147.92 43.2727 147.635 42.6364C147.55 43.5505 147.49 44.1717 147.43 44.7677C147.115 45.0859 146.855 45.4141 146.53 45.6566C146.19 45.9091 145.79 46.0758 145.355 46.3131C145.555 46.6414 145.67 46.8232 145.825 47.0657ZM93.055 11.7273C93.735 12.4444 94.125 12.8586 94.61 13.3737C95.295 12.7424 96.405 13.0404 96.55 11.7273H93.055ZM134.31 31.7576C135.305 30.101 133.105 29.2828 133.42 27.5606C132.95 28.1061 132.66 28.4444 132.38 28.7677C132.82 29.3333 133.375 29.7424 133.445 30.2222C133.545 30.904 133.645 31.4495 134.305 31.7576H134.31ZM81.46 28.2929C80.985 26.5606 79.36 27.8535 78.67 26.7929C78.555 26.6111 77.93 26.7677 77.545 26.7677C78.75 27.6111 79.945 28.2576 81.46 28.2929ZM115.64 3.11616C115.335 3.45455 115.175 3.63131 115.25 3.5505C115.43 3.9798 115.595 4.37879 115.705 4.64646C116.635 4.28788 117.29 4.03535 117.94 3.78283C117.485 3.53535 117.08 3.58586 116.695 3.5202C116.34 3.4596 116.01 3.26263 115.645 3.11616H115.64ZM112.54 4.4596H113.955V3.61616H112.54V4.4596ZM139.54 45.9495C140.655 45.9949 140.665 45.5758 140.275 44.9091C140.015 44.9596 139.795 45 139.54 45.0505V45.9495ZM133.4 35.7677C133.4 35.6212 133.395 35.4697 133.39 35.3232C132.945 35.3838 132.5 35.4444 132.05 35.5051C132.055 35.5909 132.06 35.6818 132.07 35.7677H133.4ZM149.915 9.50505L149.865 9.06566L149.045 9.26263C149.06 9.34343 149.07 9.42424 149.085 9.50505H149.915ZM140.915 7.48485C140.895 7.33838 140.88 7.19192 140.86 7.0505C140.59 7.11616 140.32 7.18182 140.045 7.24747C140.06 7.32828 140.07 7.40909 140.085 7.4899H140.915V7.48485ZM132.33 30.298H132.165V30.803H132.33V30.298ZM133.995 35.5151V35.6818H134.495V35.5151H133.995ZM83.66 48.9848H83.825V48.4798H83.66V48.9848Z" fill="white"/>
<path d="M114.5 29.293H112.485C113.345 29.7021 113.65 29.8536 113.98 30.0102V31.0658C113.01 32.0001 111.995 32.9799 110.89 34.0405C111.1 34.9951 111.3 35.9142 111.55 37.0355C111.08 37.5304 110.525 38.1112 110.37 38.2728C109.695 39.7627 109.255 40.7425 108.645 42.086C107.9 42.4142 106.835 42.8839 105.765 43.3587C104.23 42.5254 104.25 40.7173 103.58 39.3587C103.175 38.5355 102.4 37.3587 103.475 36.2577C103.68 36.0456 103.505 35.4597 103.505 35.091C103.165 34.7476 102.87 34.4496 102.49 34.0658V32.0203C102.345 31.9193 102.255 31.8284 102.23 31.8435C102.045 31.9698 101.765 32.2728 101.71 32.2375C100.34 31.2627 98.8 32.1718 96.96 31.5506C96.5 31.0001 95.73 30.086 94.97 29.1718C95.62 28.3839 95.85 27.6819 94.995 27.0052C96.135 25.6365 97.275 24.2627 98.43 22.8738C98.2 22.793 97.915 22.692 97.565 22.5658V20.2173H99.37C99.44 19.8839 99.47 19.7324 99.535 19.4243C99.23 19.293 98.9 19.1466 98.475 18.9597C98.845 18.7779 99.155 18.6264 99.635 18.394C98.67 18.0304 97.835 17.7173 97 17.4041C97.42 16.6617 97.72 16.3587 98.475 15.9698C98.34 15.793 98.215 15.6314 97.98 15.3183C98.225 15.2021 98.51 15.0658 98.955 14.8486C99.47 15.6264 100.135 16.6264 100.855 17.7122C101.4 16.9496 101.955 16.1718 102.545 15.3435C102.225 15.2324 101.935 15.1314 101.575 15.0052V13.3183C102.375 12.3486 103.505 11.6062 104.335 10.1668C104.275 10.187 104.58 10.1163 104.855 9.9799C106.275 9.28293 107.62 8.66172 109.15 9.91425C109.76 10.4142 110.73 10.4749 111.365 10.6769C111.525 11.1062 111.61 11.3435 111.84 11.9597C111.975 11.0557 112.04 10.5961 112.125 10.0304C112.395 10.2678 112.57 10.4142 112.755 10.5759C113.205 9.29809 114.255 10.9698 114.815 10.1516C115.745 10.7981 116.255 9.79809 117.015 9.57081C117.325 9.73243 117.665 9.9092 118.03 10.0658C118.02 10.0708 117.99 10.1062 117.955 10.1365C118.07 10.2728 118.185 10.4092 118.305 10.5506C118.36 10.4951 118.41 10.4446 118.465 10.389C118.33 10.2728 118.195 10.1567 118.035 10.0658C117.79 9.02536 118.8 8.73243 119.315 7.9799C121.63 9.71728 122.985 7.46475 125.03 6.52031H127.3C127.565 6.25263 127.74 6.07586 127.93 5.88394C127.875 5.77283 127.84 5.58596 127.755 5.55566C127.165 5.36374 126.525 5.29304 125.985 5.01021C125.545 4.78293 125.225 4.31324 124.58 3.68697C125.375 3.58596 125.755 3.54051 126.29 3.47485C126.53 3.82334 126.815 4.23243 127.06 4.59102H128.925C128.98 5.07081 129.025 5.4698 129.07 5.84859C129.88 6.13142 130.68 6.4092 131.495 6.69202C131.275 7.07586 131.09 7.3991 130.735 8.01526C132.435 8.12132 133.895 8.04051 135.395 8.08596C135.45 8.36374 135.5 8.59101 135.59 9.05566C135.895 8.88899 136.165 8.73243 136.465 8.56576C136.86 8.76273 137.275 8.9698 137.71 9.19203C137.98 8.64152 138.205 8.18192 138.43 7.72233C138.1 7.60617 137.815 7.50011 137.37 7.33849C137.555 7.03041 137.67 6.62637 137.855 6.59102C138.325 6.49506 138.83 6.56071 139.585 6.56071C139.39 7.09607 139.25 7.48495 139.025 8.10112C139.545 8.24758 140.375 8.22738 140.665 8.62132C141.35 9.54051 142.44 8.65667 143.13 9.42435C143.59 9.93445 144.345 9.85869 145.015 9.87384C145.4 9.88394 145.95 10.2274 146.135 10.0658C147.46 8.9496 148.48 9.88394 149.6 10.4344C150.355 10.8031 151.175 11.0506 152.1 11.4092C151.855 11.8082 151.615 12.1971 151.35 12.6365C150.645 12.4193 149.99 12.2223 149.145 11.9648C149.06 12.5456 148.995 12.99 148.94 13.3385C148.205 13.687 147.505 14.0203 146.29 14.5961H144.6V16.3688C144.005 16.8789 143.465 17.3435 142.635 18.0557C142.56 16.9193 142.51 16.1415 142.455 15.2981C142.96 14.985 143.425 14.6971 144.03 14.3183C143.77 14.187 143.485 14.0456 143.075 13.8385C143.015 14.0304 142.87 14.5102 142.81 14.7021C140.46 14.49 138.71 14.6264 137.585 16.4294C138.135 16.6365 138.755 16.8688 139.405 17.1163V19.1062C139.11 19.1314 138.725 19.1718 138.32 19.2072C137.995 19.6971 137.65 20.2122 137.335 20.692H136.23C135.845 21.1112 135.445 21.5355 135.145 21.8637C135.265 22.3385 135.375 22.7779 135.49 23.2223H134.76C134.435 22.7072 134.115 22.1971 133.765 21.6365C133.485 22.1769 133.275 22.586 133.025 23.0759C133.375 24.0523 133.363 24.9698 132.99 25.8284C133.135 26.0809 133.28 26.3284 133.39 26.5203C132.36 26.8334 131.33 27.1415 130.045 27.5304C129.93 27.5052 129.485 27.4142 128.57 27.2223C129.24 28.1264 129.61 28.6314 129.995 29.1516C130.055 29.9395 129.86 30.586 128.845 30.8284C128.5 30.5153 128.105 30.1617 127.49 29.6112V31.2981C127.16 31.0759 126.83 30.8486 126.51 30.6314V28.9698C125.335 29.0203 125.545 27.5001 124.49 27.2324C123.96 27.5961 123.385 27.99 122.62 28.5153C122.153 29.5321 122.073 30.49 122.38 31.389C120.705 30.8132 120.2 29.5708 119.91 27.9193C119.425 27.49 118.805 26.9445 118.085 26.3082H116.085C116.44 27.2072 116.235 27.8132 115.44 28.2829C115.06 28.5102 114.805 28.9395 114.49 29.2728L114.5 29.293ZM104.545 20.6567C104.51 20.692 104.48 20.7223 104.445 20.7577C104.56 20.894 104.675 21.0304 104.795 21.1718C104.85 21.1163 104.9 21.0658 104.955 21.0102C104.82 20.894 104.685 20.7779 104.5 20.7122C104.335 20.5456 104.165 20.3738 103.955 20.2577C103.99 20.2223 104.02 20.192 104.055 20.1567C103.94 20.0203 103.825 19.8839 103.705 19.7425C103.65 19.7981 103.6 19.8486 103.545 19.9041C103.68 20.0203 103.815 20.1365 104 20.2021C104.165 20.3688 104.335 20.5405 104.545 20.6567ZM106 12.6264C105.835 12.793 105.665 12.9648 105.5 13.1314C105.335 13.2577 105.165 13.3839 105 13.5153C105.165 13.7223 105.335 13.9344 105.5 14.1415C105.165 14.8132 104.835 15.49 104.55 16.2072C104.515 16.1718 104.485 16.1415 104.45 16.1062C104.315 16.2223 104.18 16.3385 104.04 16.4597C104.095 16.5153 104.145 16.5658 104.2 16.6213C104.315 16.485 104.43 16.3486 104.495 16.1617C105.245 16.288 105.775 15.9142 105.96 15.2526C106.055 14.9142 106.31 14.2223 105.495 14.1415V13.1314C105.66 12.9648 105.83 12.793 105.945 12.5809C105.98 12.6163 106.01 12.6466 106.045 12.6819C106.18 12.5658 106.315 12.4496 106.455 12.3284C106.4 12.2728 106.35 12.2223 106.295 12.1668C106.18 12.3031 106.065 12.4395 106 12.6264ZM109.955 26.3132C109.99 26.2779 110.02 26.2476 110.055 26.2122C109.94 26.0759 109.825 25.9395 109.705 25.7981C109.65 25.8536 109.6 25.9041 109.545 25.9597C109.68 26.0759 109.815 26.192 110 26.2577C110.075 26.6415 109.75 27.2223 110.5 27.2678C110.575 27.6516 110.25 28.2324 111.39 28.2627C111.245 28.2678 111.1 28.2779 110.96 28.2829C111.025 28.6112 111.085 28.9395 111.15 29.2678C111.26 29.2526 111.365 29.2375 111.475 29.2223C111.45 28.8991 111.42 28.5809 111.005 28.2728C110.93 27.889 111.255 27.3082 110.505 27.2627C110.43 26.8789 110.755 26.2981 109.96 26.3031L109.955 26.3132ZM113.955 25.3031C113.99 25.2678 114.02 25.2375 114.055 25.2021C113.94 25.0658 113.825 24.9294 113.705 24.788C113.65 24.8435 113.6 24.894 113.545 24.9496C113.68 25.0658 113.815 25.1819 114.245 25.0001C114.155 25.086 114.07 25.1718 113.98 25.2577C114 25.5557 114.025 25.8536 114.05 26.2577C114.4 26.2324 114.67 26.2173 115.005 26.192C114.7 25.7173 114.475 25.3637 113.95 25.3082L113.955 25.3031ZM109.5 23.2324C108.21 23.0961 107.125 22.6617 106.685 20.6617C106.535 21.7173 106.465 22.1769 106.385 22.7274C105.845 22.3132 105.38 21.9547 104.85 21.5405C104.615 22.0254 104.455 22.3587 104.25 22.7779C103.99 22.692 103.725 22.6011 103.415 22.5001C103.615 22.0052 103.76 21.6415 103.93 21.2072H103C102.595 20.1365 101.775 20.9344 101.175 20.7476C100.81 21.4041 99.685 21.6415 100.115 22.692C101.1 22.4951 101.98 22.3183 102.92 22.1314C102.935 23.6415 104.155 23.6062 104.78 24.1567C106.32 22.8082 107.985 25.1769 109.5 23.9799C109.5 23.7324 109.5 23.4799 109.45 23.187C109.485 23.2223 109.515 23.2526 109.55 23.288C109.685 23.1718 109.82 23.0557 109.96 22.9344C109.905 22.8789 109.855 22.8284 109.8 22.7728C109.685 22.9092 109.57 23.0456 109.505 23.2324H109.5ZM108.04 21.6516C109.085 19.9142 109.925 21.1567 110.865 21.288C110.925 20.9395 110.97 20.6567 111.045 20.2173C110.09 20.2021 109.21 20.2779 108.49 19.7122C108.43 19.6668 108.225 19.8132 108.045 19.889V21.6516H108.04ZM114.59 22.1769C114.385 21.3637 114.205 20.6466 114.03 19.9698C114.195 19.7526 114.335 19.5607 114.48 19.3688C114.36 19.2627 114.24 19.1516 114.125 19.0456C113.705 19.4243 113.285 19.7981 112.845 20.1971C113.305 20.7425 113.635 21.1314 113.93 21.4799C113.735 21.7577 113.635 21.8991 113.435 22.1769H114.585H114.59ZM98.835 16.6668H98.67V17.1718H98.835V16.6668ZM109.835 11.6163H109.67V12.1213H109.835V11.6163ZM112.335 29.7981H112.17V30.3031H112.335V29.7981Z" fill="#ACCD7E"/>
<path d="M20.385 36.207C20.95 34.2272 19.4 33.2626 18.795 31.9292C18.235 30.707 16.82 27.4595 16.475 26.3383C15.75 23.9898 16.075 21.6009 16.01 19.2272C15.995 18.6262 16.845 17.0959 17.365 16.0151C18.575 13.505 20.84 12.3232 23.15 11.303C24.06 10.8989 25.285 10.9797 26.31 11.1615C27.9 11.4393 29.465 11.7222 30.915 12.7272C34.265 15.0403 35.525 18.2828 35.45 22.1464C35.425 23.404 35.255 24.7929 34.885 25.9343C34.49 27.1514 34.5 28.5454 33.555 29.6767C32.795 30.5908 32.575 31.9444 31.975 33.0252C31.625 33.6565 30.99 34.1211 30.5 34.6464C30.935 37.1868 32.63 38.2878 34.865 39.0807C36.525 39.6666 38.18 40.3434 39.795 41.0504C41.38 41.7424 43.09 42.6666 43.93 44.2323C44.735 45.7323 45.385 47.4545 44.91 49.3484C44.775 49.4848 44.6 49.6615 44.34 49.9242H6.55V45.7626C7.845 42.9747 10.35 41.5252 13.13 40.4141C14.275 39.9545 15.41 39.4646 16.58 39.0908C18.195 38.5757 19.285 37.3939 20.39 36.2171L20.385 36.207Z" fill="#ACCD7E"/>
<path d="M56.475 15.1262C55.835 14.9393 55.17 14.7272 54.525 14.5201V13.3787C54.82 13.2322 55.155 13.0706 55.495 12.9039C54.985 12.5706 54.48 12.2474 53.74 11.7676C54.49 11.6514 54.95 11.5807 55.495 11.4948C55.075 11.1615 54.73 10.8837 54.245 10.5049C55.14 10.0453 55.8 9.67161 56.49 9.36353C56.84 9.20696 57.26 9.06555 57.62 9.111C58.31 9.19686 58.98 9.44433 59.665 9.58575C60.355 9.72716 61.04 9.45949 61.77 9.99989C62.22 10.3332 63.325 10.2373 63.855 9.88878C64.605 9.39888 65.3 9.75241 66.05 9.6211C67.07 10.2221 67.625 10.2878 67.975 9.81807C67.74 9.5807 67.505 9.34332 67.34 9.17666C66.88 9.35343 66.455 9.51504 66.05 9.6211C65.82 9.25241 65.64 8.91403 65.335 8.32817C65.7 8.21706 66.12 8.09585 66.54 7.96959C66.425 7.84837 66.315 7.72716 66.2 7.60595C66.75 7.57565 67.305 7.5504 67.905 7.52009C67.945 7.24231 67.975 7.01504 68.03 6.611C67.575 6.80292 67.23 6.94939 66.78 7.1413C66.65 6.89383 66.55 6.69686 66.38 6.37363C66.93 6.07565 67.435 5.80292 67.985 5.50999C68.33 5.69686 68.665 5.87363 69 6.0504C69.125 6.21706 69.25 6.38878 69.38 6.55545C69.585 6.38878 69.795 6.21706 70 6.0504C70.385 6.39383 70.765 6.73726 71.495 7.39383C70.245 7.49484 69.47 7.5605 68.695 7.6211C68.635 7.68171 68.575 7.73726 68.52 7.79787C68.985 8.05545 69.455 8.31302 69.95 8.58575C70.345 8.38878 70.755 8.18171 71.15 7.98474C71.475 8.40393 71.74 8.73726 72.005 9.07565C72.155 9.33827 72.305 9.6009 72.455 9.87363C72.325 10.01 72.165 10.1868 71.75 10.6262C73.18 10.5605 73.54 9.99989 73.5 9.07565C73.665 8.95949 73.99 8.80797 73.975 8.73221C73.855 8.16656 73.665 7.611 73.5 7.05545C73.68 6.95444 73.865 6.85343 74.015 6.77262C73.775 5.13625 72.45 5.67666 71.545 5.50494V4.53019C72.335 5.21706 73.185 5.00999 74 5.04029C74.165 5.20696 74.335 5.37868 74.54 5.57565C74.95 5.90898 75.4317 5.91908 75.985 5.60595C75.42 5.60595 74.96 5.60595 74.54 5.57565C74.335 5.37868 74.17 5.20696 74 5.04029C73.845 4.77767 73.695 4.50999 73.54 4.24231C74.29 3.34837 75.375 3.10595 76.435 2.84332C77.965 2.46959 79.475 1.99484 81.075 2.00494C81.905 2.00999 82.555 2.30292 83.03 3.04534C83.025 3.03524 82.99 3.00494 82.96 2.96959C82.825 3.08575 82.69 3.20191 82.55 3.32312C82.605 3.37868 82.655 3.42918 82.71 3.48474C82.825 3.34838 82.94 3.21201 83.03 3.0504C83.55 2.95444 84.155 3.23726 84.635 2.69181C84.69 2.6312 85.105 2.89383 85.49 3.06555C87.81 1.54029 90.535 2.1009 93.305 2.00999C93.555 2.33322 93.86 2.72211 94.165 3.11605H97.255C96.2 3.90393 95.4 4.49989 94.635 5.0706C94.81 5.82312 94.96 6.48979 95.145 7.29787C94.775 7.53019 94.425 7.74736 94.04 7.98979V10.0554C92.385 10.8433 90.855 11.5706 89.155 12.3787C88.935 12.9847 88.615 13.8383 88.275 14.7726C87.575 14.4241 87.025 14.1514 86.44 13.8635C85.585 12.7625 85.065 11.611 85.885 10.2322C85.595 10.1262 85.305 10.0251 84.98 9.90898C85.18 9.68676 85.34 9.50999 85.535 9.29282C85.23 9.18676 84.935 9.08575 84.655 8.98979C84.47 8.39383 84.29 7.80292 84.095 7.16656H81.765C81.83 7.06555 81.895 6.96959 81.965 6.86858C81.43 6.48979 80.895 6.10595 80.24 5.6413C80.955 5.111 81.48 4.71706 82.14 4.22211C81.75 4.13625 81.44 3.96959 81.31 4.0605C80.32 4.74231 79.365 5.47969 78.5 6.12615V7.83827C79.57 8.47464 80.64 9.10595 81.84 9.81807C82.13 10.2423 82.53 10.8383 82.995 11.5251C82.995 12.3433 82.125 13.3282 80.995 13.6363C80.95 12.8787 80.375 13.207 79.995 13.1312L80.07 12.9039C79.545 12.7423 79.02 12.5857 78.44 12.409C79.1 11.8989 80.29 11.8787 79.84 10.5302C79.575 10.7726 79.405 10.9342 79.305 11.0251C78.99 10.6716 78.685 10.3282 78.16 9.74736C78.035 10.5908 77.965 11.0504 77.9 11.4898C77.565 11.606 77.275 11.707 76.965 11.813C77.17 12.0403 77.405 12.1918 77.475 12.4039C77.54 12.6009 77.42 12.8534 77.355 13.2171C76.765 13.0706 76.255 12.9443 75.645 12.7928C74.9683 13.4561 74.6217 14.1767 74.605 14.9544C75.79 15.5554 76.955 16.1413 78.145 16.7474C78.43 16.2423 78.68 15.7928 78.93 15.3433C78.36 13.9393 78.33 13.5403 78.75 13.1312H79.99C80.035 13.8888 80.61 13.5605 80.99 13.6363V14.8231C81.565 14.5706 81.895 14.4191 82.31 14.2373C83.2 14.8989 83.775 16.0352 84.765 16.8029C85.26 17.1868 85.265 18.2221 85.54 19.1312C85.085 19.1615 84.7 19.1817 84.295 19.207C84.08 18.8332 83.87 18.4645 83.37 17.5857C83.12 18.3332 82.985 18.7474 82.86 19.1211C82.91 19.1615 83.26 19.4494 83.975 20.0403C82.735 20.1413 81.955 20.2019 81.275 20.2575C80.65 20.9696 79.685 21.5756 79.585 22.3029C79.42 23.4797 78.265 23.7423 77.96 24.8282C78.09 25.01 78.275 25.2625 78.48 25.5453C78.27 25.7423 78.025 25.9645 77.79 26.1817C77.475 25.707 77.145 25.207 76.795 24.6817C75.74 24.9241 74.74 25.1514 73.635 25.409C73.385 26.1817 73.29 27.0302 74.205 27.7221C74.89 27.5605 75.61 27.3888 76.42 27.1969C76.265 27.8433 76.155 28.2928 75.975 29.0403C76.425 28.6262 76.6 28.4645 76.775 28.308C77.02 28.5554 77.255 28.7928 77.5 29.0403V30.0453C77.91 30.2625 78.32 30.4746 78.86 30.7575C79.07 30.4595 79.345 30.0706 79.525 29.808H81.805C83.24 30.4191 84.295 30.8938 85.37 31.313C86.28 31.6716 86.29 31.6464 86.54 33.1262C87.755 33.9292 89.515 33.4191 90.5 34.51C90.575 36.1716 88.965 37.1262 89.56 38.5858C89.09 39.0605 88.68 39.4746 88.26 39.8989H87.11C87.065 40.2676 87.02 40.6514 86.95 41.2221C85.78 42.4039 84.51 43.7171 83.205 44.9948C82.125 46.0504 81.98 47.51 81.535 48.8332C81.445 49.0958 81.77 49.4999 81.945 49.9393C81.615 49.9696 81.3 49.9948 80.83 50.0352C80.5 49.5706 80.12 49.0352 79.5 48.1565C79.5 47.9847 79.405 47.212 79.53 46.4797C79.615 45.9797 79.775 45.515 79.755 44.9696C79.73 44.2575 79.87 43.5251 80.005 42.8181C80.12 42.207 80.405 41.6211 80.475 41.0049C80.56 40.2575 80.495 39.4948 80.495 38.8181C79.675 37.7423 78.895 36.712 77.905 35.409C78.055 34.3332 78.24 32.9948 78.43 31.5908C77.87 30.9544 76.51 31.1565 76.33 29.8888C75.255 29.6918 74.475 28.8181 73.29 28.7322C72.25 28.6565 71.105 28.2625 70.855 26.8635C70.145 26.7878 69.4 26.7373 68.98 26.0049C68.555 25.2575 68.21 24.4645 67.73 23.7575C67.27 23.0807 66.105 23.0706 66 21.9948V18.9443C65.205 18.2928 64.57 17.4898 63.615 16.9393C62.865 16.5049 62.475 15.4292 62.115 14.9039C61.2 14.606 60.615 14.4191 59.945 14.2019C59.575 14.6918 58.4 14.3635 58.405 15.5049C57.675 15.7272 56.94 15.9443 56.05 16.212C56.235 15.7777 56.365 15.4696 56.465 15.1363C56.47 15.1464 56.505 15.1767 56.535 15.212C56.67 15.0958 56.805 14.9797 56.945 14.8585C56.89 14.8029 56.84 14.7524 56.785 14.6969C56.67 14.8332 56.555 14.9696 56.465 15.1312L56.475 15.1262ZM75.5 8.0807C75.17 8.32312 74.835 8.5706 74.59 8.75242C74.865 9.30797 75.065 9.70696 75.26 10.1009C75.52 10.1009 75.76 10.1009 76.05 10.0504C76.015 10.0857 75.985 10.1161 75.95 10.1514C76.065 10.2878 76.18 10.4241 76.3 10.5655C76.355 10.51 76.405 10.4595 76.46 10.4039C76.325 10.2878 76.19 10.1716 76.005 10.106C75.53 9.50999 75.445 8.81807 75.455 8.04029C75.49 8.07565 75.52 8.10595 75.555 8.1413C75.69 8.02514 75.825 7.90898 75.965 7.78777C75.91 7.73221 75.86 7.68171 75.805 7.62615C75.69 7.76252 75.575 7.89888 75.51 8.08575L75.5 8.0807ZM77.905 7.99484C77.905 7.84837 77.9 7.69686 77.895 7.5504C77.45 7.611 77.005 7.67161 76.555 7.73221C76.56 7.81807 76.565 7.90898 76.575 7.99484H77.905ZM76 4.21201V4.37868H76.5V4.21201H76ZM77.165 4.5504H77.33V4.04534H77.165V4.5504ZM76.165 7.07565H76.33V6.5706H76.165V7.07565ZM75 7.41403V7.24736H74.5V7.41403H75ZM69.835 25.2575H69.67V25.7625H69.835V25.2575ZM77.5 19.8686V20.0352H78V19.8686H77.5ZM70.335 10.611H70.17V11.1161H70.335V10.611ZM69.335 10.611H69.17V11.1161H69.335V10.611ZM74 10.2726V10.4393H74.5V10.2726H74Z" fill="#ACCD7E"/>
<path d="M152.45 90.4545V92.8232C152.095 93.0303 151.775 93.3535 151.415 93.404C150.76 93.4949 150.085 93.4293 149.42 93.4293H54.775C53.73 92.0959 53.725 91.9141 54.68 90.4495H152.45V90.4545Z" fill="#ACCD7E"/>
<path d="M54.7 85.8586C53.785 84.3637 53.785 84.303 54.655 82.9041H152.45V85.3131C152.05 85.4849 151.64 85.7626 151.2 85.8333C150.63 85.9243 150.04 85.8536 149.455 85.8536H54.7V85.8586Z" fill="#ACCD7E"/>
<path d="M53.97 60.3938C54.21 59.3282 53.47 58.0756 54.715 57.1211H102.315C102.575 57.4645 102.965 57.9847 103.49 58.6817V59.8787C102.775 60.5504 102.015 61.1059 100.985 61.111C100.485 61.111 99.985 61.111 99.485 61.111C86.665 61.111 73.84 61.1211 61.02 61.1009C58.755 61.1009 56.45 61.4544 53.97 60.3989V60.3938Z" fill="#ACCD7E"/>
<path d="M54.665 76.1768C54.42 75.9294 54.245 75.7526 54.035 75.5405V73.0405C54.835 72.0758 55.98 72.2223 57.09 72.2223C67.745 72.2223 78.4 72.2122 89.055 72.2425C89.985 72.2425 90.91 72.5001 91.735 72.6263C92.045 73.293 92.28 73.7829 92.525 74.3132C92.185 74.9092 91.83 75.5203 91.45 76.1819H54.665V76.1768Z" fill="#ACCD7E"/>
<path d="M7.16499 60.5202C6.90499 60.2576 6.72999 60.0808 6.52499 59.8737V57.7677C6.87999 57.4697 7.31999 57.0909 7.88499 56.6111H43.775C45.1 57.5353 44.16 58.8333 44.57 59.7727C44.27 60.0757 44.095 60.2525 43.83 60.5202H7.16499Z" fill="#ACCD7E"/>
<path d="M148.085 54.6868C150.425 53.1363 150.395 52.9949 152.95 54.7474V75.6716C151.64 76.7878 150.1 76.0201 148.775 76.2878C148.525 76.0353 148.35 75.8585 148.085 75.5908V54.6868Z" fill="#ACCD7E"/>
<path d="M7.665 68.6011C7.23 68.1617 6.875 67.8031 6.575 67.5V65.3283C6.83 65.0708 7.005 64.894 7.2 64.697H32.295C32.52 64.9243 32.695 65.1011 32.935 65.3435V67.995C32.775 68.1566 32.595 68.3384 32.335 68.6011H7.665Z" fill="#ACCD7E"/>
<path d="M54.125 64.7019H79.78C80.885 65.4847 80.41 66.5403 80.48 67.4443C80.265 67.6615 80.085 67.8433 79.83 68.1009H54.67C54.45 67.8787 54.275 67.7019 54.125 67.5504V64.7019Z" fill="#ACCD7E"/>
<path d="M139.58 58.7577C139.91 58.4294 140.325 58.0152 140.755 57.5859H143.28C143.64 57.9799 144.035 58.4092 144.445 58.8536V75.0607C144.21 75.2981 144.035 75.4748 143.805 75.7071H140.2C140.01 75.5152 139.835 75.3385 139.58 75.0809V58.7577Z" fill="#ACCD7E"/>
<path d="M126.8 75.7071C124.88 76.4546 124.655 76.4546 122.68 75.7223C122.51 75.1162 122.05 74.394 122.21 73.8586C122.46 73.0253 121.77 72.4546 121.96 71.6617C122.135 70.9495 121.995 70.1566 121.995 69.399V62.4243C122.45 61.9445 122.85 61.5203 123.225 61.1162H126.25C126.675 61.5405 127.085 61.9546 127.495 62.3687V72.7223C127.495 73.2273 127.575 73.7475 127.47 74.2324C127.38 74.6768 127.095 75.0758 126.795 75.7071H126.8Z" fill="#ACCD7E"/>
<path d="M135.5 33.8383V33.3333C136.755 33.51 138.155 33.404 139.22 33.9494C139.995 34.3484 140.805 34.0959 141.63 34.5353C141.155 34.7575 140.825 34.9141 140.595 35.0252C140.745 35.4494 140.88 35.8434 141.02 36.2373C140.915 36.2928 140.81 36.3484 140.705 36.404C140.465 35.9747 140.225 35.5454 139.985 35.111C139.515 35.5858 139.28 35.8232 139.095 36.01C139.73 37.611 140.545 39.0656 141.925 39.9797C142.3 41.8737 141.63 43.2625 140.24 44.4141H138.555C138.265 44.0757 137.92 43.3939 137.375 43.1161C136.71 42.7827 136.06 42.1514 135.175 42.4141C134.165 42.7171 133.15 42.9999 132.13 43.2979C131.1 42.3585 130.85 41.1363 131.06 39.5757C132.785 38.0858 134.505 36.2726 137.21 36.3282C137.55 36.8686 137.87 37.3838 138.4 38.2272V36.0353C137.695 35.1312 136.745 34.2878 135.505 33.8333L135.5 33.8383Z" fill="#ACCD7E"/>
<path d="M135.31 75.803C133.89 75.4999 132.34 76.308 131.04 75.1464V65.2575C132.34 64.0959 133.89 64.904 135.225 64.6212C136.1 65.7373 136.09 66.9646 135.99 68.1818C135.775 70.6919 136.595 73.303 135.31 75.803Z" fill="#ACCD7E"/>
<path d="M7.05 72.7778H19.425V76.0859C19.235 76.2778 19 76.5152 18.755 76.7627H7.73C7.355 76.3637 6.96 75.9394 6.395 75.3334C6.59 74.5809 6.825 73.6768 7.055 72.7778H7.05Z" fill="#ACCD7E"/>
<path d="M117.91 75.596C117.645 75.8636 117.47 76.0404 117.22 76.2929C115.89 76.0101 114.335 76.8182 112.955 75.5808C113.3 72.8384 112.385 70.0051 113.6 67.2424H117.31C117.465 67.399 117.64 67.5758 117.905 67.8434V75.596H117.91Z" fill="#ACCD7E"/>
<path d="M127.53 31.2424C128.96 31.9191 128.325 33.8282 129.86 34.7777C130.125 34.803 130.75 34.8535 131.37 34.909C131.44 34.9949 131.51 35.0858 131.58 35.1717C131.21 35.303 130.845 35.4343 130.205 35.6616C128.82 34.7979 126.515 34.1565 125.865 31.0605C126.555 31.6565 126.92 31.9696 127.42 32.3989C127.46 31.9393 127.49 31.6262 127.525 31.2373L127.53 31.2424Z" fill="#ACCD7E"/>
<path d="M105.06 5.77282C104.98 6.02029 104.885 6.30312 104.715 6.81827C104.015 6.1213 103.445 5.54554 102.65 4.75261C104.415 4.43443 105.85 4.17686 107.36 3.90918C107.445 4.33847 107.49 4.56575 107.535 4.81322C107.175 4.97989 106.84 5.13645 106.505 5.29302C106.68 5.49504 106.825 5.67181 107.21 6.1213C106.345 5.98494 105.78 5.89403 105.06 5.77787V5.77282Z" fill="#ACCD7E"/>
<path d="M112.62 40.8888C112.09 39.9999 111.795 39.4999 111.385 38.808C112.045 37.9898 112.75 37.1161 113.695 35.9443C114.22 37.9746 113.145 39.1262 112.62 40.8888Z" fill="#ACCD7E"/>
<path d="M131.82 34.3435H130.745C130.35 33.9395 129.95 33.5253 129.48 33.0456C130.35 32.4294 131.21 31.8183 132.155 31.1516C132.965 32.4546 132.25 33.3839 131.815 34.3435H131.82Z" fill="#ACCD7E"/>
<path d="M135.475 23.2272C135.925 23.0555 136.345 22.8232 136.79 22.7424C137.52 22.6111 137.88 22.2474 138.025 21.4949C138.11 21.0606 138.375 20.5707 138.71 20.298C138.965 20.0959 139.46 20.2121 139.955 20.4899C139.75 20.5808 139.55 20.6767 139.205 20.8333C138.98 21.4798 138.7 22.2778 138.425 23.0555C137.515 23.4798 136.62 23.8939 135.58 24.3788C135.535 23.8535 135.505 23.5404 135.475 23.2171V23.2272Z" fill="#ACCD7E"/>
<path d="M115.805 6.65149C116.805 6.44947 117.845 6.24239 118.88 6.03027C118.925 6.16664 118.975 6.30805 119.02 6.44442C117.885 6.97472 116.755 7.50502 115.585 8.05553V9.46462H113.705C114.47 8.43936 115.07 7.63633 115.8 6.65654L115.805 6.65149Z" fill="#ACCD7E"/>
<path d="M145.825 47.0658C145.675 46.8183 145.56 46.6365 145.355 46.3132C145.79 46.0759 146.19 45.9092 146.53 45.6567C146.855 45.4143 147.115 45.0809 147.43 44.7678C147.485 44.1718 147.545 43.5506 147.635 42.6365C147.92 43.2728 148.07 43.6112 148.2 43.8991C148.48 43.9547 148.705 44.0001 148.835 44.0254C147.89 44.985 146.945 45.9395 145.825 47.0658Z" fill="#ACCD7E"/>
<path d="M93.055 11.7273H96.55C96.405 13.0404 95.295 12.7424 94.61 13.3738C94.125 12.8586 93.735 12.4445 93.055 11.7273Z" fill="#ACCD7E"/>
<path d="M134.31 31.7575C133.65 31.4545 133.55 30.909 133.45 30.2222C133.38 29.7424 132.825 29.3333 132.385 28.7676C132.665 28.4393 132.955 28.106 133.425 27.5605C133.11 29.2828 135.31 30.101 134.315 31.7575H134.31Z" fill="#ACCD7E"/>
<path d="M72 9.09101C72.165 8.5102 72.335 7.92939 72.51 7.31323C72.18 7.16171 71.845 7.0102 71.47 6.84353C71.9 6.62636 72.295 6.42939 72.835 6.15161C73.015 6.40414 73.26 6.73747 73.5 7.0708C72.795 7.20717 72.93 7.56575 73.195 8.04555C73.365 8.35363 73.405 8.74252 73.5 9.09101H72Z" fill="#ACCD7E"/>
<path d="M81.46 28.293C79.945 28.2627 78.745 27.6112 77.545 26.7677C77.935 26.7677 78.555 26.6112 78.67 26.793C79.355 27.8536 80.985 26.5607 81.46 28.293Z" fill="#ACCD7E"/>
<path d="M115.64 3.11621C116.01 3.26268 116.34 3.45459 116.69 3.52025C117.075 3.59096 117.485 3.5354 117.935 3.78288C117.285 4.0354 116.63 4.28793 115.7 4.64651C115.59 4.37884 115.425 3.97985 115.245 3.55055C115.175 3.63136 115.33 3.45459 115.635 3.11621H115.64Z" fill="#ACCD7E"/>
<path d="M132.58 33.3082C132.905 33.1466 133.31 32.9445 134.225 32.49C133.585 33.5961 133.21 34.2324 132.58 35.3132V33.3031V33.3082Z" fill="#ACCD7E"/>
<path d="M112.54 4.45965V3.61621H113.955V4.45965H112.54Z" fill="#ACCD7E"/>
<path d="M139.545 45.9545V45.0555C139.8 45.005 140.02 44.9646 140.28 44.9141C140.665 45.5858 140.66 45.9999 139.545 45.9545Z" fill="#ACCD7E"/>
<path d="M69 6.06068V5.3132C69.6133 5.11118 69.9467 5.36034 70 6.06068H69Z" fill="#ACCD7E"/>
<path d="M133.405 35.7728H132.075C132.07 35.687 132.065 35.596 132.055 35.5102C132.5 35.4496 132.945 35.389 133.395 35.3284C133.395 35.4748 133.4 35.6264 133.405 35.7728Z" fill="#ACCD7E"/>
<path d="M134.29 32.7524C134.9 32.9292 135.2 33.0151 135.5 33.1009C135.265 33.1817 135.04 33.2827 134.8 33.3181C134.73 33.3282 134.63 33.1363 134.29 32.7524Z" fill="#ACCD7E"/>
<path d="M149.92 9.5102H149.09C149.075 9.42939 149.065 9.34858 149.05 9.26777L149.87 9.0708L149.92 9.5102Z" fill="#ACCD7E"/>
<path d="M140.92 7.48993H140.09C140.075 7.40912 140.065 7.32832 140.05 7.24751C140.32 7.18185 140.59 7.11619 140.865 7.05054C140.885 7.197 140.9 7.34347 140.92 7.48488V7.48993Z" fill="#ACCD7E"/>
<path d="M132.335 30.303V30.808H132.17V30.303H132.335Z" fill="#ACCD7E"/>
<path d="M135.55 33.8837C135.435 34.0201 135.32 34.1565 135.2 34.2979L135.04 34.1362C135.175 34.0201 135.31 33.9039 135.45 33.7827L135.55 33.8837Z" fill="#ACCD7E"/>
<path d="M134 35.5203H134.5V35.6869H134V35.5203Z" fill="#ACCD7E"/>
<path d="M83.665 48.9899V48.4849H83.83V48.9899H83.665Z" fill="#ACCD7E"/>
<path d="M114.545 29.2424C114.68 29.3586 114.815 29.4748 114.955 29.596C114.9 29.6515 114.85 29.702 114.795 29.7576C114.68 29.6212 114.565 29.4849 114.445 29.3434C114.48 29.3081 114.51 29.2778 114.545 29.2424Z" fill="#ACCD7E"/>
<path d="M103.005 21.4092C103.245 21.2122 103.495 21.2122 103.93 21.2122C103.76 21.6415 103.61 22.0102 103.415 22.5051C103.72 22.6061 103.99 22.6971 104.25 22.7829C104.455 22.3637 104.615 22.0253 104.85 21.5455C105.38 21.9546 105.845 22.3132 106.385 22.7324C106.465 22.1768 106.53 21.7173 106.685 20.6667C107.125 22.6617 108.21 23.1011 109.5 23.2375V23.9849C107.985 25.1819 106.315 22.8082 104.78 24.1617C104.155 23.6162 102.94 23.6465 102.92 22.1364C101.985 22.3233 101.1 22.5001 100.115 22.6971C99.685 21.6465 100.81 21.4142 101.175 20.7526C101.775 20.9395 102.595 20.1415 103.005 21.4092C103.005 21.4597 102.995 21.3132 102.985 21.1718C102.66 21.2375 102.335 21.2981 102.01 21.3637L102.055 21.692C102.375 21.6667 102.69 21.6364 103.005 21.4142V21.4092Z" fill="white"/>
<path d="M108.04 21.6516V19.889C108.215 19.8132 108.425 19.6667 108.485 19.7122C109.205 20.2778 110.085 20.2071 111.04 20.2172C110.965 20.6617 110.92 20.9395 110.86 21.2879C109.92 21.1566 109.08 19.9092 108.035 21.6516H108.04Z" fill="white"/>
<path d="M114.59 22.1767H113.44C113.64 21.8989 113.74 21.7575 113.935 21.4798C113.64 21.1313 113.31 20.7424 112.85 20.1969C113.29 19.803 113.71 19.4242 114.13 19.0454C114.25 19.1515 114.37 19.2626 114.485 19.3686C114.34 19.5606 114.195 19.7525 114.035 19.9697C114.205 20.6464 114.39 21.3636 114.595 22.1767H114.59Z" fill="white"/>
<path d="M104.5 16.1616C104.835 15.4898 105.165 14.8131 105.5 14.1414C106.315 14.2171 106.06 14.9141 105.965 15.2525C105.78 15.9141 105.25 16.2878 104.5 16.1616Z" fill="white"/>
<path d="M114.25 24.9999C114.48 25.3585 114.71 25.7171 115.01 26.1868C114.675 26.207 114.405 26.2272 114.055 26.2524C114.025 25.8484 114.005 25.5504 113.985 25.2524C114.075 25.1666 114.16 25.0807 114.25 24.9949V24.9999Z" fill="white"/>
<path d="M110.5 27.2727C111.25 27.3182 110.925 27.899 111 28.2828C110.25 28.2374 110.575 27.6565 110.5 27.2727Z" fill="white"/>
<path d="M111.39 28.2676C111.415 28.5908 111.445 28.909 111.47 29.2322C111.36 29.2474 111.255 29.2625 111.145 29.2777C111.08 28.9494 111.02 28.6211 110.955 28.2928C111.1 28.2878 111.245 28.2777 111.385 28.2726L111.39 28.2676Z" fill="white"/>
<path d="M105.5 14.1414C105.335 13.9344 105.165 13.7223 105 13.5152C105.165 13.3889 105.335 13.2627 105.5 13.1313V14.1414Z" fill="white"/>
<path d="M110 26.2627C110.75 26.3081 110.425 26.889 110.5 27.2728C109.75 27.2273 110.075 26.6465 110 26.2627Z" fill="white"/>
<path d="M103.955 20.2525C103.82 20.1363 103.685 20.0201 103.545 19.8989C103.6 19.8434 103.65 19.7929 103.705 19.7373C103.82 19.8737 103.935 20.01 104.055 20.1514C104.02 20.1868 103.99 20.2171 103.955 20.2525Z" fill="white"/>
<path d="M98.835 16.6667V17.1718H98.67V16.6667H98.835Z" fill="white"/>
<path d="M109.955 26.3132L109.545 25.9597C109.6 25.9042 109.65 25.8537 109.705 25.7981C109.82 25.9345 109.935 26.0708 110.055 26.2122C110.02 26.2476 109.99 26.2779 109.955 26.3132Z" fill="white"/>
<path d="M104.55 16.207C104.435 16.3433 104.32 16.4797 104.2 16.6211C104.145 16.5656 104.095 16.515 104.04 16.4595C104.175 16.3433 104.31 16.2272 104.45 16.106C104.485 16.1413 104.515 16.1716 104.55 16.207Z" fill="white"/>
<path d="M113.955 25.303L113.545 24.9495C113.6 24.8939 113.65 24.8434 113.705 24.7878C113.82 24.9242 113.935 25.0606 114.055 25.202C114.02 25.2373 113.99 25.2676 113.955 25.303Z" fill="white"/>
<path d="M109.45 23.1868C109.565 23.0505 109.68 22.9141 109.8 22.7727C109.855 22.8283 109.905 22.8788 109.96 22.9343C109.825 23.0505 109.69 23.1666 109.55 23.2879C109.515 23.2525 109.485 23.2222 109.45 23.1868Z" fill="white"/>
<path d="M105.95 12.5809C106.065 12.4445 106.18 12.3082 106.3 12.1667C106.355 12.2223 106.405 12.2728 106.46 12.3284C106.325 12.4445 106.19 12.5607 106.05 12.6819C106.015 12.6465 105.985 12.6162 105.95 12.5809Z" fill="white"/>
<path d="M109.835 11.6162V12.1213H109.67V11.6162H109.835Z" fill="white"/>
<path d="M112.335 29.7981V30.3031H112.17V29.7981H112.335Z" fill="white"/>
<path d="M104.545 20.6565C104.68 20.7727 104.815 20.8888 104.955 21.01C104.9 21.0656 104.85 21.1161 104.795 21.1716C104.68 21.0353 104.565 20.8989 104.445 20.7575C104.48 20.7221 104.51 20.6918 104.545 20.6565Z" fill="white"/>
<path d="M118.045 10.0505C118.18 10.1667 118.315 10.2829 118.455 10.4041C118.4 10.4596 118.35 10.5101 118.295 10.5657C118.18 10.4293 118.065 10.293 117.945 10.1515C117.98 10.1162 118.01 10.0859 118.045 10.0505Z" fill="white"/>
<path d="M80 13.1314H78.76C78.34 13.5354 78.37 13.9395 78.94 15.3435C78.69 15.793 78.44 16.2425 78.155 16.7476C76.965 16.1465 75.8 15.5556 74.615 14.9546C74.6317 14.1802 74.9783 13.4597 75.655 12.793C76.26 12.9445 76.77 13.0708 77.365 13.2173C77.425 12.8536 77.545 12.596 77.485 12.4041C77.415 12.192 77.18 12.0354 76.975 11.8132C77.285 11.7072 77.575 11.6061 77.91 11.49C77.975 11.0506 78.045 10.591 78.17 9.74756C78.69 10.3334 79 10.6769 79.315 11.0253C79.415 10.9344 79.59 10.7728 79.85 10.5304C80.3 11.8789 79.11 11.8991 78.45 12.4092C79.025 12.5859 79.55 12.7476 80.08 12.9041L80.005 13.1314H80Z" fill="white"/>
<path d="M72 9.09082H73.5C73.535 10.0151 73.18 10.5757 71.75 10.6413C72.16 10.2019 72.325 10.0252 72.455 9.8888C72.3 9.61607 72.15 9.35345 72.005 9.09082H72Z" fill="white"/>
<path d="M76 10.101H75.255C75.06 9.70707 74.86 9.30303 74.585 8.75253C74.835 8.57071 75.165 8.32323 75.495 8.08081C75.435 8.81313 75.52 9.50505 75.995 10.101H76Z" fill="white"/>
<path d="M73.5 9.091C73.4 8.73747 73.365 8.35363 73.195 8.04555C72.93 7.56575 72.795 7.20716 73.5 7.0708C73.665 7.62636 73.855 8.18191 73.975 8.74757C73.99 8.82333 73.665 8.97484 73.5 9.091Z" fill="white"/>
<path d="M66.105 9.66151C66.455 9.52515 66.88 9.36354 67.34 9.18677C67.51 9.35848 67.74 9.59081 67.975 9.82818C67.625 10.2979 67.07 10.2322 66.105 9.66151Z" fill="white"/>
<path d="M74.575 5.61621H75.98C75.4267 5.92934 74.9583 5.92934 74.575 5.61621Z" fill="white"/>
<path d="M77.905 7.99498H76.575C76.57 7.90912 76.565 7.81821 76.555 7.73236C77 7.67175 77.445 7.61114 77.895 7.55054C77.895 7.697 77.9 7.84852 77.905 7.99498Z" fill="white"/>
<path d="M69 6.06055C69.335 6.06055 69.665 6.06055 70 6.06055C69.795 6.22721 69.585 6.39893 69.38 6.5656C69.255 6.39893 69.13 6.22721 69 6.06055Z" fill="white"/>
<path d="M80 13.1313C80.38 13.207 80.955 12.8787 81 13.6363C80.62 13.5606 80.045 13.8888 80 13.1313Z" fill="white"/>
<path d="M76 4.20703H76.5V4.3737H76V4.20703Z" fill="white"/>
<path d="M77.165 4.54533V4.04028H77.33V4.54533H77.165Z" fill="white"/>
<path d="M76.165 7.07072V6.56567H76.33V7.07072H76.165Z" fill="white"/>
<path d="M75 7.4091H74.5V7.24243H75V7.4091Z" fill="white"/>
<path d="M56.45 15.106C56.565 14.9697 56.68 14.8333 56.8 14.6919C56.855 14.7475 56.905 14.798 56.96 14.8535C56.825 14.9697 56.69 15.0858 56.55 15.207C56.515 15.1717 56.485 15.1414 56.45 15.106Z" fill="white"/>
<path d="M69.835 25.2524V25.7575H69.67V25.2524H69.835Z" fill="white"/>
<path d="M77.5 19.8635H78V20.0302H77.5V19.8635Z" fill="white"/>
<path d="M70.335 10.606V11.111H70.17V10.606H70.335Z" fill="white"/>
<path d="M69.335 10.606V11.111H69.17V10.606H69.335Z" fill="white"/>
<path d="M76.045 10.0505L76.455 10.4041C76.4 10.4596 76.35 10.5101 76.295 10.5657C76.18 10.4293 76.065 10.293 75.945 10.1515C75.98 10.1162 76.01 10.0859 76.045 10.0505Z" fill="white"/>
<path d="M74 10.2676H74.5V10.4342H74V10.2676Z" fill="white"/>
<path d="M83.05 3.07586C82.935 3.21223 82.82 3.34859 82.7 3.49001C82.645 3.43445 82.595 3.38394 82.54 3.32839C82.675 3.21223 82.81 3.09607 82.95 2.97485C82.985 3.01021 83.015 3.04051 83.05 3.07586Z" fill="white"/>
<path d="M75.45 8.03523C75.565 7.89887 75.68 7.76251 75.8 7.62109C75.855 7.67665 75.905 7.72715 75.96 7.78271C75.825 7.89887 75.69 8.01503 75.55 8.13625C75.515 8.10089 75.485 8.07059 75.45 8.03523Z" fill="white"/>
<path d="M103.015 21.6061C102.695 21.6314 102.38 21.6617 102.06 21.6869L102.015 21.3587C102.34 21.293 102.665 21.2324 102.99 21.1667C103 21.3132 103.005 21.4546 103.015 21.6011V21.6061Z" fill="#ACCD7E"/>
</g>
<defs>
<clipPath id="clip0_397_2850">
<rect width="160" height="100" fill="white"/>
</clipPath>
</defs>
</svg>
