<svg width="160" height="100" viewBox="0 0 160 100" fill="none" xmlns="http://www.w3.org/2000/svg">
<g clip-path="url(#clip0_397_2984)">
<path d="M80.155 99.9597H2.475C1.89 99.9597 1.295 99.884 0.729997 99.9799C-0.0700028 100.111 0.0149972 99.6415 0.0399972 99.1415C0.0549972 98.8082 0.0399972 98.4698 0.0399972 98.1314V2.02536C0.0449972 1.60617 0.104997 1.17182 0.0299972 0.767782C-0.125003 -0.0352487 0.359997 0.05061 0.854997 0.070812C1.27 0.0859635 1.685 0.070812 2.105 0.070812C53.975 0.070812 105.845 0.070812 157.715 0.070812C158.445 0.070812 159.515 -0.166562 159.81 0.202125C160.175 0.661721 159.895 1.64657 159.895 2.39909V97.5001C159.895 98.091 159.82 98.687 159.915 99.2627C160.045 100.071 159.58 99.9799 159.085 99.9648C158.585 99.9446 158.085 99.9648 157.585 99.9648H80.155V99.9597ZM134.245 2.9799C132.845 3.08596 131.385 2.9799 130.05 3.33849C125.815 4.49505 122.19 6.61627 119.49 10.2981C116.055 14.9799 115.22 20.0708 116.31 25.6971C116.805 28.2375 117.915 30.3991 119.305 32.485C119.995 33.5203 120 33.5708 118.97 34.0961C113.045 37.1011 107.105 40.0809 101.18 43.086C100.565 43.3991 100.28 43.5052 99.92 42.6668C97.215 36.3789 92.735 31.9698 86.205 29.8233C85.89 29.7223 85.585 29.5961 85.285 29.4648C84.9 29.3031 84.625 29.2021 84.815 28.586C85.44 26.5304 85.93 24.4294 86.505 22.3536C86.76 21.4395 87.155 20.8183 88.325 20.6769C90.27 20.4445 91.76 19.2627 93.155 17.8536C95.235 15.7526 95.02 12.1415 93.835 9.98495C91.93 6.51021 88.02 5.45465 84.45 7.13647C81.87 8.35364 80.465 10.3284 80.485 13.2274C80.505 16.2274 81.735 18.5456 84.42 19.9547C86 20.7829 86.01 20.7476 85.545 22.6466C85.405 23.2072 85.365 23.8031 85.18 24.3486C84.67 25.8233 84.11 27.2829 83.565 28.7476C82.155 28.7678 80.74 28.788 79.33 28.8082C78.995 28.8082 78.665 28.8082 78.33 28.8082C74.595 28.8082 71.255 30.0405 68.06 31.9496C65.13 33.7021 62.87 36.0708 61.02 38.8789C60.58 39.5456 60.325 39.8385 59.5 39.4395C53.76 36.6617 47.99 33.9496 42.245 31.1718C42.015 31.0607 41.865 30.5355 41.875 30.2122C41.885 29.9142 42.13 29.6011 42.31 29.3284C44.99 25.2728 45.925 20.9294 45.07 16.0456C44.175 10.9395 41.515 7.07081 37.515 4.13647C33.34 1.08596 28.68 -0.181713 23.48 1.04051C18.71 2.16677 14.69 4.38899 11.92 8.56071C11.095 9.80314 10.49 11.2021 9.855 12.5658C8.045 16.4648 8.1 20.5809 9.255 24.5405C10.36 28.3284 12.55 31.5254 15.805 33.99C21.04 37.9496 26.665 38.9698 32.825 36.8839C35.76 35.889 38.34 34.2274 40.455 31.9294C40.91 31.4345 41.165 31.4446 41.675 31.692C44.135 32.8789 46.62 34.0203 49.085 35.192C52.45 36.793 55.81 38.4092 59.17 40.0254C59.675 40.2678 59.865 40.5658 59.595 41.2072C58.255 44.3688 57.255 47.6062 57.45 51.1264C57.525 52.4597 57.41 52.4749 56.025 52.5254C52.725 52.6466 49.43 52.6264 46.115 52.9345C40.515 53.4597 34.865 53.3738 29.235 53.5405C28.655 53.5557 27.995 53.3991 27.505 53.6213C25.975 54.3183 24.39 53.9142 22.835 54.0355C22.09 54.0961 21.695 53.8688 21.44 53.0254C20.93 51.3183 19.915 49.8738 18.52 48.7425C16.605 47.187 14.135 46.788 12.22 47.7981C8.91 49.5405 7.275 51.1112 7.525 55.5254C7.71 58.7526 11.135 62.1112 14.315 62.0759C17.315 62.0456 20.64 59.4395 21.49 56.4547C22.02 54.586 22.02 54.5961 23.69 54.5355C27.075 54.4143 30.45 54.4799 33.85 54.1314C39.11 53.591 44.435 53.692 49.735 53.5254C50.315 53.5052 50.975 53.6718 51.465 53.4496C52.995 52.7526 54.58 53.1668 56.135 53.0203C57.055 52.9345 57.48 53.3132 57.615 54.2476C57.755 55.2274 58.025 56.187 58.285 57.1466C59.015 59.8132 60.26 62.2173 61.88 64.4547C62.72 65.6163 62.615 65.8587 61.32 66.49C57.375 68.4193 53.4 70.293 49.455 72.2324C48.795 72.5557 48.335 72.5607 48.08 71.8536C47.355 69.8688 45.77 68.5759 44.31 67.2425C41.405 64.591 37.76 63.3587 34.02 63.7375C28.1 64.3385 23.7 67.6466 21.315 73.2476C20.585 74.9648 20.14 76.9345 20.12 78.7981C20.1 80.5759 20.625 82.4244 21.22 84.1314C23.63 91.0557 32.09 95.1668 39.115 93.1163C45.14 91.3587 51.67 84.1112 49.4 75.0456C49.005 73.4597 49.025 73.4092 50.295 72.788C54.245 70.8688 58.235 69.0304 62.16 67.0557C63.19 66.5355 63.785 66.7678 64.565 67.4698C68.375 70.9092 72.825 72.8991 77.955 73.2274C78.665 73.2728 78.955 73.4042 78.725 74.2981C78.375 75.6516 78.31 77.0708 78.11 78.4648C77.995 79.2728 77.705 79.7173 76.72 79.8385C74.58 80.1011 72.905 81.3233 71.535 82.985C69.295 85.7021 69.915 90.7728 72.78 92.8031C74.755 94.2021 76.785 94.7274 79.275 93.9648C82.91 92.8486 85.06 89.4446 84.19 85.7324C83.645 83.3941 82.625 81.5405 80.27 80.7223C79.11 80.3183 78.805 79.5001 78.96 78.3789C79.13 77.1466 79.335 75.9244 79.45 74.687C79.58 73.3132 79.555 73.3941 80.855 73.2072C82.72 72.9345 84.645 72.7476 86.405 72.1314C90.525 70.687 94.165 68.4597 96.705 64.7122C97.375 63.7223 97.72 63.6819 98.735 64.2728C100.715 65.4345 102.705 66.5809 104.67 67.7779C105.87 68.5102 107 69.3587 108.215 70.0658C108.84 70.4294 109.095 70.8486 108.78 71.4749C107.75 73.5102 107.875 75.6971 107.92 77.8688C108.035 83.2122 110.74 87.0506 115.115 89.6819C118.31 91.6011 121.785 92.4294 125.56 91.4092C128.425 90.6365 131.2 89.4597 133.07 87.2577C136.065 83.7274 137.845 79.6718 137.02 74.6617C136.315 70.3941 134.225 67.2324 131.005 64.6769C125.73 60.485 116.33 61.288 111.78 66.5708C111.13 67.3233 110.54 68.1314 109.945 68.9244C109.53 69.4749 109.105 69.6112 108.48 69.2122C107.435 68.5456 106.335 67.9698 105.275 67.3183C103.235 66.0607 101.205 64.788 99.18 63.5052C98.41 63.0203 98.205 62.3435 98.785 61.5961C100.05 59.9597 100.49 57.99 100.915 56.0557C101.17 54.889 101.705 54.4951 102.78 54.5506C103.195 54.5708 103.61 54.5506 104.03 54.5506C107.42 54.5961 110.8 54.7779 114.185 54.9597C122.465 55.4092 130.77 55.4092 139.06 55.5405C140.165 55.5607 140.77 55.7274 141.195 56.985C142.31 60.288 144.665 61.7425 148.235 61.6668C153.715 61.5506 156.215 56.8031 154.485 51.788C153.455 48.7981 150.82 47.9547 148.05 47.5001C145.635 47.1011 141.93 49.389 140.93 53.3536C140.51 55.0102 140.495 55.086 138.795 55.0304C137.405 54.985 136.025 54.6112 134.64 54.5809C131.395 54.5102 128.145 54.6163 124.9 54.5304C121.6 54.4446 118.3 54.1466 115 54.0658C110.865 53.9698 106.72 54.192 102.6 53.5708C101.745 53.4395 101.445 53.1567 101.465 52.3284C101.53 49.9042 101.58 47.4698 100.78 45.1365C100.545 44.4496 100.92 44.2274 101.36 43.985C103.1 43.0203 104.815 42.0203 106.585 41.1163C110.76 38.985 114.955 36.9042 119.145 34.8031C120.555 34.0961 120.885 34.1264 122.175 35.4193C126.45 39.687 131.785 40.5052 137.375 39.8233C142.525 39.1971 146.255 35.9698 149.355 31.9799C150.005 31.1415 150.435 30.1213 150.91 29.1516C152.3 26.2981 152.53 23.2577 152.455 20.1264C152.345 15.3183 150.29 11.2981 147.025 8.15162C143.57 4.82334 139.37 2.56071 134.255 2.9698L134.245 2.9799Z" fill="white"/>
<path d="M134.245 2.97985C139.36 2.57076 143.555 4.83338 147.015 8.16167C150.28 11.3081 152.335 15.3283 152.445 20.1364C152.52 23.2677 152.29 26.3081 150.9 29.1617C150.43 30.1314 149.995 31.1516 149.345 31.99C146.25 35.9799 142.515 39.2071 137.365 39.8334C131.775 40.5152 126.445 39.697 122.165 35.4293C120.875 34.1415 120.545 34.1112 119.135 34.8132C114.945 36.9091 110.75 38.995 106.575 41.1263C104.805 42.0304 103.085 43.0304 101.35 43.995C100.91 44.2425 100.535 44.4596 100.77 45.1465C101.565 47.4799 101.52 49.9142 101.455 52.3384C101.435 53.1667 101.735 53.4495 102.59 53.5809C106.71 54.2021 110.855 53.9799 114.99 54.0758C118.29 54.1516 121.59 54.4546 124.89 54.5405C128.135 54.6263 131.385 54.5152 134.63 54.591C136.02 54.6213 137.4 54.995 138.785 55.0405C140.485 55.096 140.505 55.0203 140.92 53.3637C141.925 49.399 145.625 47.1112 148.04 47.5102C150.81 47.9697 153.445 48.8132 154.475 51.798C156.205 56.8132 153.71 61.5607 148.225 61.6768C144.655 61.7526 142.3 60.298 141.185 56.995C140.76 55.7374 140.155 55.5708 139.05 55.5506C130.755 55.4142 122.45 55.4142 114.175 54.9697C110.79 54.7879 107.41 54.6011 104.02 54.5607C103.605 54.5556 103.185 54.5758 102.77 54.5607C101.7 54.5051 101.165 54.899 100.905 56.0657C100.48 58.0001 100.04 59.9697 98.775 61.6061C98.195 62.3536 98.405 63.0304 99.17 63.5152C101.195 64.798 103.225 66.0708 105.265 67.3283C106.32 67.9799 107.425 68.5556 108.47 69.2223C109.1 69.6263 109.52 69.49 109.935 68.9344C110.535 68.1364 111.125 67.3334 111.77 66.5809C116.32 61.293 125.72 60.495 130.995 64.6869C134.22 67.2475 136.305 70.4041 137.01 74.6718C137.84 79.6869 136.06 83.7374 133.06 87.2677C131.195 89.4697 128.42 90.6465 125.55 91.4192C121.775 92.4344 118.295 91.6112 115.105 89.692C110.725 87.0607 108.025 83.2273 107.91 77.8788C107.865 75.7071 107.74 73.5202 108.77 71.4849C109.085 70.8586 108.83 70.4394 108.205 70.0758C106.99 69.3687 105.86 68.5203 104.66 67.7879C102.7 66.596 100.71 65.4445 98.725 64.2829C97.715 63.692 97.365 63.7273 96.695 64.7223C94.155 68.4697 90.515 70.7021 86.395 72.1415C84.63 72.7576 82.71 72.9445 80.845 73.2172C79.545 73.4091 79.57 73.3283 79.44 74.697C79.325 75.9344 79.12 77.1566 78.95 78.3889C78.795 79.5051 79.1 80.3283 80.26 80.7324C82.615 81.5506 83.63 83.4041 84.18 85.7425C85.05 89.4546 82.9 92.8587 79.265 93.9748C76.77 94.7374 74.745 94.2122 72.77 92.8132C69.905 90.7829 69.28 85.7071 71.525 82.995C72.9 81.3334 74.57 80.1061 76.71 79.8485C77.695 79.7273 77.985 79.2879 78.1 78.4748C78.295 77.0809 78.365 75.6617 78.715 74.3081C78.945 73.4142 78.655 73.2829 77.945 73.2374C72.81 72.9091 68.365 70.9193 64.555 67.4799C63.775 66.7778 63.185 66.5455 62.15 67.0657C58.225 69.0405 54.235 70.8788 50.285 72.798C49.01 73.4193 48.99 73.4698 49.39 75.0556C51.66 84.1213 45.13 91.3687 39.105 93.1263C32.08 95.1768 23.62 91.0657 21.21 84.1415C20.615 82.4344 20.09 80.5859 20.11 78.8081C20.13 76.9445 20.57 74.9748 21.305 73.2576C23.69 67.6566 28.085 64.3485 34.01 63.7475C37.75 63.3687 41.395 64.6011 44.3 67.2526C45.765 68.591 47.345 69.8788 48.07 71.8637C48.33 72.5708 48.785 72.5708 49.445 72.2425C53.385 70.3031 57.36 68.4294 61.31 66.5001C62.605 65.8687 62.71 65.6263 61.87 64.4647C60.25 62.2273 59 59.8283 58.275 57.1566C58.015 56.2021 57.745 55.2374 57.605 54.2576C57.47 53.3233 57.05 52.9445 56.125 53.0304C54.57 53.1768 52.985 52.7627 51.455 53.4596C50.965 53.6819 50.305 53.5203 49.725 53.5354C44.43 53.7071 39.105 53.6061 33.84 54.1415C30.44 54.4899 27.065 54.4243 23.68 54.5455C22.01 54.6061 22.01 54.591 21.48 56.4647C20.63 59.4495 17.305 62.0556 14.305 62.0859C11.13 62.1213 7.7 58.7576 7.515 55.5354C7.265 51.1213 8.9 49.5506 12.21 47.8081C14.125 46.798 16.595 47.192 18.51 48.7526C19.9 49.8839 20.915 51.3334 21.43 53.0354C21.685 53.8839 22.08 54.1061 22.825 54.0455C24.38 53.9243 25.965 54.3233 27.495 53.6314C27.985 53.4091 28.645 53.5657 29.225 53.5506C34.855 53.3788 40.51 53.4647 46.105 52.9445C49.42 52.6364 52.71 52.6566 56.015 52.5354C57.4 52.4849 57.515 52.4697 57.44 51.1364C57.245 47.6162 58.25 44.3788 59.585 41.2172C59.855 40.5758 59.665 40.2778 59.16 40.0354C55.8 38.4192 52.44 36.8031 49.075 35.2021C46.61 34.0253 44.125 32.8889 41.665 31.7021C41.15 31.4546 40.9 31.4445 40.445 31.9394C38.33 34.2374 35.75 35.899 32.815 36.894C26.655 38.9799 21.025 37.9647 15.795 34C12.54 31.5354 10.35 28.3334 9.245 24.5506C8.09 20.591 8.04 16.4748 9.845 12.5758C10.475 11.2122 11.085 9.81318 11.91 8.57076C14.675 4.39904 18.7 2.17682 23.47 1.05056C28.67 -0.176717 33.335 1.09096 37.505 4.14652C41.51 7.08086 44.165 10.9495 45.06 16.0556C45.915 20.9344 44.985 25.2829 42.3 29.3384C42.115 29.6162 41.87 29.9243 41.865 30.2223C41.855 30.5506 42 31.0708 42.235 31.1819C47.975 33.9596 53.745 36.6718 59.49 39.4495C60.315 39.8485 60.57 39.5556 61.01 38.8889C62.86 36.0809 65.115 33.7071 68.05 31.9596C71.245 30.0506 74.585 28.8233 78.32 28.8182C78.655 28.8182 78.985 28.8182 79.32 28.8182C80.73 28.798 82.145 28.7778 83.555 28.7576C84.095 27.293 84.66 25.8334 85.17 24.3586C85.355 23.8132 85.4 23.2223 85.535 22.6566C86 20.7576 85.99 20.793 84.41 19.9647C81.725 18.5556 80.495 16.2374 80.475 13.2374C80.455 10.3334 81.86 8.35864 84.44 7.14652C88.01 5.4647 91.92 6.52025 93.825 9.995C95.005 12.1516 95.22 15.7627 93.145 17.8637C91.75 19.2728 90.26 20.4546 88.315 20.6869C87.145 20.8283 86.75 21.4495 86.495 22.3637C85.92 24.4394 85.435 26.5405 84.805 28.596C84.615 29.2122 84.895 29.3132 85.275 29.4748C85.58 29.6011 85.885 29.7273 86.195 29.8334C92.73 31.9798 97.205 36.3839 99.91 42.6768C100.27 43.5152 100.555 43.4091 101.17 43.096C107.095 40.091 113.035 37.1112 118.96 34.1061C119.99 33.5859 119.985 33.5354 119.295 32.495C117.905 30.4091 116.79 28.2475 116.3 25.7071C115.205 20.0809 116.04 14.99 119.48 10.3081C122.18 6.63136 125.8 4.51015 130.04 3.34854C131.375 2.9849 132.835 3.09601 134.235 2.98995L134.245 2.97985ZM80.05 71.7829C81.01 71.6263 82.405 71.495 83.755 71.1617C87.6 70.2223 91.05 68.5253 93.81 65.5708C94.235 65.1162 94.41 64.8536 93.685 64.5203C92.495 63.9697 91.36 63.293 90.175 62.7273C88.68 62.0152 87.12 61.4445 85.66 60.6667C83.415 59.4647 83.09 58.1516 84.45 56.1061C86.69 52.7324 87.645 49.0152 87.455 44.9849C87.205 39.7172 82.195 36.7425 78.425 37.5506C74.14 38.4697 71.53 40.798 71.52 46.2172C71.51 49.7071 72.585 52.9293 74.505 55.8485C75.935 58.0152 75.6 59.4394 73.265 60.6819C71.735 61.5001 70.105 62.1213 68.53 62.8586C67.715 63.2374 66.89 63.6162 66.135 64.096C64.69 65.0152 64.66 65.1162 65.86 66.2576C69.71 69.9243 74.425 71.4041 80.045 71.7677L80.05 71.7829ZM134.105 4.65662C133.275 4.65662 132.42 4.5354 131.615 4.67682C124.875 5.86874 119.245 10.7879 117.83 18.2071C116.98 22.6516 117.835 26.591 119.965 30.394C120.29 30.9697 120.61 31.7627 121.115 31.9495C121.51 32.096 122.185 31.4495 122.75 31.192C123.8 30.7071 124.87 30.2627 125.92 29.7778C126.975 29.2879 128.055 28.8384 129.045 28.2425C130.3 27.4899 130.74 26 129.92 25.1162C128.315 23.3839 127.605 21.2122 127.16 19.0455C126.665 16.6213 126.455 14.0809 127.87 11.7425C129.63 8.83338 132.18 7.81318 135.445 8.12126C137.8 8.34349 140.935 11.1112 141.19 13.3283C141.405 15.2172 141.435 17.1718 141.205 19.0506C140.94 21.2172 139.905 23.1415 138.64 24.9344C137.695 26.2728 138 27.399 139.37 28.2778C139.72 28.5001 140.105 28.6667 140.48 28.8384C141.765 29.4091 143.07 29.9344 144.335 30.5455C147.575 32.1061 147.565 32.1213 149.18 28.798C149.255 28.6465 149.33 28.5001 149.4 28.3485C152.16 22.2021 151.255 16.2879 147.415 11.1213C144.23 6.83843 139.685 4.39904 134.105 4.66167V4.65662ZM43.685 19.2475C43.48 17.7728 43.41 16.2576 43.035 14.8233C41.89 10.4495 39.52 7.05561 35.5 4.75258C31.675 2.56571 26.405 1.66672 22.265 2.98995C16.465 4.84349 12.645 8.73742 10.895 14.5859C10.38 16.3081 10.015 18.2021 10.15 19.9748C10.37 22.7879 11.135 25.5203 12.595 28.0203C13.65 29.8283 13.57 29.8637 15.41 28.8738C15.845 28.6415 16.33 28.5051 16.785 28.3081C18.455 27.591 20.18 26.9748 21.78 26.1213C23.175 25.3738 23.43 24.3536 22.56 22.9697C21.08 20.6061 20.37 18.0455 19.745 15.3384C18.565 10.2172 23.16 4.53035 28.845 6.0152C31.86 6.80308 35.175 10.7677 34.45 14.6415C34.005 17.0102 33.36 19.3132 32.195 21.4748C30.35 24.9041 30.735 25.7879 34.33 27.2021C34.485 27.2627 34.66 27.2526 34.815 27.3182C36.185 27.8889 37.67 28.298 38.885 29.1061C39.75 29.6819 40.165 29.5859 40.675 28.8889C41.07 28.3536 41.49 27.8233 41.77 27.2324C42.97 24.7223 43.845 22.1263 43.68 19.2425L43.685 19.2475ZM135.415 77.1667C135.62 72.4344 133.735 68.8586 130.14 66.1162C126.725 63.5102 122.935 63.0304 118.9 64.1213C116.53 64.7627 114.595 66.1213 112.895 67.9344C108.69 72.4193 108.67 78.5102 111.05 83.495C111.155 83.7172 111.34 83.9041 111.495 84.096C112.03 84.7526 112.62 84.9799 113.455 84.5607C114.635 83.9697 115.895 83.5405 117.07 82.9394C117.72 82.6061 118.29 82.1011 118.85 81.6162C119.51 81.0405 119.595 80.399 119.03 79.6364C117.825 78.0051 117.35 76.0859 116.795 74.1465C116.02 71.4546 116.785 69.5001 118.65 67.6364C120.51 65.7778 122.725 65.7172 124.87 66.4596C127.185 67.2576 128.27 69.3132 128.42 71.7324C128.59 74.4698 127.905 76.995 126.275 79.2576C125.415 80.4495 125.68 81.5859 126.865 82.4243C127.125 82.6112 127.465 82.6768 127.76 82.8081C129.19 83.4395 130.665 83.9899 132.035 84.7425C132.63 85.0708 132.72 85.0455 133.105 84.5051C134.7 82.2576 135.675 79.8485 135.415 77.1617V77.1667ZM47.99 78.5354C48.125 77.0506 47.685 75.5607 47.18 74.0304C44.97 67.3233 38.055 64.2829 31.305 66.0506C27.965 66.9243 25.605 69.096 23.76 72.0859C21.425 75.8738 21.31 82.3788 24.09 86.0405C24.565 86.6667 24.945 86.9142 25.73 86.49C26.82 85.9041 28.015 85.5304 29.13 84.9849C29.94 84.5859 30.735 84.1162 31.455 83.5708C32.05 83.1213 32.21 82.4395 31.7 81.798C30.465 80.2627 30.05 78.3738 29.38 76.5809C28.565 74.399 29.11 72.4293 30.09 70.5708C31.165 68.5253 33.225 67.7475 35.32 67.894C38.99 68.1465 41.26 70.9849 40.97 74.7728C40.795 77.0051 40.265 79.197 38.96 81.1213C37.855 82.7526 38.05 83.5354 39.815 84.4394C41.21 85.1566 42.73 85.6415 44.105 86.399C45.115 86.9546 45.505 86.6465 46.05 85.7677C47.41 83.5809 48.14 81.2627 47.985 78.5405L47.99 78.5354ZM74.98 86.8081C74.955 84.6112 75.46 83.5859 76.485 83.3687C77.5 83.1516 78.4 83.3435 79.17 84.2223C79.845 84.995 80.2 85.7273 79.775 86.7021C79.445 87.4495 79.065 88.1718 78.71 88.9091C78.31 89.7475 78.49 90.4091 79.29 90.7728C79.81 91.0102 80.365 91.2273 80.925 91.298C81.285 91.3435 81.85 91.2273 82.03 90.9748C83 89.6011 83.795 88.1213 83.41 86.3334C82.66 82.8132 79.815 79.9698 75.38 81.2677C71.555 82.3839 69.74 87.5455 72.16 90.7324C72.795 91.5708 73.785 91.6061 75.055 90.8435C76.005 90.2728 76.1 89.9243 75.67 88.7778C75.355 87.9395 75.07 87.0859 74.97 86.8031L74.98 86.8081ZM154.03 54.7021C154.215 51.2324 151.155 48.3536 147.945 48.4647C145.51 48.5506 144.1 49.9192 142.78 51.7425C140.99 54.2122 142.17 57.1718 143.3 58.6617C143.455 58.8687 143.89 58.995 144.155 58.9445C144.71 58.8334 145.27 58.6415 145.775 58.3738C146.745 57.8586 146.915 57.2071 146.43 56.1465C146.155 55.5405 145.8 54.9647 145.57 54.3384C145.23 53.4243 145.57 51.7324 146.385 51.4192C147.24 51.091 148.335 51.0203 149.215 51.2627C150.13 51.5152 150.585 52.4748 150.385 53.5C150.18 54.5455 150.1 55.7425 149.525 56.5506C148.82 57.5455 149.36 57.9344 149.96 58.3182C151.725 59.4394 152.84 59.0809 153.585 57.1213C153.87 56.3687 153.885 55.5051 154.025 54.697L154.03 54.7021ZM20.52 54.9596C20.645 52.3485 19.73 50.2778 17.625 49.1112C14.545 47.4041 10.27 49.0203 8.93 52.3738C8.14 54.3485 8.105 56.4647 9.53 58.2879C9.8 58.6314 10.375 59.0102 10.735 58.9495C11.435 58.8283 12.14 58.4899 12.74 58.091C13.425 57.6364 13.745 57.0506 12.995 56.2475C12.23 55.4344 11.935 54.394 12.03 53.2425C12.135 51.9748 13.445 50.5758 14.565 50.6112C15.715 50.6465 17.095 52.0354 16.99 53.3081C16.895 54.4445 16.555 55.5708 16.205 56.6617C15.965 57.4142 16.03 57.9748 16.69 58.399C17.785 59.1061 18.745 59.1314 19.37 58.5001C20.39 57.4748 20.68 56.2172 20.53 54.9647L20.52 54.9596ZM93.46 13.6061C93.885 11.2778 92.25 9.01015 90.47 7.95965C88.44 6.76773 86.4 6.88389 84.385 8.16167C81.43 10.0304 80.57 14.0253 82.565 16.9445C83.145 17.793 84.1 18.0152 84.945 17.4495C85.285 17.2223 85.545 16.8687 85.86 16.591C86.47 16.0506 86.485 15.591 85.97 14.8889C85.5 14.2475 85.21 13.4091 85.04 12.6162C84.73 11.1869 85.71 9.79298 86.99 9.66672C88.955 9.46975 89.865 10.2223 89.98 12.0556C90.05 13.1819 89.82 14.2122 89.24 15.1718C88.835 15.8435 88.835 16.5859 89.52 16.9243C90.3 17.3132 91.43 17.8384 92.03 17.5354C92.77 17.1617 93.515 16.2223 93.47 15.0809C93.45 14.5758 93.47 14.0708 93.47 13.6011L93.46 13.6061Z" fill="#ACCD7E"/>
<path d="M80.045 71.7828C74.425 71.4141 69.71 69.9393 65.86 66.2727C64.66 65.1262 64.69 65.0302 66.135 64.111C66.89 63.6312 67.715 63.2525 68.53 62.8737C70.105 62.1363 71.735 61.51 73.265 60.6969C75.6 59.4545 75.93 58.0302 74.505 55.8636C72.58 52.9393 71.51 49.7171 71.52 46.2323C71.53 40.8131 74.14 38.4848 78.425 37.5656C82.195 36.7575 87.205 39.7272 87.455 44.9999C87.645 49.0252 86.69 52.7474 84.45 56.1211C83.09 58.1666 83.415 59.4797 85.66 60.6817C87.115 61.4595 88.68 62.0302 90.175 62.7424C91.36 63.308 92.495 63.9848 93.685 64.5353C94.41 64.8686 94.235 65.1312 93.81 65.5858C91.05 68.5403 87.6 70.2373 83.755 71.1767C82.405 71.505 81.005 71.6413 80.05 71.7979L80.045 71.7828Z" fill="white"/>
<path d="M134.105 4.65667C139.685 4.39405 144.23 6.83344 147.415 11.1163C151.255 16.2829 152.16 22.2021 149.4 28.3435C149.33 28.4951 149.255 28.6466 149.18 28.793C147.565 32.1163 147.575 32.1011 144.335 30.5405C143.07 29.9294 141.765 29.4092 140.48 28.8334C140.1 28.6668 139.715 28.4951 139.37 28.2728C138 27.394 137.695 26.2678 138.64 24.9294C139.91 23.1314 140.94 21.2072 141.205 19.0456C141.435 17.1617 141.405 15.2072 141.19 13.3233C140.94 11.1011 137.8 8.33344 135.445 8.11627C132.175 7.80819 129.63 8.82839 127.87 11.7375C126.455 14.0809 126.665 16.6163 127.16 19.0405C127.605 21.2072 128.315 23.3789 129.92 25.1112C130.74 25.9951 130.3 27.49 129.045 28.2375C128.05 28.8334 126.97 29.2829 125.92 29.7728C124.87 30.2577 123.8 30.7021 122.75 31.187C122.185 31.4445 121.51 32.091 121.115 31.9445C120.61 31.7526 120.29 30.9648 119.965 30.389C117.835 26.586 116.98 22.6466 117.83 18.2021C119.245 10.7829 124.875 5.86374 131.615 4.67182C132.42 4.53041 133.275 4.65162 134.105 4.65162V4.65667Z" fill="white"/>
<path d="M43.685 19.2474C43.85 22.1313 42.975 24.7272 41.775 27.2373C41.49 27.8282 41.07 28.3636 40.68 28.8939C40.17 29.5909 39.755 29.6868 38.89 29.1111C37.675 28.2979 36.19 27.8939 34.82 27.3232C34.67 27.2626 34.49 27.2676 34.335 27.207C30.745 25.7929 30.355 24.909 32.2 21.4797C33.365 19.3181 34.01 17.01 34.455 14.6464C35.18 10.7727 31.865 6.80802 28.85 6.02015C23.165 4.53025 18.57 10.2222 19.75 15.3434C20.375 18.0504 21.08 20.6161 22.565 22.9747C23.435 24.3636 23.18 25.3838 21.785 26.1262C20.185 26.9797 18.465 27.601 16.79 28.3131C16.335 28.51 15.85 28.6464 15.415 28.8787C13.575 29.8686 13.655 29.8333 12.6 28.0252C11.145 25.5252 10.375 22.7878 10.155 19.9797C10.015 18.207 10.385 16.3131 10.9 14.5909C12.65 8.74237 16.47 4.84843 22.27 2.99489C26.41 1.67166 31.68 2.5757 35.505 4.75752C39.525 7.0555 41.9 10.4545 43.04 14.8282C43.415 16.2575 43.48 17.7727 43.69 19.2525L43.685 19.2474Z" fill="white"/>
<path d="M135.415 77.1666C135.67 79.8535 134.7 82.2626 133.105 84.5101C132.72 85.0505 132.63 85.0707 132.035 84.7475C130.67 83.9949 129.195 83.4444 127.76 82.8131C127.46 82.6818 127.125 82.6111 126.865 82.4293C125.68 81.5858 125.415 80.4495 126.275 79.2626C127.905 77.005 128.585 74.4798 128.42 71.7374C128.27 69.3131 127.185 67.2626 124.87 66.4646C122.725 65.7222 120.51 65.7828 118.65 67.6414C116.785 69.505 116.025 71.4596 116.795 74.1515C117.35 76.0909 117.825 78.0101 119.03 79.6414C119.595 80.404 119.505 81.0454 118.85 81.6212C118.295 82.106 117.72 82.6161 117.07 82.9444C115.895 83.5454 114.635 83.9798 113.455 84.5656C112.62 84.9848 112.03 84.7576 111.495 84.101C111.335 83.9091 111.155 83.7222 111.05 83.5C108.67 78.5101 108.69 72.4192 112.895 67.9394C114.595 66.1262 116.53 64.7677 118.9 64.1262C122.935 63.0353 126.725 63.5151 130.14 66.1212C133.735 68.8636 135.62 72.4394 135.415 77.1717V77.1666Z" fill="white"/>
<path d="M47.99 78.5354C48.145 81.2576 47.415 83.5758 46.055 85.7626C45.51 86.6414 45.115 86.9495 44.11 86.394C42.735 85.6364 41.22 85.1515 39.82 84.4344C38.055 83.5303 37.86 82.7475 38.965 81.1162C40.27 79.1919 40.8 77 40.975 74.7677C41.27 70.9849 38.995 68.1414 35.325 67.8889C33.23 67.7475 31.17 68.5202 30.095 70.5657C29.115 72.4243 28.57 74.394 29.385 76.5758C30.055 78.3687 30.47 80.2525 31.705 81.7929C32.22 82.4344 32.055 83.1162 31.46 83.5657C30.74 84.1111 29.945 84.5808 29.135 84.9798C28.02 85.5253 26.825 85.899 25.735 86.4849C24.95 86.9091 24.57 86.6616 24.095 86.0354C21.315 82.3738 21.43 75.8687 23.765 72.0808C25.61 69.0909 27.97 66.9192 31.31 66.0455C38.06 64.2778 44.975 67.3131 47.185 74.0253C47.69 75.5556 48.13 77.0455 47.995 78.5303L47.99 78.5354Z" fill="white"/>
<path d="M74.985 86.8082C75.085 87.091 75.37 87.9445 75.685 88.7829C76.115 89.9294 76.02 90.2779 75.07 90.8486C73.8 91.6112 72.81 91.5759 72.175 90.7375C69.755 87.5506 71.57 82.389 75.395 81.2728C79.83 79.9749 82.675 82.8183 83.425 86.3385C83.805 88.1264 83.015 89.6062 82.045 90.9799C81.865 91.2324 81.3 91.3486 80.94 91.3031C80.38 91.2324 79.825 91.0153 79.305 90.7779C78.505 90.4143 78.32 89.7526 78.725 88.9142C79.08 88.1769 79.46 87.4546 79.79 86.7072C80.215 85.7375 79.865 85.0001 79.185 84.2274C78.415 83.3486 77.515 83.1567 76.5 83.3738C75.475 83.591 74.97 84.6163 74.995 86.8132L74.985 86.8082Z" fill="white"/>
<path d="M154.03 54.7071C153.89 55.5202 153.875 56.3788 153.59 57.1314C152.845 59.091 151.73 59.4495 149.965 58.3283C149.365 57.9445 148.825 57.5606 149.53 56.5606C150.105 55.7475 150.185 54.5556 150.39 53.5101C150.59 52.4849 150.135 51.5253 149.22 51.2728C148.345 51.0303 147.245 51.1011 146.39 51.4293C145.575 51.7425 145.235 53.4344 145.575 54.3485C145.805 54.9697 146.16 55.5455 146.435 56.1566C146.92 57.2172 146.75 57.8687 145.78 58.3839C145.275 58.6516 144.715 58.8435 144.16 58.9546C143.895 59.0051 143.46 58.8738 143.305 58.6718C142.175 57.1819 140.995 54.2172 142.785 51.7526C144.105 49.9293 145.515 48.5607 147.95 48.4748C151.16 48.3637 154.22 51.2425 154.035 54.7122L154.03 54.7071Z" fill="white"/>
<path d="M20.525 54.9647C20.675 56.2172 20.385 57.4748 19.365 58.5001C18.74 59.1263 17.78 59.1061 16.685 58.3991C16.03 57.9748 15.96 57.4142 16.2 56.6617C16.55 55.5708 16.89 54.4395 16.985 53.3082C17.09 52.0354 15.71 50.6465 14.56 50.6112C13.445 50.5758 12.13 51.9748 12.025 53.2425C11.93 54.394 12.225 55.4344 12.99 56.2476C13.74 57.0506 13.42 57.6364 12.735 58.091C12.13 58.49 11.43 58.8334 10.73 58.9496C10.37 59.0102 9.795 58.6364 9.525 58.288C8.1 56.4647 8.135 54.3486 8.925 52.3738C10.27 49.0203 14.545 47.4041 17.62 49.1112C19.725 50.2779 20.64 52.3486 20.515 54.9597L20.525 54.9647Z" fill="white"/>
<path d="M93.46 13.6061C93.46 14.0758 93.445 14.5809 93.46 15.0859C93.505 16.2223 92.76 17.1667 92.02 17.5405C91.42 17.8435 90.29 17.3182 89.51 16.9294C88.825 16.5859 88.825 15.8485 89.23 15.1768C89.805 14.2172 90.04 13.192 89.97 12.0607C89.855 10.2273 88.945 9.46976 86.98 9.67178C85.705 9.79804 84.725 11.192 85.03 12.6213C85.2 13.4142 85.49 14.2526 85.96 14.894C86.475 15.6011 86.46 16.0607 85.85 16.596C85.535 16.8738 85.28 17.2223 84.935 17.4546C84.09 18.0203 83.14 17.798 82.555 16.9496C80.56 14.0354 81.415 10.0405 84.375 8.16673C86.395 6.88895 88.435 6.77279 90.46 7.96471C92.245 9.01521 93.88 11.2778 93.45 13.6112L93.46 13.6061Z" fill="white"/>
<path d="M134.42 33.1162C136.11 33.7879 137.88 33.8434 139.665 33.8838C141.95 33.9343 144.185 33.6212 146.415 33.1414C147.515 32.904 148.095 32.2071 148.665 31.3586C150.67 28.3838 151.68 25.1465 151.68 21.5151C151.68 16.9444 150.14 13.0707 147.18 9.6414C144.54 6.5909 141.215 4.64645 137.41 3.91918C128.73 2.26262 119.57 7.76262 117.27 16.2374C115.66 22.1717 116.595 27.9394 120.695 32.8535C120.88 33.0758 121.185 33.3384 121.435 33.3434C124.93 33.4394 128.405 34.4495 131.925 33.6162C132.67 33.4394 133.425 33.2778 134.175 33.1111" stroke="#ACCD7E" stroke-width="2" stroke-linecap="round" stroke-linejoin="round"/>
<path d="M27.27 31.1011C30.415 31.8334 33.605 31.9294 36.75 31.293C37.84 31.0708 39.075 31.5657 39.99 30.8233C41.525 29.5758 42.54 27.8839 43.24 26.0455C44.295 23.288 44.53 20.4748 44.335 17.4698C43.995 12.2375 41.505 8.27281 37.7 5.19201C35.415 3.33847 32.66 2.20211 29.535 1.72231C25.405 1.08595 21.8 1.96978 18.28 3.86372C14.19 6.06574 12.04 8.89403 10.285 14.1971C9.125 17.7021 9.33 17.6819 9.71 21.7728C9.945 24.3132 10.78 26.4748 12.035 28.5758C13.055 30.2829 14.03 31.8536 16.55 31.1718C17.595 30.889 18.86 31.4597 20.03 31.596C22.64 31.894 24.405 31.692 27.025 30.8435" stroke="#ACCD7E" stroke-width="2" stroke-linecap="round" stroke-linejoin="round"/>
<path d="M35.26 87.8535C36.715 88.9293 38.395 88.5555 40.005 88.606C40.585 88.6262 41.175 88.6565 41.755 88.606C45.735 88.2373 46.55 87.702 47.98 83.8131C50.88 75.9343 47.14 67.803 38.5 64.9242C36.565 64.2777 32.25 64.5454 30.28 65.4343C27.68 66.606 25.49 68.2373 23.71 70.6565C20.66 74.7929 20.755 79.2272 21.84 83.803C22.145 85.0858 23.23 86.202 24.045 87.3333C24.31 87.6969 24.83 88.005 25.275 88.0858C28.53 88.6515 31.8 89.2676 35.01 87.8586" stroke="#ACCD7E" stroke-width="2" stroke-linecap="round" stroke-linejoin="round"/>
<path d="M122.555 71.4546C122.515 76.0809 122.49 80.7021 122.41 85.3284C122.4 85.9799 122.695 85.9142 123.15 86.1364C125.13 87.1112 127.14 86.8435 129.17 86.5859C129.59 86.5304 130.055 86.2526 130.41 86.3637C132.79 87.096 133.82 85.4193 134.625 83.793C135.905 81.2122 136.56 78.5253 136.235 75.4799C135.695 70.3839 133.22 66.8385 128.92 64.3839C127.21 63.4092 125.405 62.889 123.425 62.8536C121.185 62.8082 119.01 62.9344 116.93 63.8789C114.045 65.1869 111.845 67.3031 110.235 69.9647C109.47 71.2324 108.865 72.7728 108.76 74.2273C108.53 77.3233 108.645 80.3839 110.125 83.3385C111.205 85.495 112.675 86.4041 114.935 86.6112C117.21 86.8233 119.48 87.0708 121.665 86.2829C122.245 86.0708 122.205 86.0809 122.185 86.5809C122.165 87.1667 122.185 87.7576 122.185 88.3486" stroke="#ACCD7E" stroke-width="2" stroke-linecap="round" stroke-linejoin="round"/>
<path d="M93.21 55.8182C94.91 51.8485 94.65 47.6919 93.62 43.7323C92.585 39.7677 89.84 36.9344 86.24 34.8384C81.005 31.7879 74.54 32.899 69.99 36.6566C66.695 39.3738 65.25 43.0657 64.715 47.2374C64.425 49.4849 64.62 51.6566 65.25 53.7929C65.615 55.0303 65.59 56.0505 65.09 57.3687C64.32 59.4091 63.555 61.5758 63.715 63.8889C63.765 64.6162 63.605 65.3131 64.225 65.9142C67.48 69.0657 71.1 71.394 75.71 72.0354C76.96 72.2121 78.2 72.4546 79.465 72.4596C85.195 72.4748 89.985 70.2525 94.245 66.4596C95.565 65.2828 95.745 63.9243 95.38 62.6465C94.75 60.4344 94.555 58.0455 93.205 56.0657" stroke="#ACCD7E" stroke-width="2" stroke-linecap="round" stroke-linejoin="round"/>
<path d="M140.915 55.0606C139.5 55.1465 138.08 55.3334 136.67 55.293C133.42 55.192 130.175 54.9293 126.93 54.8233C122.77 54.6869 118.605 54.6718 114.44 54.5505C109.86 54.4192 105.28 54.2425 100.705 54.0354C99.865 53.995 99.04 53.7172 98.205 53.5505" stroke="#ACCD7E" stroke-width="2" stroke-linecap="round" stroke-linejoin="round"/>
<path d="M62.735 52.5405C61.155 52.6264 59.57 52.7173 57.99 52.7931C52.58 53.0506 47.165 53.2981 41.755 53.5506C39.84 53.6415 37.925 53.7274 36.01 53.8032C31.43 53.9749 26.85 54.1365 22.275 54.3183C22.02 54.3284 21.775 54.4749 21.525 54.5607" stroke="#ACCD7E" stroke-width="2" stroke-linecap="round" stroke-linejoin="round"/>
<path d="M94.21 14.197C94.125 13.7778 93.955 13.3485 93.975 12.9344C94.055 11.5606 93.565 10.4849 92.75 9.3687C91.69 7.91415 90.19 7.23234 88.69 6.67678C86.68 5.93436 83.4 7.93435 81.93 10.1313C80.345 12.5051 80.79 14.7222 81.98 16.9546C82.825 18.5404 84.33 19.2374 85.945 18.6818C86.815 18.3839 87.635 18.4041 88.455 18.495C92.11 18.9091 93.38 18.0455 94.2 14.4394" stroke="#ACCD7E" stroke-width="2" stroke-linecap="round" stroke-linejoin="round"/>
<path d="M147.91 59.3486C148.905 60.3991 150.335 59.99 151.405 59.9749C152.875 59.9547 154.055 58.3739 154.295 57.0607C154.62 55.288 154.78 53.3082 153.9 51.5355C152.715 49.1415 148.91 47.2274 146.43 48.0506C144.04 48.8436 142.215 50.6365 141.485 53.0658C140.845 55.1971 141.46 57.3335 142.925 59.0961C143.75 60.091 145.16 60.2223 147.165 59.6112C147.32 59.5658 147.495 59.6062 147.665 59.6062" stroke="#ACCD7E" stroke-width="2" stroke-linecap="round" stroke-linejoin="round"/>
<path d="M14.53 59.6011C15.115 59.7677 15.845 60.2475 16.25 60.0455C17.31 59.5253 18.585 60.3334 19.57 59.1364C20.77 57.6768 21.33 56.0152 21.205 54.3132C21.04 52.0607 19.845 50.1213 18.01 48.7829C16.54 47.7172 14.695 47.7728 13.045 48.0657C11.21 48.389 9.955 49.9092 8.825 51.3132C8.125 52.1819 7.9 53.3738 8.035 54.5607C8.13 55.3991 8.025 56.3132 8.32 57.0708C9.415 59.889 11.09 60.5556 14.285 59.6061" stroke="#ACCD7E" stroke-width="2" stroke-linecap="round" stroke-linejoin="round"/>
<path d="M120.185 33.8738C113.855 37.0707 107.51 40.2223 101.225 43.5051C100.39 43.9394 99.6 44.2879 98.705 44.4647" stroke="#ACCD7E" stroke-width="2" stroke-linecap="round" stroke-linejoin="round"/>
<path d="M77.97 80.2827C74.12 80.7878 72.195 81.5706 70.73 85.8332C70.155 87.51 71.305 91.5554 72.755 92.0302C73.435 92.2524 74.22 92.7979 75.24 92.4645C76.295 92.1211 77.545 92.409 78.71 92.3837C79.81 92.3585 81.005 92.6666 81.945 91.8736C83.17 90.8383 83.855 89.3787 83.91 87.8484C84.03 84.308 82.405 81.914 79.46 80.7827C79.115 80.6514 78.79 80.4494 78.46 80.2827" stroke="#ACCD7E" stroke-width="2" stroke-linecap="round" stroke-linejoin="round"/>
<path d="M41.255 30.8484C43.15 32.0706 45.225 32.9191 47.24 33.8888C51.675 36.0252 56.075 38.2474 60.485 40.4292" stroke="#ACCD7E" stroke-width="2" stroke-linecap="round" stroke-linejoin="round"/>
<path d="M134.17 13.6919V32.8636" stroke="#ACCD7E" stroke-width="2" stroke-linecap="round" stroke-linejoin="round"/>
<path d="M27.02 13.6919V30.5959" stroke="#ACCD7E" stroke-width="2" stroke-linecap="round" stroke-linejoin="round"/>
<path d="M62.735 66.1616C58.99 68.0101 55.24 69.8586 51.495 71.7121C50.49 72.2071 49.495 72.7222 48.495 73.2222" stroke="#ACCD7E" stroke-width="2" stroke-linecap="round" stroke-linejoin="round"/>
<path d="M35.01 74.4849V87.601" stroke="#ACCD7E" stroke-width="2" stroke-linecap="round" stroke-linejoin="round"/>
<path d="M97.955 63.1313C101.635 65.7324 105.535 67.9697 109.445 70.192" stroke="#ACCD7E" stroke-width="2" stroke-linecap="round" stroke-linejoin="round"/>
<path d="M86.965 18.99C86.1 22.4748 85.27 25.9748 83.97 29.3334" stroke="#ACCD7E" stroke-width="2" stroke-linecap="round" stroke-linejoin="round"/>
<path d="M92.96 55.8181C92.21 56.0706 91.405 56.2222 90.72 56.5959C88.67 57.7121 86.51 58.1009 84.215 57.8383" stroke="#ACCD7E" stroke-width="2" stroke-linecap="round" stroke-linejoin="round"/>
<path d="M74.725 57.8383C72.45 58.005 70.305 57.4949 68.225 56.5858C67.505 56.2727 66.73 56.0706 65.98 55.8181" stroke="#ACCD7E" stroke-width="2" stroke-linecap="round" stroke-linejoin="round"/>
<path d="M14.53 50.7727C14.615 52.6212 14.79 54.4747 14.75 56.3232C14.715 58.0101 14.445 59.6868 14.28 61.3687" stroke="#ACCD7E" stroke-width="2" stroke-linecap="round" stroke-linejoin="round"/>
<path d="M79.22 72.7173C78.885 75.1567 78.555 77.5961 78.22 80.0304" stroke="#ACCD7E" stroke-width="2" stroke-linecap="round" stroke-linejoin="round"/>
<path d="M77.225 86.0859V91.889" stroke="#ACCD7E" stroke-width="2" stroke-linecap="round" stroke-linejoin="round"/>
<path d="M148.16 53.7981C148.075 55.5658 147.995 57.3284 147.91 59.0961" stroke="#ACCD7E" stroke-width="2" stroke-linecap="round" stroke-linejoin="round"/>
</g>
<defs>
<clipPath id="clip0_397_2984">
<rect width="160" height="100" fill="white"/>
</clipPath>
</defs>
</svg>
