<svg width="160" height="100" viewBox="0 0 160 100" fill="none" xmlns="http://www.w3.org/2000/svg">
<g clip-path="url(#clip0_397_2941)">
<path d="M65.5 -7.64479e-05H160V99.9999H65.5C65.62 99.7979 65.69 99.5252 65.86 99.3989C66.825 98.6918 67.06 97.7727 67.03 96.5858C66.945 93.303 66.995 90.0201 67.005 86.7373C67.005 86.1009 67.065 85.4696 67.1 84.8484C92.11 84.8484 116.94 84.8332 141.77 84.8686C144.58 84.8686 147.015 82.6413 147.015 79.6666C146.995 58.5403 147.015 37.4141 146.99 16.2878C146.99 14.1666 146.065 12.5555 144.075 11.5908C143.15 11.1413 142.235 11.106 141.27 11.106C117.355 11.106 93.44 11.106 69.525 11.106H67.16C67.06 10.8737 67.005 10.803 67.005 10.7322C67.005 8.71204 67.005 6.69184 67.005 4.67164C67.005 2.77939 66.505 1.22046 65.505 -0.00512695L65.5 -7.64479e-05Z" fill="white"/>
<path d="M65.5 0C66.5 1.22222 67 2.78115 67 4.67677C67 6.69697 67 8.71717 67 10.7374C67 10.8081 67.055 10.8788 67.155 11.1111H69.52C93.435 11.1111 117.35 11.1111 141.265 11.1111C142.23 11.1111 143.145 11.1465 144.07 11.596C146.06 12.5606 146.98 14.1768 146.985 16.2929C147.01 37.4192 146.985 58.5455 147.01 79.6717C147.01 82.6465 144.575 84.8788 141.765 84.8737C116.935 84.8384 92.105 84.8535 67.095 84.8535C67.065 85.4748 67.005 86.1111 67 86.7424C66.99 90.0253 66.94 93.3081 67.025 96.5909C67.055 97.7778 66.825 98.697 65.855 99.4041C65.68 99.5303 65.61 99.798 65.495 100.005H15C14.23 99.3939 13.315 98.8687 13.11 97.8131C12.97 97.0909 13.005 96.3283 13.005 95.5808C13.005 65.2778 13.02 34.9798 12.96 4.67677C12.96 2.85354 13.375 1.35354 14.5 0L65.5 0ZM101.99 82.8283C115.4 82.8283 128.81 82.8283 142.22 82.8283C143.975 82.8283 144.74 82.3586 145.29 80.7273C145.515 80.0505 145.49 79.2727 145.49 78.5404C145.5 62.5556 145.5 46.5707 145.5 30.5808C145.5 26.0354 145.515 21.495 145.48 16.9495C145.48 16.3283 145.56 15.7323 145.22 15.0404C144.365 13.2879 143.085 12.6061 141.215 12.6111C115.395 12.6313 89.57 12.6263 63.75 12.6263C63.335 12.6263 62.845 12.4798 62.515 12.6515C61.44 13.2071 59.825 13.0909 59.535 14.6717C59.365 15.6111 58.945 16.4545 58.955 17.4848C59.035 24.6364 58.99 31.7879 59.01 38.9394C59.01 39.8939 58.725 40.899 59.465 41.7879C59.62 41.9748 59.465 42.6414 59.235 42.899C58.47 43.7828 57.745 44.8485 56.755 45.3636C54.735 46.4141 53.375 48.2879 51.405 49.3586C50.9 49.6313 50.775 50.1313 51.31 50.5606C51.995 51.1111 52.73 51.601 53.39 52.1768C54.93 53.5253 56.35 55.0354 58 56.2172C58.725 56.7374 58.76 57.495 59.215 57.9495C59.91 58.6364 59.085 59.0354 59.2 59.5808C59.385 60.4798 59.77 61.6162 59.41 62.2778C58.905 63.1919 59.02 64.0303 59.015 64.8939C58.98 68.9343 58.99 72.9697 59.005 77.0101C59.01 78.1364 59.07 79.2121 59.43 80.3586C60.14 82.6212 60.155 82.8333 62.51 82.8333C75.67 82.8333 88.83 82.8333 101.99 82.8333V82.8283ZM63.49 84.9748C63.19 84.9141 63.035 84.8384 62.885 84.8535C61.175 85.0505 60.005 84.1566 58.885 83C57.855 81.9343 57.46 80.7677 57.475 79.2778C57.53 72.803 57.5 66.3232 57.5 59.8485C57.5 59.3434 57.53 58.8384 57.495 58.3333C57.43 57.4495 55.84 56.0101 54.98 56.0808C54.81 56.096 54.615 56.3182 54.51 56.4899C53.12 58.7172 51.805 60.9343 49.5 62.4596C47.275 63.9242 44.985 64.9545 42.35 65.1414C41.105 65.2273 39.85 65.1111 38.605 65.1667C36.56 65.2626 34.695 64.5152 33.005 63.5909C30.22 62.0606 28.055 59.7929 26.48 56.9495C25.66 55.4697 25.275 53.9293 24.915 52.2879C24.55 50.6465 24.33 49.0152 24.57 47.4394C24.82 45.7727 25.445 44.1111 26.17 42.5758C26.955 40.899 28.14 39.4697 29.46 38.1313C30.725 36.8485 32.16 35.8434 33.68 34.9697C35.465 33.9394 37.6 34.0657 39.525 33.404C40.445 33.0859 41.575 33.6616 42.555 33.7475C44.77 33.9444 46.605 34.8838 48.46 35.8788C51.925 37.7374 54.005 40.7475 55.3 44.5505C55.765 44.0354 56.125 43.298 56.665 43.1111C57.49 42.8333 57.53 42.399 57.525 41.6919C57.495 38.3283 57.51 34.9646 57.51 31.596C57.51 26.4646 57.52 21.3333 57.505 16.202C57.5 14.5707 58.105 13.0707 59.31 12.2172C60.245 11.5505 61.45 10.9343 62.84 11.0859C64.09 11.2172 64.37 10.8283 63.81 9.72727C63.515 9.14141 63.545 8.63131 63.52 8.08081C63.485 7.26263 63.51 6.43939 63.51 5.64141C53.145 5.26768 18.725 5.41919 16.585 5.82323V88.7727H63.49V84.9748ZM32.815 45.4091C33.045 46.5909 33.15 47.8081 33.535 48.9343C33.855 49.8788 34.535 50.697 34.99 51.601C36.145 53.899 37.545 56.0556 38.655 58.3889C39.075 59.2727 39.75 60.101 40.175 61.0354C41.255 60.5758 41.215 59.3788 41.745 58.5556C43.81 55.3384 45.63 51.9697 47.21 48.4849C47.925 46.9091 48.235 45.3434 47.61 43.4394C46.995 41.5556 45.805 40.3283 44.48 39.2273C43.58 38.4798 42.245 38.197 41.055 37.904C39.69 37.5707 38.215 38.0303 37.135 38.6212C34.6 40.0101 32.675 42.0556 32.82 45.399L32.815 45.4091ZM41.03 97.4849C41.18 97.4849 41.82 97.5 42.45 96.8485C43.135 96.1465 43.165 95.2323 43.415 94.4748C43.76 93.4293 41.49 91.3788 40.26 91.4394C39.36 91.4849 38.7 92.0808 38.015 92.6364C37.365 93.1616 37.51 93.803 37.505 94.4445C37.5 96.5808 38.365 97.4647 41.035 97.4849H41.03Z" fill="#ACCD7E"/>
<path d="M14.5 0C13.375 1.35354 12.955 2.84849 12.96 4.67677C13.015 34.9798 13 65.2778 13.005 95.5808C13.005 96.3283 12.965 97.0909 13.11 97.8131C13.315 98.8687 14.235 99.3889 15 100.005H0V0H14.5Z" fill="white"/>
<path d="M101.99 82.8283C88.83 82.8283 75.67 82.8283 62.51 82.8283C60.16 82.8283 60.14 82.6161 59.43 80.3535C59.07 79.2071 59.01 78.1313 59.005 77.005C58.985 72.9646 58.98 68.9293 59.015 64.8889C59.025 64.0202 58.905 63.1869 59.41 62.2727C59.775 61.6111 59.39 60.4747 59.2 59.5757C59.085 59.0303 59.91 58.6313 59.215 57.9444C58.76 57.4899 58.725 56.7323 58 56.2121C56.35 55.0303 54.93 53.5202 53.39 52.1717C52.73 51.5959 51.995 51.106 51.31 50.5555C50.775 50.1262 50.9 49.6313 51.405 49.3535C53.375 48.2828 54.735 46.404 56.755 45.3586C57.745 44.8485 58.47 43.7778 59.235 42.8939C59.46 42.6364 59.62 41.9697 59.465 41.7828C58.725 40.8939 59.015 39.8889 59.01 38.9343C58.985 31.7828 59.035 24.6313 58.955 17.4798C58.945 16.4495 59.36 15.606 59.535 14.6667C59.825 13.0858 61.445 13.202 62.515 12.6465C62.845 12.4747 63.335 12.6212 63.75 12.6212C89.57 12.6212 115.395 12.6263 141.215 12.606C143.085 12.606 144.36 13.2828 145.22 15.0353C145.555 15.7222 145.475 16.3182 145.48 16.9444C145.515 21.4899 145.5 26.0303 145.5 30.5757C145.5 46.5606 145.5 62.5454 145.49 78.5353C145.49 79.2677 145.515 80.0454 145.29 80.7222C144.74 82.3535 143.975 82.8232 142.22 82.8232C128.81 82.8232 115.4 82.8232 101.99 82.8232V82.8283ZM83 27.0606C82.85 25.2778 82.85 25.2727 84.435 25.2525C85.265 25.2424 86.1 25.2879 86.93 25.2222C87.135 25.2071 87.31 24.8586 87.5 24.6667C87.345 24.5252 87.145 24.2323 87.035 24.2626C85.85 24.5909 84.875 23.7222 83.74 23.697C83.335 23.6869 82.77 23.3485 82.57 22.9949C82.115 22.1919 81.805 21.298 81.505 20.4192C81.085 19.1768 80.365 18.8889 79.63 19.9192C79.255 20.4444 79.24 20.7424 78.685 20.2576C78.415 20.6717 78.43 21.1616 77.63 21.2727C76.4 21.4495 76.26 21.9141 76.735 23.1869C77.21 24.4646 77.12 25.4697 76.07 26.4848C74.845 27.6667 73.55 28.7828 72.64 30.3182C72 31.399 70.91 32.1515 69.505 32.3485C68.695 32.4646 67.945 32.9848 67.165 33.3182C66.955 33.4091 66.73 33.4747 66.515 33.5555C66.74 33.7929 66.925 34.1566 67.19 34.2374C67.545 34.3485 67.98 34.298 68.355 34.202C69.1 34.0101 69.825 33.7273 70.565 33.5202C70.68 33.4899 70.98 33.6616 70.975 33.7071C70.785 34.9242 71.33 34.7879 72.075 34.3485C72.085 34.3434 72.35 34.6869 72.32 34.7273C72.12 34.9798 71.76 35.2929 72.395 35.3131C72.825 35.3232 73.265 35.0303 73.7 34.8788C75.41 34.2929 76.165 34.4242 77.97 35.5606C78.225 35.7222 78.55 35.7778 78.85 35.8384C78.995 35.8687 79.16 35.798 79.315 35.7727C79.255 35.5959 79.25 35.3485 79.125 35.2475C78.39 34.6616 78.24 34.1667 79.065 33.4697C80.365 32.3737 81.39 31.0303 82.08 29.4444C82.36 28.803 82.675 28.1818 82.95 27.5404C83.01 27.399 82.98 27.2172 82.985 27.0505L83 27.0606ZM66.26 48.4949C66.37 48.6717 66.48 48.8485 66.59 49.0252C67.37 48.9495 68.235 49.0606 68.92 48.7576C71.215 47.7374 73.19 48.8788 74.975 49.8687C76.18 50.5353 77.32 51.4192 78.605 52.0252C79.125 52.2727 79.585 52.6262 79.5 53.3283C79.435 53.8636 79.665 54.1313 80.195 54.0252C80.475 53.9697 80.97 53.7879 80.96 53.6919C80.925 53.2778 81.325 52.6818 80.52 52.4949C80.165 52.4141 79.885 52.0353 79.55 51.8182C79.225 51.6111 78.88 51.4444 78.54 51.2576C80.185 51.2576 81.28 50.1919 82.575 49.6919C83.995 49.1414 84.625 48.0505 85 46.6919C85.165 46.0858 85.255 45.4444 85.525 44.8939C85.72 44.505 86.145 44.2222 86.505 43.9394C86.755 43.7424 87.42 44.2727 87.345 43.5808C87.32 43.3333 86.755 43.106 86.405 42.9343C86.13 42.798 85.72 42.8586 85.525 42.6667C83.95 41.1515 82.41 41.8535 80.935 42.7727C80.45 43.0757 79.995 43.2727 79.465 43.4747C77.09 44.3838 74.585 44.9899 72.435 46.4495C72.12 46.6616 71.745 46.9293 71.395 46.9394C69.86 46.9646 68.735 48.4343 67.11 48.1313C66.855 48.0858 66.54 48.3636 66.255 48.4949H66.26ZM80.06 70.8131C80.695 70.5303 81.345 71.0808 81.5 70.2475C81.625 69.5757 81.32 69.106 80.815 68.7727C80.435 68.5202 79.97 68.399 79.565 68.1717C78.15 67.3939 77.71 66.2778 78.52 64.9545C79.84 62.7929 80.755 60.5 81.27 58.0303C81.315 57.8232 81.135 57.5252 80.98 57.3333C80.915 57.2525 80.58 57.2626 80.48 57.3535C79.925 57.8636 79.415 58.4141 78.88 58.9444C77.045 60.7626 75.505 62.7323 74.93 65.3788C74.82 65.899 74.495 66.8434 73.3 66.7374C72.56 66.6717 72.335 67.6768 72.955 68.3485C73.55 68.9899 73.555 69.4798 73.21 70.2879C72.715 71.4495 73.13 72.8384 72.515 74.0353C72.38 74.298 72.375 74.7677 72.515 75.0202C73.115 76.0808 72.96 77.2273 73.015 78.3535C73.02 78.5 73.31 78.7424 73.47 78.7475C73.64 78.7525 73.9 78.5656 73.975 78.3939C74.17 77.9747 74.31 77.5202 74.425 77.0707C74.87 75.3283 75.88 73.7828 76.02 71.9242C76.115 70.6869 77.53 69.8687 78.75 70.2172C79.26 70.3636 79.73 70.6565 80.055 70.8081L80.06 70.8131ZM114.245 22.2222C107.92 22.2222 101.59 22.2121 95.265 22.2424C94.82 22.2424 94.06 21.7727 93.985 22.8586C93.9 24.0505 94.69 23.7323 95.28 23.7323C107.935 23.7424 120.585 23.7374 133.24 23.7374C133.575 23.7374 133.925 23.803 134.23 23.7071C134.37 23.6667 134.495 23.303 134.485 23.0959C134.47 22.798 134.385 22.3182 134.215 22.2576C133.84 22.1313 133.395 22.2172 132.98 22.2172H114.25L114.245 22.2222ZM114.185 64.1414C120.335 64.1414 126.485 64.1414 132.64 64.1414C133.21 64.1414 133.795 64.1515 134.34 64.0202C134.585 63.9646 134.945 63.5353 134.91 63.3485C134.855 63.0757 134.515 62.7273 134.24 62.6616C133.765 62.5505 133.25 62.6313 132.75 62.6313H96.345C95.93 62.6313 95.49 62.5454 95.105 62.6566C94.745 62.7576 94.43 63.0404 94.125 63.2879C94.03 63.3687 93.965 63.6262 94.02 63.7222C94.12 63.8939 94.315 64.101 94.49 64.1262C94.895 64.1869 95.32 64.1465 95.735 64.1465H114.19L114.185 64.1414ZM114.215 43.4343C120.535 43.4343 126.855 43.4394 133.175 43.4192C133.615 43.4192 134.095 43.2879 134.49 43.0858C134.71 42.9747 133.84 42.0101 133.25 41.9343C132.68 41.8586 132.09 41.9192 131.505 41.9192H96.575C96.075 41.9192 95.56 41.8384 95.085 41.9444C94.73 42.0252 94.41 42.3333 94.11 42.5858C94.015 42.6667 93.96 42.9343 94.02 43.0252C94.13 43.197 94.33 43.399 94.51 43.4141C95.09 43.4646 95.675 43.4343 96.255 43.4343H114.22H114.215ZM110.735 28.2828C116.06 28.2828 121.39 28.2879 126.715 28.2727C127.29 28.2727 128.1 28.6262 128.025 27.4141C127.955 26.3232 127.2 26.7879 126.755 26.7828C116.27 26.7576 105.78 26.7626 95.295 26.7626C95.045 26.7626 94.755 26.6818 94.555 26.7828C94.33 26.8939 94.08 27.1465 94.025 27.3788C93.83 28.2071 94.315 28.2929 95.005 28.2929C100.25 28.2677 105.49 28.2778 110.735 28.2778V28.2828ZM111.02 48.4848C116.43 48.4848 121.84 48.4848 127.25 48.4949C127.735 48.4949 128.09 48.4293 128 47.8434C127.955 47.5454 127.9 47.1212 127.705 47.005C127.455 46.8586 127.06 46.9697 126.725 46.9697H99.51C97.93 46.9697 96.345 46.9646 94.765 46.9697C94.21 46.9697 93.715 47.6919 94.035 48.0909C94.23 48.3333 94.695 48.4596 95.04 48.4646C100.365 48.4848 105.695 48.4798 111.02 48.4798V48.4848ZM111.02 67.6768H95.815C95.315 67.6768 94.805 67.6161 94.325 67.7121C94.19 67.7374 93.99 68.2879 94.075 68.4747C94.465 69.303 95.265 69.1919 96.005 69.1919C106.14 69.1919 116.275 69.1919 126.415 69.1919C127.48 69.1919 128.585 68.7222 128.415 68.3737C128.01 67.5303 127.205 67.6768 126.47 67.6768C121.32 67.6768 116.17 67.6768 111.015 67.6768H111.02ZM107.755 53.0303C111.915 53.0303 116.075 53.0454 120.235 53.0101C120.68 53.0101 121.44 53.4798 121.52 52.399C121.605 51.2172 120.82 51.5252 120.225 51.5252C111.905 51.5151 103.585 51.5202 95.26 51.5202C95.01 51.5202 94.72 51.4394 94.525 51.5404C94.305 51.6566 94.07 51.9192 94.02 52.1616C93.895 52.7273 94.045 53.0606 94.775 53.0555C99.1 53.0202 103.43 53.0404 107.755 53.0404V53.0303ZM107.705 32.8283H119.925C120.34 32.8283 120.78 32.904 121.16 32.7929C121.315 32.7475 121.51 32.2121 121.42 32.0353C121.08 31.3737 120.46 31.2929 119.74 31.2929C111.51 31.3182 103.275 31.3081 95.045 31.3081C94.88 31.3081 94.71 31.3131 94.545 31.3081C93.895 31.2828 94.02 31.7576 93.985 32.1566C93.94 32.7222 94.22 32.8333 94.725 32.8333C99.05 32.8182 103.37 32.8232 107.695 32.8232L107.705 32.8283ZM107.745 72.2222C103.425 72.2222 99.105 72.2172 94.785 72.2374C94.525 72.2374 94.265 72.4646 94 72.5858C94.145 72.8636 94.22 73.2677 94.445 73.3838C94.85 73.5909 95.34 73.7222 95.795 73.7222C103.77 73.7424 111.745 73.7374 119.725 73.7273C120.12 73.7273 120.585 73.7424 120.89 73.5454C121.18 73.3586 121.31 72.904 121.505 72.5707C121.24 72.4545 120.975 72.2374 120.71 72.2323C116.39 72.2121 112.07 72.2172 107.75 72.2172L107.745 72.2222Z" fill="white"/>
<path d="M63.49 84.9748V88.7727H16.575V5.81314C18.715 5.4091 53.135 5.26264 63.5 5.63132C63.5 6.43435 63.475 7.25254 63.51 8.07072C63.535 8.62122 63.5 9.13637 63.8 9.71718C64.355 10.8131 64.08 11.2071 62.83 11.0758C61.44 10.9293 60.24 11.5455 59.3 12.2071C58.095 13.0606 57.49 14.5657 57.495 16.1919C57.51 21.3232 57.5 26.4546 57.5 31.5859C57.5 34.9495 57.485 38.3131 57.515 41.6818C57.52 42.3889 57.48 42.8232 56.655 43.101C56.115 43.2828 55.755 44.0202 55.29 44.5404C53.995 40.7374 51.915 37.7273 48.45 35.8687C46.595 34.8737 44.76 33.9344 42.545 33.7374C41.565 33.6515 40.435 33.0758 39.515 33.394C37.59 34.0606 35.455 33.9344 33.67 34.9596C32.15 35.8384 30.715 36.8434 29.45 38.1212C28.13 39.4596 26.945 40.894 26.16 42.5657C25.44 44.101 24.815 45.7626 24.56 47.4293C24.32 49.0051 24.545 50.6364 24.905 52.2778C25.27 53.9192 25.655 55.4596 26.47 56.9394C28.04 59.7828 30.205 62.0556 32.995 63.5808C34.685 64.5051 36.55 65.2525 38.595 65.1566C39.84 65.101 41.1 65.2172 42.34 65.1313C44.975 64.9495 47.27 63.9192 49.49 62.4495C51.8 60.9243 53.11 58.7121 54.5 56.4798C54.61 56.3081 54.805 56.0859 54.97 56.0707C55.83 56.0051 57.42 57.4445 57.485 58.3232C57.52 58.8232 57.49 59.3333 57.49 59.8384C57.49 66.3131 57.525 72.7929 57.465 79.2677C57.45 80.7525 57.845 81.9243 58.875 82.9899C59.995 84.1465 61.165 85.0455 62.875 84.8435C63.025 84.8283 63.18 84.899 63.48 84.9647L63.49 84.9748Z" fill="white"/>
<path d="M32.815 45.4041C32.67 42.0606 34.6 40.0152 37.13 38.6263C38.21 38.0354 39.685 37.5758 41.05 37.9091C42.24 38.197 43.575 38.4849 44.475 39.2323C45.8 40.3333 46.99 41.5556 47.605 43.4445C48.23 45.3535 47.92 46.9142 47.205 48.4899C45.625 51.9748 43.805 55.3434 41.74 58.5606C41.21 59.3838 41.25 60.5758 40.17 61.0404C39.745 60.1061 39.07 59.2727 38.65 58.394C37.54 56.0606 36.14 53.9041 34.985 51.6061C34.53 50.697 33.85 49.8839 33.53 48.9394C33.145 47.8131 33.04 46.5909 32.81 45.4142L32.815 45.4041ZM40.565 48.4849C42.12 48.4748 43.57 47.0707 43.5 45.6364C43.425 44.2172 41.445 42.3232 40.14 42.4243C38.655 42.5354 37.475 43.9344 37.5 45.5657C37.53 47.6364 38.435 48.495 40.565 48.4849Z" fill="white"/>
<path d="M41.03 97.4799C38.36 97.4597 37.495 96.5758 37.5 94.4395C37.5 93.7981 37.355 93.1566 38.01 92.6314C38.7 92.0758 39.36 91.4799 40.255 91.4344C41.49 91.3738 43.76 93.4243 43.41 94.4698C43.16 95.2324 43.13 96.1415 42.445 96.8435C41.815 97.495 41.175 97.4849 41.025 97.4799H41.03Z" fill="white"/>
<path d="M83 27.0607C82.99 27.2223 83.025 27.4092 82.965 27.5506C82.69 28.192 82.375 28.8132 82.095 29.4547C81.405 31.0355 80.38 32.3789 79.08 33.4799C78.255 34.1769 78.4 34.6769 79.14 35.2577C79.265 35.3536 79.27 35.6011 79.33 35.7829C79.175 35.8082 79.01 35.8789 78.865 35.8486C78.565 35.788 78.24 35.7274 77.985 35.5708C76.18 34.4345 75.43 34.3031 73.715 34.889C73.28 35.0405 72.84 35.3334 72.41 35.3233C71.77 35.3082 72.135 34.99 72.335 34.7375C72.365 34.6971 72.1 34.3536 72.09 34.3587C71.345 34.7981 70.8 34.9345 70.99 33.7173C70.995 33.6718 70.695 33.4951 70.58 33.5304C69.84 33.7375 69.115 34.0254 68.37 34.2122C68 34.3082 67.56 34.3536 67.205 34.2476C66.935 34.1668 66.75 33.8031 66.53 33.5658C66.75 33.49 66.97 33.4193 67.18 33.3284C67.96 32.9951 68.71 32.4749 69.52 32.3587C70.925 32.1617 72.015 31.4092 72.655 30.3284C73.565 28.793 74.855 27.6769 76.085 26.4951C77.135 25.4799 77.225 24.4749 76.75 23.1971C76.275 21.9244 76.415 21.4597 77.645 21.2829C78.445 21.1668 78.43 20.6819 78.7 20.2678C79.255 20.7526 79.27 20.4547 79.645 19.9294C80.38 18.8991 81.1 19.187 81.52 20.4294C81.82 21.3082 82.13 22.2021 82.585 23.0052C82.785 23.3587 83.35 23.6971 83.755 23.7072C84.885 23.7324 85.86 24.6011 87.05 24.2728C87.16 24.2425 87.36 24.5355 87.515 24.6769C87.325 24.8688 87.145 25.2173 86.945 25.2324C86.12 25.2981 85.285 25.2476 84.45 25.2627C82.865 25.2829 82.865 25.288 83.015 27.0708L83 27.0607Z" fill="#ACCD7E"/>
<path d="M66.26 48.5001C66.545 48.3688 66.86 48.091 67.115 48.1364C68.745 48.4395 69.865 46.9698 71.4 46.9445C71.75 46.9395 72.12 46.6718 72.44 46.4546C74.59 45.0001 77.095 44.389 79.47 43.4799C80 43.2779 80.455 43.0809 80.94 42.7779C82.41 41.8587 83.95 41.1566 85.53 42.6718C85.725 42.8637 86.14 42.8031 86.41 42.9395C86.76 43.1112 87.325 43.3385 87.35 43.5859C87.42 44.2829 86.76 43.7476 86.51 43.9445C86.15 44.2274 85.725 44.5102 85.53 44.8991C85.255 45.4496 85.17 46.091 85.005 46.6971C84.635 48.0556 84 49.1465 82.58 49.6971C81.28 50.1971 80.19 51.2627 78.545 51.2627C78.88 51.4496 79.23 51.6162 79.555 51.8233C79.89 52.0354 80.17 52.4142 80.525 52.5001C81.33 52.6869 80.93 53.288 80.965 53.6971C80.975 53.788 80.48 53.9748 80.2 54.0304C79.67 54.1364 79.44 53.8688 79.505 53.3334C79.595 52.6314 79.135 52.2779 78.61 52.0304C77.325 51.4243 76.19 50.5455 74.98 49.8738C73.2 48.8839 71.225 47.7476 68.925 48.7627C68.24 49.0657 67.375 48.9546 66.595 49.0304C66.485 48.8536 66.375 48.6768 66.265 48.5001H66.26ZM80.32 53.1061C80.215 53.1667 80.105 53.2274 80 53.288C80.055 53.3435 80.125 53.4546 80.165 53.4445C80.285 53.4193 80.39 53.3435 80.5 53.288C80.445 53.2324 80.39 53.1769 80.32 53.1061Z" fill="#ACCD7E"/>
<path d="M80.065 70.8182C79.74 70.6667 79.27 70.3738 78.76 70.2273C77.54 69.8788 76.125 70.697 76.03 71.9344C75.89 73.793 74.88 75.3384 74.435 77.0808C74.32 77.5303 74.18 77.9849 73.985 78.4041C73.905 78.5758 73.65 78.7627 73.48 78.7576C73.315 78.7526 73.03 78.5101 73.025 78.3637C72.97 77.2324 73.13 76.0909 72.525 75.0303C72.38 74.7778 72.385 74.3081 72.525 74.0455C73.145 72.8485 72.73 71.4596 73.22 70.298C73.565 69.4899 73.56 69 72.965 68.3586C72.345 67.6869 72.57 66.6819 73.31 66.7475C74.505 66.8536 74.83 65.9091 74.94 65.3889C75.51 62.7374 77.055 60.7728 78.89 58.9546C79.425 58.4243 79.94 57.8738 80.49 57.3637C80.59 57.2728 80.925 57.2576 80.99 57.3435C81.145 57.5354 81.32 57.8283 81.28 58.0404C80.765 60.5101 79.85 62.8031 78.53 64.9647C77.72 66.2879 78.165 67.4041 79.575 68.1819C79.98 68.4041 80.445 68.5303 80.825 68.7829C81.33 69.1162 81.635 69.5859 81.51 70.2576C81.355 71.096 80.705 70.5455 80.07 70.8233L80.065 70.8182Z" fill="#ACCD7E"/>
<path d="M114.245 22.2223H132.975C133.39 22.2223 133.84 22.1314 134.21 22.2627C134.38 22.3233 134.465 22.8031 134.48 23.1011C134.49 23.3081 134.365 23.6667 134.225 23.7122C133.92 23.8031 133.57 23.7425 133.235 23.7425C120.58 23.7425 107.93 23.7425 95.275 23.7374C94.685 23.7374 93.89 24.0556 93.98 22.8637C94.06 21.7778 94.815 22.2475 95.26 22.2475C101.585 22.2172 107.915 22.2273 114.24 22.2273L114.245 22.2223Z" fill="#ACCD7E"/>
<path d="M114.185 64.1415H95.73C95.315 64.1415 94.895 64.1819 94.485 64.1213C94.305 64.0961 94.115 63.889 94.015 63.7173C93.96 63.6213 94.025 63.3587 94.12 63.2829C94.42 63.0355 94.74 62.7526 95.1 62.6516C95.485 62.5456 95.925 62.6264 96.34 62.6264H132.745C133.245 62.6264 133.76 62.5456 134.235 62.6567C134.51 62.7223 134.845 63.0708 134.905 63.3436C134.945 63.5304 134.58 63.9597 134.335 64.0153C133.79 64.1466 133.205 64.1365 132.635 64.1365C126.485 64.1415 120.335 64.1365 114.18 64.1365L114.185 64.1415Z" fill="#ACCD7E"/>
<path d="M114.215 43.4343H96.25C95.67 43.4343 95.085 43.4646 94.505 43.414C94.33 43.3989 94.125 43.1969 94.015 43.0252C93.955 42.9343 94.015 42.6666 94.105 42.5858C94.405 42.3332 94.72 42.0252 95.08 41.9444C95.555 41.8332 96.07 41.9191 96.57 41.9191H131.5C132.08 41.9191 132.67 41.8585 133.245 41.9343C133.835 42.01 134.71 42.9747 134.485 43.0858C134.09 43.2878 133.615 43.4191 133.17 43.4191C126.85 43.4393 120.53 43.4343 114.21 43.4343H114.215Z" fill="#ACCD7E"/>
<path d="M110.73 28.2827C105.485 28.2827 100.245 28.2726 95 28.2979C94.31 28.2979 93.825 28.2171 94.02 27.3837C94.075 27.1514 94.325 26.8989 94.55 26.7878C94.75 26.6868 95.04 26.7676 95.29 26.7676C105.775 26.7676 116.265 26.7625 126.75 26.7878C127.195 26.7878 127.95 26.3231 128.02 27.4191C128.095 28.6262 127.285 28.2726 126.71 28.2777C121.385 28.2928 116.055 28.2878 110.73 28.2878V28.2827Z" fill="#ACCD7E"/>
<path d="M111.015 48.4848C105.69 48.4848 100.36 48.4898 95.035 48.4696C94.69 48.4696 94.225 48.3434 94.03 48.0959C93.71 47.6919 94.2 46.9747 94.76 46.9747C96.34 46.9646 97.925 46.9747 99.505 46.9747H126.72C127.055 46.9747 127.45 46.8636 127.7 47.01C127.895 47.1212 127.95 47.5504 127.995 47.8484C128.085 48.4343 127.73 48.4999 127.245 48.4999C121.835 48.4848 116.425 48.4898 111.015 48.4898V48.4848Z" fill="#ACCD7E"/>
<path d="M111.02 67.6768C116.17 67.6768 121.32 67.6768 126.475 67.6768C127.21 67.6768 128.015 67.5304 128.42 68.3738C128.585 68.7223 127.48 69.192 126.42 69.192C116.285 69.192 106.15 69.192 96.01 69.192C95.27 69.192 94.475 69.3031 94.08 68.4748C93.99 68.2879 94.19 67.7425 94.33 67.7122C94.81 67.6162 95.32 67.6768 95.82 67.6768H111.025H111.02Z" fill="#ACCD7E"/>
<path d="M107.755 53.0303C103.43 53.0303 99.1 53.0101 94.775 53.0455C94.045 53.0505 93.895 52.7222 94.02 52.1515C94.07 51.9141 94.305 51.6515 94.525 51.5303C94.72 51.4242 95.015 51.5101 95.26 51.5101C103.58 51.5101 111.9 51.5101 120.225 51.5152C120.82 51.5152 121.605 51.2071 121.52 52.3889C121.44 53.4748 120.685 53 120.235 53C116.075 53.0354 111.915 53.0202 107.755 53.0202V53.0303Z" fill="#ACCD7E"/>
<path d="M107.705 32.8284C103.38 32.8284 99.06 32.8233 94.735 32.8385C94.23 32.8385 93.955 32.7274 93.995 32.1617C94.025 31.7627 93.9 31.288 94.555 31.3132C94.72 31.3183 94.89 31.3132 95.055 31.3132C103.285 31.3132 111.52 31.3233 119.75 31.2981C120.47 31.2981 121.085 31.3789 121.43 32.0405C121.52 32.2122 121.325 32.7476 121.17 32.7981C120.785 32.9092 120.35 32.8334 119.935 32.8334H107.715L107.705 32.8284Z" fill="#ACCD7E"/>
<path d="M107.745 72.2222C112.065 72.2222 116.385 72.2172 120.705 72.2374C120.97 72.2374 121.235 72.4546 121.5 72.5758C121.3 72.9142 121.175 73.3637 120.885 73.5505C120.58 73.7475 120.115 73.7323 119.72 73.7323C111.745 73.7424 103.77 73.7424 95.79 73.7273C95.335 73.7273 94.845 73.596 94.44 73.3889C94.215 73.2727 94.14 72.8637 93.995 72.5909C94.255 72.4697 94.515 72.2424 94.78 72.2424C99.1 72.2222 103.42 72.2273 107.74 72.2273L107.745 72.2222Z" fill="#ACCD7E"/>
<path d="M40.565 48.4849C38.43 48.495 37.525 47.6364 37.5 45.5657C37.48 43.9344 38.655 42.5354 40.14 42.4243C41.445 42.3233 43.425 44.2223 43.5 45.6364C43.575 47.0657 42.125 48.4748 40.565 48.4849Z" fill="#ACCD7E"/>
<path d="M80.32 53.1011C80.385 53.1667 80.44 53.2223 80.5 53.2829C80.39 53.3384 80.28 53.4142 80.165 53.4395C80.125 53.4496 80.055 53.3384 80 53.2829C80.11 53.2223 80.215 53.1617 80.32 53.1011Z" fill="white"/>
<path d="M66 11.3635C66.64 12.0302 67.465 11.8635 68.25 11.8686C73.085 11.8686 77.915 11.8686 82.75 11.8686C102.335 11.8686 121.915 11.8787 141.5 11.8585C143.725 11.8585 145.205 12.8433 145.985 14.9039C146.16 15.3736 146.24 15.909 146.24 16.414C146.25 37.4595 146.255 58.4999 146.245 79.5453C146.245 82.1817 144.655 83.7524 142 83.8383C141.585 83.8534 141.165 83.8383 140.75 83.8383C116.75 83.8383 92.75 83.8383 68.75 83.8231C67.505 83.8231 66.325 83.9191 65.25 84.5958" stroke="#ACCD7E" stroke-width="2" stroke-linecap="round" stroke-linejoin="round"/>
<path d="M134.75 63.3838C122.085 63.3838 109.415 63.3838 96.75 63.3939C95.915 63.3939 95.085 63.5505 94.25 63.6363" stroke="#ACCD7E" stroke-width="2" stroke-linecap="round" stroke-linejoin="round"/>
<path d="M134.25 42.9293C133.335 42.8435 132.415 42.6869 131.5 42.6869C119.835 42.6717 108.165 42.6717 96.5 42.6869C95.75 42.6869 95 42.8435 94.25 42.9293" stroke="#ACCD7E" stroke-width="2" stroke-linecap="round" stroke-linejoin="round"/>
<path d="M133.75 22.9797H94.75" stroke="#ACCD7E" stroke-width="2" stroke-linecap="round" stroke-linejoin="round"/>
<path d="M65.5 11.1111C64.705 11.4949 63.975 11.904 63 11.904C59.975 11.9192 58.255 13.7929 58.255 16.9192C58.245 24.6616 58.135 32.4091 58.325 40.1515C58.38 42.3333 57.95 43.7474 56.02 44.7323C55.44 45.0303 54.985 45.5555 54.25 45.4545" stroke="#ACCD7E" stroke-width="2" stroke-linecap="round" stroke-linejoin="round"/>
<path d="M94.25 68.1819C95.085 68.2677 95.915 68.4243 96.75 68.4243C107.25 68.4395 117.75 68.4344 128.25 68.4344" stroke="#ACCD7E" stroke-width="2" stroke-linecap="round" stroke-linejoin="round"/>
<path d="M127.25 47.7273H94.75" stroke="#ACCD7E" stroke-width="2" stroke-linecap="round" stroke-linejoin="round"/>
<path d="M127.25 27.5251H94.75" stroke="#ACCD7E" stroke-width="2" stroke-linecap="round" stroke-linejoin="round"/>
<path d="M54.75 54.7981C55 54.884 55.305 54.8991 55.49 55.0607C56.425 55.8789 57.725 56.5708 58.15 57.6163C58.66 58.8688 58.495 60.4395 58.485 61.8688C58.465 64.2274 58.295 66.5809 58.265 68.9395C58.225 72.2223 58.245 75.5052 58.26 78.788C58.27 80.3082 58.57 81.7021 59.73 82.8537C60.475 83.591 61.31 83.8334 62.25 83.8233C63.135 83.8132 63.975 83.8739 64.75 84.3435" stroke="#ACCD7E" stroke-width="2" stroke-linecap="round" stroke-linejoin="round"/>
<path d="M94.25 72.7273C94.75 72.8132 95.25 72.9697 95.75 72.9697C103.75 72.9849 111.75 72.9849 119.75 72.9697C120.25 72.9697 120.75 72.8132 121.25 72.7273" stroke="#ACCD7E" stroke-width="2" stroke-linecap="round" stroke-linejoin="round"/>
<path d="M121.25 32.3232C120.415 32.2373 119.585 32.0858 118.75 32.0807C110.75 32.0605 102.75 32.0706 94.75 32.0706" stroke="#ACCD7E" stroke-width="2" stroke-linecap="round" stroke-linejoin="round"/>
<path d="M120.75 52.2727H94.75" stroke="#ACCD7E" stroke-width="2" stroke-linecap="round" stroke-linejoin="round"/>
<path d="M41.5 90.2778C40.585 90.3182 39.665 90.3637 38.75 90.4041" stroke="#ACCD7E" stroke-width="2" stroke-linecap="round" stroke-linejoin="round"/>
<path d="M87.25 43.6869C86.335 43.0051 85.415 43.9445 84.5 43.6869" stroke="#ACCD7E" stroke-width="2" stroke-linecap="round" stroke-linejoin="round"/>
<path d="M73.25 47.7273C72.585 47.3789 71.92 47.8031 71.25 47.7425C70.625 47.6869 70.08 47.8637 69.47 48.1768C68.675 48.5859 67.665 48.5708 66.75 48.7425" stroke="#ACCD7E" stroke-width="2" stroke-linecap="round" stroke-linejoin="round"/>
<path d="M74.375 72.7273C73.62 74.5909 73.835 76.6061 73.5 78.5354" stroke="#ACCD7E" stroke-width="2" stroke-linecap="round" stroke-linejoin="round"/>
<path d="M87.25 24.7474C84.915 24.6615 82.585 24.5807 80.25 24.4949" stroke="#ACCD7E" stroke-width="2" stroke-linecap="round" stroke-linejoin="round"/>
<path d="M72 32.8282C70.91 32.4393 69.995 33.1818 68.995 33.2979C68.245 33.3838 67.57 34.1515 66.75 33.5858" stroke="#ACCD7E" stroke-width="2" stroke-linecap="round" stroke-linejoin="round"/>
<path d="M77.75 48.2324C77.75 48.7375 77.75 49.2425 77.75 49.7476C77.74 50.692 77.745 51.5506 78.995 51.8082C79.54 51.9193 79.695 52.889 80.505 52.8132C80.565 52.8082 80.71 53.2829 80.725 53.5405C80.725 53.6163 80.425 53.7627 80.25 53.7829C79.67 53.8385 79.75 53.3991 79.75 53.0355" stroke="#ACCD7E" stroke-width="2" stroke-linecap="round" stroke-linejoin="round"/>
<path d="M73.75 32.8284C73.585 33.2476 73.265 33.6769 73.28 34.091C73.315 34.9142 72.725 34.9092 72.25 35.1011" stroke="#ACCD7E" stroke-width="2" stroke-linecap="round" stroke-linejoin="round"/>
</g>
<defs>
<clipPath id="clip0_397_2941">
<rect width="160" height="100" fill="white"/>
</clipPath>
</defs>
</svg>
