<svg width="320" height="363" viewBox="0 0 320 363" fill="none" xmlns="http://www.w3.org/2000/svg">
<path d="M249.284 16.9252C265.713 37.6296 282.067 76.9229 276.308 103.115C265.605 151.783 218.627 171.435 172.409 170.297C159.764 169.985 144.073 164.433 132.48 170.716C126.277 174.077 125.583 178.984 117.059 180.853C115.433 181.207 113.6 179.844 111.605 180.219C107.788 180.95 100.522 193.557 99.3615 181.315C98.8301 175.709 102.073 170.522 102.387 165.432C102.441 164.573 103.461 163.188 101.498 163.735C98.5915 164.551 78.7247 180.219 73.4436 183.355C66.6659 187.371 59.5086 192.999 51.2452 192.236C34.3606 190.668 43.806 183.473 50.8331 178.125C65.8417 166.688 108.568 144.62 116.094 130.789C131.58 102.385 136.753 92.3008 163.408 71.4031C169.112 66.9358 191.874 53.6197 194.206 50.4195C197.513 45.8878 197.882 34.118 195.019 29.4144C191.538 23.7014 177.712 22.0047 172.864 16.6353C178.373 14.6808 187.005 17.0756 191.896 15.454C194.022 14.7452 199.173 7.14218 202.643 4.85481C218.118 -5.33631 237.854 2.54597 249.284 16.9467V16.9252Z" fill="black"/>
<path d="M13.3852 323.491C12.8208 324.96 11.8331 326.018 10.4112 326.662C9.74905 327.032 9.04352 327.212 8.28373 327.212C6.59046 327.212 5.16855 326.662 4.03971 325.563C2.9977 324.548 2.48755 323.311 2.48755 321.841C2.48755 321.112 2.62865 320.414 2.91087 319.769L38.426 226.309C38.8059 225.58 39.2292 224.935 39.696 224.375C40.8248 223.36 42.1925 222.863 43.7989 222.863C45.4053 222.863 46.7729 223.37 47.9018 224.375C48.4662 225.02 48.8895 225.707 49.1717 226.447L84.8389 319.769C85.1211 320.414 85.2622 321.101 85.2622 321.841C85.2622 322.582 85.1211 323.269 84.8389 323.914C84.079 325.383 82.9502 326.345 81.4415 326.81C80.7794 327.085 80.0955 327.223 79.39 327.223C78.6845 327.223 78.0007 327.032 77.3386 326.673C75.8298 326.028 74.7878 325.024 74.2234 323.639L43.7989 244.24L27.2461 287.386H50.8759C52.4823 287.386 53.7957 287.936 54.8377 289.035C55.8797 290.135 56.4007 291.446 56.4007 292.968C56.4007 294.491 55.858 295.77 54.7725 296.827C53.6871 297.884 52.3846 298.413 50.8759 298.413H22.861L13.3744 323.501L13.3852 323.491Z" fill="black"/>
<path d="M122.786 326.112C121.744 327.127 120.398 327.624 118.759 327.624C117.12 327.624 115.763 327.117 114.721 326.112C114.156 325.563 113.733 324.875 113.451 324.04L78.6413 230.443C78.3591 229.798 78.218 229.111 78.218 228.371C78.218 226.996 78.739 225.749 79.7702 224.649C80.3346 224.1 80.9967 223.687 81.7565 223.412C82.5163 223.137 83.2652 223 84.025 223C84.7848 223 85.4904 223.19 86.1525 223.55C87.6612 224.195 88.649 225.252 89.1266 226.721L118.704 305.983C138.513 253.142 148.423 226.679 148.423 226.584C148.988 225.21 149.932 224.195 151.256 223.55C152.016 223.18 152.765 223 153.525 223C155.218 223 156.64 223.603 157.769 224.797C158.898 225.812 159.462 227.049 159.462 228.519C159.462 229.164 159.321 229.809 159.039 230.454L124.088 324.051C123.806 324.875 123.383 325.563 122.818 326.123L122.786 326.112Z" fill="black"/>
<path d="M177.545 325.838C176.037 325.838 174.712 325.288 173.584 324.188C172.455 323.089 171.879 321.799 171.879 320.329V230.728C171.879 229.259 172.444 227.969 173.584 226.87C174.712 225.77 176.037 225.22 177.545 225.22H227.214C228.908 225.22 230.275 225.77 231.317 226.87C232.359 227.969 232.87 229.259 232.87 230.728C232.87 232.293 232.327 233.604 231.241 234.661C230.156 235.719 228.81 236.247 227.204 236.247H183.19V269.191H219.421C221.028 269.191 222.373 269.719 223.459 270.777C224.544 271.834 225.087 273.124 225.087 274.636C225.087 276.147 224.523 277.458 223.394 278.568C222.265 279.679 220.941 280.218 219.432 280.218H183.2V314.811H227.214C228.821 314.811 230.167 315.339 231.252 316.396C232.338 317.454 232.88 318.722 232.88 320.192C232.88 321.841 232.338 323.205 231.252 324.262C230.167 325.32 228.821 325.848 227.214 325.848H177.545V325.838Z" fill="black"/>
<path d="M281.844 327.628C274.767 327.628 268.211 326.475 262.176 324.181C255.664 321.697 250.334 318.303 246.188 313.979C244.777 312.784 244.06 311.494 244.06 310.12C244.06 308.65 244.82 307.318 246.329 306.124C247.555 305.024 248.825 304.474 250.15 304.474C251.561 304.474 252.885 305.119 254.111 306.409C257.227 309.538 261.232 312.012 266.138 313.852C271.044 315.692 276.276 316.611 281.844 316.611C290.81 316.611 297.366 314.592 301.512 310.543C304.15 307.974 305.474 304.527 305.474 300.203C305.474 295.054 303.401 290.921 299.243 287.802C294.804 284.408 287.781 282.008 278.154 280.634C267.864 278.984 260.255 275.739 255.294 270.918C250.334 266.097 247.87 259.542 247.87 251.274C247.87 242.362 250.768 235.447 256.575 230.531C262.371 225.615 270.328 223.162 280.422 223.162C285.61 223.162 290.94 224.124 296.41 226.059C301.881 227.994 306.972 230.605 311.693 233.914C311.878 234.009 312.073 234.189 312.258 234.464C313.484 235.564 314.092 236.811 314.092 238.185C314.092 239.655 313.386 241.082 311.965 242.457C310.836 243.472 309.653 243.969 308.426 243.969C307.2 243.969 306.016 243.556 304.888 242.732C301.208 239.972 297.17 237.858 292.785 236.388C288.4 234.919 284.265 234.179 280.4 234.179C272.944 234.179 267.332 235.976 263.555 239.549C260.624 242.488 259.169 246.442 259.169 251.401C259.169 256.359 260.798 260.61 264.054 263.601C267.31 266.593 272.564 268.634 279.836 269.733C293.512 271.753 303.325 275.612 309.273 281.31C314.277 286.184 316.773 292.57 316.773 300.467C316.773 308.925 313.658 315.565 307.438 320.386C301.208 325.207 292.677 327.617 281.822 327.617L281.844 327.628Z" fill="black"/>
<path d="M1.17451 362.133C0.946371 362.133 0.739963 362.042 0.566146 361.861C0.392329 361.679 0.30542 361.463 0.30542 361.225V346.41C0.30542 346.171 0.392329 345.956 0.566146 345.774C0.739963 345.592 0.946371 345.501 1.17451 345.501H8.83333C9.09405 345.501 9.31132 345.592 9.46341 345.774C9.62637 345.956 9.70241 346.171 9.70241 346.41C9.70241 346.671 9.6155 346.886 9.45255 347.057C9.2896 347.227 9.07232 347.318 8.83333 347.318H2.05446V352.767H7.63833C7.88819 352.767 8.0946 352.858 8.25756 353.028C8.42051 353.199 8.50742 353.414 8.50742 353.664C8.50742 353.914 8.42051 354.129 8.24669 354.311C8.07288 354.493 7.86647 354.584 7.63833 354.584H2.05446V360.305H8.84419C9.09405 360.305 9.30046 360.396 9.46341 360.566C9.62637 360.737 9.71327 360.952 9.71327 361.191C9.71327 361.463 9.62637 361.69 9.46341 361.861C9.30046 362.031 9.08319 362.122 8.84419 362.122H1.17451V362.133Z" fill="black" stroke="black" stroke-width="0.272817" stroke-miterlimit="10"/>
<path d="M13.2006 362.45C13.0268 362.45 12.8639 362.394 12.7009 362.269C12.451 362.121 12.3315 361.871 12.3315 361.542C12.3315 361.349 12.3859 361.179 12.4836 361.043L17.3722 353.516L12.8313 346.568C12.7444 346.421 12.7009 346.25 12.7009 346.069C12.7009 345.739 12.8204 345.478 13.0703 345.319C13.2115 345.194 13.3744 345.138 13.5483 345.138C13.8633 345.138 14.1132 345.285 14.287 345.569L18.4043 351.904C21.1528 347.658 22.5324 345.535 22.5542 345.524C22.7388 345.263 22.9887 345.138 23.2712 345.138C23.4884 345.138 23.6731 345.217 23.8143 345.387C24.0207 345.58 24.1185 345.819 24.1185 346.091C24.1185 346.273 24.0642 346.432 23.9664 346.568L19.4689 353.516L24.3358 361.043C24.4336 361.19 24.4879 361.361 24.4879 361.52C24.4879 361.781 24.4118 361.996 24.2489 362.155C24.2054 362.201 24.162 362.235 24.1185 362.269C23.9773 362.394 23.8143 362.45 23.6405 362.45C23.3363 362.45 23.0973 362.314 22.9235 362.042L18.4043 355.139L13.9068 362.042C13.7329 362.314 13.4939 362.45 13.1898 362.45H13.2006Z" fill="black" stroke="black" stroke-width="0.272817" stroke-miterlimit="10"/>
<path d="M29.0071 362.19C28.8442 362.36 28.6377 362.451 28.4096 362.451C28.1489 362.451 27.9316 362.36 27.7687 362.19C27.6057 362.019 27.5188 361.804 27.5188 361.565V346.41C27.5188 346.171 27.6057 345.956 27.7795 345.774C27.9533 345.592 28.1598 345.501 28.3879 345.501H33.6024C34.4715 345.501 35.2645 345.729 35.9815 346.183C36.6985 346.625 37.2634 347.216 37.6871 347.965C38.1108 348.714 38.3172 349.532 38.3172 350.428C38.3172 351.325 38.1108 352.154 37.6871 352.915C37.2634 353.664 36.6985 354.254 35.9815 354.708C35.2645 355.163 34.4715 355.378 33.6024 355.378H29.257V361.577C29.257 361.815 29.1701 362.031 29.0071 362.201V362.19ZM29.257 347.318V353.539H33.6024C34.4172 353.539 35.1124 353.233 35.6991 352.631C35.8729 352.449 36.0358 352.234 36.1771 351.995C36.4378 351.53 36.5682 350.996 36.5682 350.417C36.5682 349.566 36.2748 348.839 35.6991 348.226C35.1233 347.613 34.4172 347.318 33.6024 347.318H29.257Z" fill="black" stroke="black" stroke-width="0.272817" stroke-miterlimit="10"/>
<path d="M42.0869 362.134C41.8587 362.134 41.6523 362.043 41.4785 361.862C41.3047 361.68 41.2178 361.464 41.2178 361.226V346.093C41.2178 345.832 41.3047 345.616 41.4785 345.435C41.6523 345.253 41.8587 345.162 42.0869 345.162C42.3476 345.162 42.5649 345.253 42.7169 345.435C42.8799 345.616 42.9559 345.832 42.9559 346.093V360.318H49.7457C49.9955 360.318 50.202 360.409 50.3649 360.579C50.5279 360.749 50.6148 360.965 50.6148 361.203C50.6148 361.476 50.5279 361.703 50.3649 361.873C50.202 362.043 49.9847 362.134 49.7457 362.134H42.0869Z" fill="black" stroke="black" stroke-width="0.272817" stroke-miterlimit="10"/>
<path d="M62.065 361.681C61.2068 362.181 60.2073 362.431 59.0558 362.431C57.9043 362.431 56.9048 362.181 56.0466 361.681C55.1884 361.182 54.5148 360.478 54.0368 359.57C53.5588 358.661 53.3198 357.617 53.3198 356.436V351.146C53.3198 349.943 53.5588 348.898 54.0368 348.001C54.5148 347.104 55.1884 346.401 56.0466 345.901C56.9048 345.402 57.9043 345.152 59.0558 345.152C60.2073 345.152 61.2068 345.402 62.065 345.901C62.9232 346.401 63.5968 347.104 64.0748 348.001C64.5528 348.898 64.7918 349.943 64.7918 351.146V356.436C64.7918 357.617 64.5528 358.661 64.0748 359.558C63.5968 360.467 62.9232 361.182 62.065 361.681ZM59.0558 360.603C60.2725 360.603 61.2394 360.228 61.9564 359.49C62.1845 359.252 62.38 358.968 62.543 358.65C62.8798 358.014 63.0427 357.276 63.0427 356.436V351.146C63.0427 349.875 62.6842 348.853 61.9672 348.104C61.2502 347.354 60.2725 346.98 59.0558 346.98C57.8391 346.98 56.8614 347.354 56.1444 348.104C55.4274 348.853 55.0689 349.875 55.0689 351.146V356.436C55.0689 357.276 55.2318 358.014 55.5686 358.65C55.8836 359.274 56.3508 359.751 56.9374 360.103C57.5349 360.444 58.241 360.614 59.0558 360.614V360.603Z" fill="black" stroke="black" stroke-width="0.272817" stroke-miterlimit="10"/>
<path d="M69.7998 362.19C69.6369 362.36 69.4305 362.451 69.2023 362.451C68.9416 362.451 68.7243 362.36 68.5614 362.19C68.3984 362.019 68.3115 361.804 68.3115 361.565V346.41C68.3115 346.171 68.3984 345.956 68.5723 345.774C68.7461 345.592 68.9525 345.501 69.1806 345.501H74.5472C75.4163 345.501 76.2093 345.729 76.9263 346.183C77.6433 346.625 78.2082 347.216 78.6428 347.965C79.0665 348.714 79.2837 349.532 79.2837 350.428C79.2837 351.2 79.1208 351.927 78.8057 352.597C78.4907 353.267 78.0453 353.823 77.4912 354.288C77.0567 354.663 76.5678 354.947 76.0355 355.106L79.2186 361.145C79.2946 361.293 79.3272 361.429 79.3272 361.531C79.3272 361.906 79.186 362.19 78.9144 362.371C78.784 362.451 78.6645 362.485 78.545 362.485C78.1539 362.485 77.8715 362.326 77.7194 362.008L74.2104 355.378H71.223C70.9948 355.378 70.7884 355.287 70.6146 355.106C70.4408 354.924 70.3539 354.708 70.3539 354.47C70.3539 354.198 70.4408 353.982 70.6146 353.812C70.7884 353.641 70.9948 353.562 71.223 353.562H74.5581C75.1121 353.562 75.6118 353.426 76.0681 353.153C76.5244 352.869 76.8829 352.483 77.1436 352.018C77.4152 351.552 77.5456 351.019 77.5456 350.44C77.5456 349.588 77.2522 348.862 76.6765 348.249C76.5027 348.067 76.2962 347.897 76.0681 347.749C75.6118 347.477 75.1121 347.341 74.5581 347.341H70.0606V361.588C70.0606 361.827 69.9737 362.042 69.8107 362.213L69.7998 362.19Z" fill="black" stroke="black" stroke-width="0.272817" stroke-miterlimit="10"/>
<path d="M83.4445 361.746C83.3576 361.984 83.2055 362.166 82.9882 362.268C82.8904 362.325 82.7818 362.359 82.6623 362.359C82.4016 362.359 82.1843 362.268 82.0105 362.087C81.8475 361.916 81.7715 361.712 81.7715 361.474C81.7715 361.349 81.7932 361.235 81.8367 361.133L87.3119 345.671C87.3662 345.546 87.4314 345.444 87.5074 345.353C87.6813 345.182 87.8877 345.103 88.1375 345.103C88.3874 345.103 88.5938 345.182 88.7676 345.353C88.8545 345.455 88.9197 345.568 88.9632 345.693L94.4601 361.133C94.5036 361.235 94.5253 361.349 94.5253 361.474C94.5253 361.598 94.5036 361.712 94.4601 361.814C94.3406 362.052 94.1668 362.211 93.9387 362.291C93.8409 362.336 93.7323 362.359 93.6236 362.359C93.515 362.359 93.4064 362.325 93.3086 362.268C93.0805 362.166 92.9175 361.996 92.8306 361.769L88.1375 348.634L85.5846 355.774H89.2239C89.4738 355.774 89.6802 355.865 89.8323 356.047C89.9952 356.229 90.0713 356.444 90.0713 356.694C90.0713 356.944 89.9843 357.159 89.8214 357.33C89.6584 357.5 89.452 357.591 89.2239 357.591H84.9002L83.4336 361.746H83.4445Z" fill="black" stroke="black" stroke-width="0.272817" stroke-miterlimit="10"/>
<path d="M101.174 362.19C101.011 362.36 100.804 362.451 100.576 362.451C100.315 362.451 100.098 362.36 99.9351 362.19C99.7721 362.019 99.6852 361.804 99.6852 361.565V347.318H95.2746C95.0247 347.318 94.8183 347.227 94.6662 347.045C94.5033 346.864 94.4272 346.648 94.4272 346.41C94.4272 346.149 94.5142 345.933 94.6771 345.763C94.8401 345.592 95.0465 345.501 95.2746 345.501H105.834C106.062 345.501 106.269 345.592 106.442 345.774C106.616 345.956 106.703 346.171 106.703 346.41C106.703 346.648 106.616 346.864 106.442 347.045C106.269 347.227 106.062 347.318 105.834 347.318H101.423V361.565C101.423 361.804 101.336 362.019 101.174 362.19Z" fill="black" stroke="black" stroke-width="0.272817" stroke-miterlimit="10"/>
<path d="M111.494 362.169C111.331 362.34 111.125 362.431 110.897 362.431C110.636 362.431 110.419 362.34 110.256 362.169C110.093 361.999 110.006 361.783 110.006 361.545V346.083C110.006 345.822 110.093 345.606 110.267 345.424C110.44 345.243 110.647 345.152 110.875 345.152C111.136 345.152 111.342 345.243 111.505 345.424C111.668 345.606 111.744 345.822 111.744 346.083V361.545C111.744 361.783 111.657 361.999 111.494 362.169Z" fill="black" stroke="black" stroke-width="0.272817" stroke-miterlimit="10"/>
<path d="M124.443 361.681C123.585 362.181 122.586 362.431 121.434 362.431C120.283 362.431 119.283 362.181 118.425 361.681C117.567 361.182 116.893 360.478 116.415 359.57C115.937 358.661 115.698 357.617 115.698 356.436V351.146C115.698 349.943 115.937 348.898 116.415 348.001C116.893 347.104 117.567 346.401 118.425 345.901C119.283 345.402 120.283 345.152 121.434 345.152C122.586 345.152 123.585 345.402 124.443 345.901C125.302 346.401 125.975 347.104 126.453 348.001C126.931 348.898 127.17 349.943 127.17 351.146V356.436C127.17 357.617 126.931 358.661 126.453 359.558C125.975 360.467 125.302 361.182 124.443 361.681ZM121.434 360.603C122.651 360.603 123.618 360.228 124.335 359.49C124.563 359.252 124.758 358.968 124.921 358.65C125.258 358.014 125.421 357.276 125.421 356.436V351.146C125.421 349.875 125.063 348.853 124.346 348.104C123.629 347.354 122.651 346.98 121.434 346.98C120.217 346.98 119.24 347.354 118.523 348.104C117.806 348.853 117.447 349.875 117.447 351.146V356.436C117.447 357.276 117.61 358.014 117.947 358.65C118.262 359.274 118.729 359.751 119.316 360.103C119.913 360.444 120.619 360.614 121.434 360.614V360.603Z" fill="black" stroke="black" stroke-width="0.272817" stroke-miterlimit="10"/>
<path d="M132.178 362.169C132.016 362.34 131.809 362.431 131.581 362.431C131.32 362.431 131.103 362.34 130.94 362.169C130.777 361.999 130.69 361.783 130.69 361.545V346.06C130.69 345.799 130.766 345.583 130.929 345.424C131.027 345.322 131.146 345.243 131.277 345.209C131.407 345.175 131.516 345.152 131.603 345.152C131.874 345.152 132.113 345.299 132.298 345.583L140.065 358.423V346.071C140.065 345.81 140.152 345.595 140.337 345.424C140.522 345.254 140.728 345.163 140.956 345.163C141.206 345.163 141.402 345.254 141.565 345.436C141.728 345.617 141.804 345.833 141.804 346.071V361.556C141.804 361.817 141.728 362.033 141.565 362.192C141.478 362.283 141.369 362.351 141.239 362.385C141.108 362.419 141 362.442 140.913 362.442C140.641 362.442 140.402 362.317 140.218 362.056C140.218 362.045 139.392 360.671 137.752 357.958C135.774 354.677 134.004 351.748 132.428 349.182V361.568C132.428 361.806 132.341 362.022 132.178 362.192V362.169Z" fill="black" stroke="black" stroke-width="0.272817" stroke-miterlimit="10"/>
<path d="M161.228 348.771C161.228 350.303 160.206 351.688 158.175 352.914C158.599 353.436 159.261 354.22 160.174 355.287C161.086 356.354 161.738 357.126 162.151 357.614C162.357 357.296 162.553 356.933 162.759 356.524C162.966 356.116 163.14 355.65 163.281 355.128C163.335 354.867 163.476 354.685 163.694 354.583C163.835 354.504 163.965 354.47 164.063 354.47C164.182 354.47 164.269 354.47 164.345 354.492C164.53 354.549 164.682 354.663 164.802 354.833C164.921 355.003 164.976 355.185 164.976 355.378C164.976 355.48 164.965 355.571 164.932 355.65C164.639 356.774 164.106 357.898 163.335 359.022L164.932 360.918C165.052 361.088 165.106 361.292 165.106 361.531C165.106 361.792 165.008 362.008 164.823 362.167C164.682 362.314 164.498 362.394 164.28 362.394C164.02 362.394 163.791 362.303 163.607 362.121C163.596 362.087 163.444 361.906 163.161 361.576C162.879 361.247 162.542 360.85 162.173 360.418C161.586 360.986 160.934 361.44 160.206 361.815C159.381 362.257 158.468 362.473 157.48 362.473C156.491 362.473 155.611 362.269 154.84 361.86C154.036 361.429 153.417 360.85 152.982 360.112C152.548 359.374 152.33 358.522 152.33 357.546C152.33 355.514 153.373 353.8 155.448 352.415C155.101 351.961 154.775 351.461 154.492 350.928C154.112 350.269 153.927 349.588 153.927 348.873C153.927 347.794 154.264 346.909 154.927 346.205C155.144 345.978 155.394 345.773 155.687 345.615C156.241 345.297 156.86 345.138 157.567 345.138C158.675 345.138 159.576 345.49 160.272 346.205C160.913 346.886 161.228 347.737 161.228 348.759V348.771ZM156.621 353.788C154.916 354.856 154.068 356.104 154.068 357.546C154.068 358.5 154.373 359.26 154.981 359.817C155.589 360.373 156.437 360.645 157.512 360.645C158.153 360.645 158.772 360.498 159.37 360.191C159.967 359.885 160.511 359.499 161.01 359.033C160.543 358.488 160.043 357.898 159.5 357.251C158.414 355.957 157.447 354.799 156.621 353.788ZM157.013 351.507C158.653 350.598 159.479 349.679 159.479 348.771C159.479 348.226 159.305 347.783 158.968 347.442C158.62 347.113 158.164 346.943 157.577 346.943C156.991 346.943 156.513 347.124 156.165 347.476C155.818 347.828 155.655 348.294 155.655 348.85C155.655 349.281 155.796 349.713 156.089 350.178C156.361 350.655 156.676 351.086 157.002 351.507H157.013Z" fill="black" stroke="black" stroke-width="0.272817" stroke-miterlimit="10"/>
<path d="M176.893 362.169C176.73 362.34 176.523 362.431 176.295 362.431C176.035 362.431 175.817 362.34 175.654 362.169C175.491 361.999 175.405 361.783 175.405 361.545V346.083C175.405 345.822 175.491 345.606 175.665 345.424C175.839 345.243 176.045 345.152 176.274 345.152C176.534 345.152 176.741 345.243 176.904 345.424C177.067 345.606 177.143 345.822 177.143 346.083V361.545C177.143 361.783 177.056 361.999 176.893 362.169Z" fill="black" stroke="black" stroke-width="0.272817" stroke-miterlimit="10"/>
<path d="M182.792 362.169C182.629 362.34 182.423 362.431 182.195 362.431C181.934 362.431 181.717 362.34 181.554 362.169C181.391 361.999 181.304 361.783 181.304 361.545V346.06C181.304 345.799 181.38 345.583 181.543 345.424C181.64 345.322 181.76 345.243 181.89 345.209C182.021 345.175 182.129 345.152 182.216 345.152C182.488 345.152 182.727 345.299 182.912 345.583L190.679 358.423V346.071C190.679 345.81 190.766 345.595 190.951 345.424C191.135 345.254 191.342 345.163 191.57 345.163C191.82 345.163 192.015 345.254 192.178 345.436C192.341 345.617 192.417 345.833 192.417 346.071V361.556C192.417 361.817 192.341 362.033 192.178 362.192C192.091 362.283 191.983 362.351 191.852 362.385C191.722 362.419 191.613 362.442 191.526 362.442C191.255 362.442 191.016 362.317 190.831 362.056C190.831 362.045 190.005 360.671 188.365 357.958C186.388 354.677 184.617 351.748 183.042 349.182V361.568C183.042 361.806 182.955 362.022 182.792 362.192V362.169Z" fill="black" stroke="black" stroke-width="0.272817" stroke-miterlimit="10"/>
<path d="M202.096 362.19C201.933 362.36 201.727 362.451 201.499 362.451C201.238 362.451 201.021 362.36 200.858 362.19C200.695 362.019 200.608 361.804 200.608 361.565V347.318H196.197C195.947 347.318 195.741 347.227 195.589 347.045C195.426 346.864 195.35 346.648 195.35 346.41C195.35 346.149 195.437 345.933 195.6 345.763C195.763 345.592 195.969 345.501 196.197 345.501H206.757C206.985 345.501 207.191 345.592 207.365 345.774C207.539 345.956 207.626 346.171 207.626 346.41C207.626 346.648 207.539 346.864 207.365 347.045C207.191 347.227 206.985 347.318 206.757 347.318H202.346V361.565C202.346 361.804 202.259 362.019 202.096 362.19Z" fill="black" stroke="black" stroke-width="0.272817" stroke-miterlimit="10"/>
<path d="M211.374 362.133C211.146 362.133 210.939 362.042 210.765 361.861C210.592 361.679 210.505 361.463 210.505 361.225V346.41C210.505 346.171 210.592 345.956 210.765 345.774C210.939 345.592 211.146 345.501 211.374 345.501H219.033C219.293 345.501 219.511 345.592 219.663 345.774C219.826 345.956 219.902 346.171 219.902 346.41C219.902 346.671 219.815 346.886 219.652 347.057C219.489 347.227 219.272 347.318 219.033 347.318H212.243V352.767H217.827C218.077 352.767 218.283 352.858 218.446 353.028C218.609 353.199 218.696 353.414 218.696 353.664C218.696 353.914 218.609 354.129 218.435 354.311C218.261 354.493 218.055 354.584 217.827 354.584H212.243V360.305H219.033C219.282 360.305 219.489 360.396 219.652 360.566C219.815 360.737 219.902 360.952 219.902 361.191C219.902 361.463 219.815 361.69 219.652 361.861C219.489 362.031 219.272 362.122 219.033 362.122H211.374V362.133Z" fill="black" stroke="black" stroke-width="0.272817" stroke-miterlimit="10"/>
<path d="M224.714 362.19C224.551 362.36 224.345 362.451 224.117 362.451C223.856 362.451 223.639 362.36 223.476 362.19C223.313 362.019 223.226 361.804 223.226 361.565V346.41C223.226 346.171 223.313 345.956 223.487 345.774C223.661 345.592 223.867 345.501 224.095 345.501H229.462C230.331 345.501 231.124 345.729 231.841 346.183C232.558 346.625 233.123 347.216 233.557 347.965C233.981 348.714 234.198 349.532 234.198 350.428C234.198 351.2 234.035 351.927 233.72 352.597C233.405 353.267 232.96 353.823 232.406 354.288C231.971 354.663 231.482 354.947 230.95 355.106L234.133 361.145C234.209 361.293 234.242 361.429 234.242 361.531C234.242 361.906 234.101 362.19 233.829 362.371C233.699 362.451 233.579 362.485 233.46 362.485C233.068 362.485 232.786 362.326 232.634 362.008L229.125 355.378H226.138C225.909 355.378 225.703 355.287 225.529 355.106C225.355 354.924 225.268 354.708 225.268 354.47C225.268 354.198 225.355 353.982 225.529 353.812C225.703 353.641 225.909 353.562 226.138 353.562H229.473C230.027 353.562 230.526 353.426 230.983 353.153C231.439 352.869 231.797 352.483 232.058 352.018C232.33 351.552 232.46 351.019 232.46 350.44C232.46 349.588 232.167 348.862 231.591 348.249C231.417 348.067 231.211 347.897 230.983 347.749C230.526 347.477 230.027 347.341 229.473 347.341H224.975V361.588C224.975 361.827 224.888 362.042 224.725 362.213L224.714 362.19Z" fill="black" stroke="black" stroke-width="0.272817" stroke-miterlimit="10"/>
<path d="M243.03 362.543C241.238 362.543 239.836 362.01 238.815 360.943C237.794 359.875 237.283 358.411 237.283 356.538V351.089C237.283 349.215 237.794 347.751 238.815 346.684C239.836 345.617 241.238 345.083 243.03 345.083C243.899 345.083 244.736 345.287 245.529 345.685C246.322 346.082 246.985 346.65 247.528 347.365C247.658 347.547 247.723 347.739 247.723 347.932C247.723 348.216 247.626 348.455 247.419 348.636C247.408 348.648 247.387 348.659 247.376 348.659C247.213 348.784 247.05 348.841 246.876 348.841C246.572 348.841 246.333 348.727 246.159 348.5C245.779 348.001 245.322 347.603 244.768 347.331C244.225 347.047 243.649 346.911 243.03 346.911C241.759 346.911 240.782 347.274 240.086 348.001C239.391 348.727 239.043 349.76 239.043 351.077V356.526C239.043 357.855 239.391 358.876 240.086 359.603C240.782 360.33 241.77 360.693 243.03 360.693C243.639 360.693 244.225 360.557 244.779 360.284C245.322 360.012 245.779 359.626 246.159 359.126C246.333 358.888 246.572 358.763 246.854 358.763C247.104 358.763 247.311 358.865 247.484 359.058C247.647 359.228 247.723 359.421 247.723 359.648C247.723 359.875 247.658 360.08 247.528 360.261C246.974 360.977 246.311 361.533 245.518 361.93C244.736 362.328 243.899 362.521 243.03 362.521V362.543Z" fill="black" stroke="black" stroke-width="0.272817" stroke-miterlimit="10"/>
<path d="M252.406 362.169C252.243 362.34 252.036 362.431 251.808 362.431C251.547 362.431 251.33 362.34 251.167 362.169C251.004 361.999 250.917 361.783 250.917 361.545V346.06C250.917 345.822 251.004 345.606 251.178 345.424C251.352 345.243 251.558 345.152 251.786 345.152C252.047 345.152 252.264 345.243 252.416 345.424C252.579 345.606 252.655 345.822 252.655 346.06V352.508H259.988V346.06C259.988 345.822 260.075 345.606 260.249 345.424C260.423 345.243 260.629 345.152 260.857 345.152C261.118 345.152 261.325 345.243 261.477 345.424C261.629 345.606 261.705 345.822 261.705 346.06V361.545C261.705 361.806 261.629 362.022 261.466 362.181C261.303 362.351 261.107 362.431 260.857 362.431C260.608 362.431 260.401 362.34 260.238 362.169C260.075 361.999 259.988 361.783 259.988 361.545V354.336H252.655V361.545C252.655 361.783 252.568 361.999 252.406 362.169Z" fill="black" stroke="black" stroke-width="0.272817" stroke-miterlimit="10"/>
<path d="M266.311 361.746C266.224 361.984 266.072 362.166 265.855 362.268C265.757 362.325 265.648 362.359 265.529 362.359C265.268 362.359 265.051 362.268 264.877 362.087C264.714 361.916 264.638 361.712 264.638 361.474C264.638 361.349 264.66 361.235 264.703 361.133L270.179 345.671C270.233 345.546 270.298 345.444 270.374 345.353C270.548 345.182 270.754 345.103 271.004 345.103C271.254 345.103 271.46 345.182 271.634 345.353C271.721 345.455 271.786 345.568 271.83 345.693L277.327 361.133C277.37 361.235 277.392 361.349 277.392 361.474C277.392 361.598 277.37 361.712 277.327 361.814C277.207 362.052 277.034 362.211 276.805 362.291C276.708 362.336 276.599 362.359 276.49 362.359C276.382 362.359 276.273 362.325 276.175 362.268C275.947 362.166 275.784 361.996 275.697 361.769L271.004 348.634L268.451 355.774H272.091C272.34 355.774 272.547 355.865 272.699 356.047C272.862 356.229 272.938 356.444 272.938 356.694C272.938 356.944 272.851 357.159 272.688 357.33C272.525 357.5 272.319 357.591 272.091 357.591H267.767L266.3 361.746H266.311Z" fill="black" stroke="black" stroke-width="0.272817" stroke-miterlimit="10"/>
<path d="M281.77 362.169C281.607 362.34 281.4 362.431 281.172 362.431C280.912 362.431 280.694 362.34 280.531 362.169C280.368 361.999 280.281 361.783 280.281 361.545V346.06C280.281 345.799 280.358 345.583 280.52 345.424C280.618 345.322 280.738 345.243 280.868 345.209C280.998 345.175 281.107 345.152 281.194 345.152C281.466 345.152 281.705 345.299 281.889 345.583L289.657 358.423V346.071C289.657 345.81 289.744 345.595 289.928 345.424C290.113 345.254 290.319 345.163 290.548 345.163C290.797 345.163 290.993 345.254 291.156 345.436C291.319 345.617 291.395 345.833 291.395 346.071V361.556C291.395 361.817 291.319 362.033 291.156 362.192C291.069 362.283 290.96 362.351 290.83 362.385C290.7 362.419 290.591 362.442 290.504 362.442C290.233 362.442 289.994 362.317 289.809 362.056C289.809 362.045 288.983 360.671 287.343 357.958C285.366 354.677 283.595 351.748 282.02 349.182V361.568C282.02 361.806 281.933 362.022 281.77 362.192V362.169Z" fill="black" stroke="black" stroke-width="0.272817" stroke-miterlimit="10"/>
<path d="M300.672 362.431C299.521 362.431 298.522 362.181 297.663 361.681C296.805 361.182 296.132 360.478 295.654 359.57C295.176 358.661 294.937 357.617 294.937 356.436V351.146C294.937 349.386 295.458 347.956 296.512 346.855C296.87 346.48 297.294 346.151 297.761 345.901C298.652 345.402 299.684 345.152 300.857 345.152C301.672 345.152 302.432 345.277 303.149 345.538C304.008 345.867 304.725 346.333 305.311 346.923C305.702 347.332 306.006 347.797 306.202 348.319C306.256 348.444 306.289 348.558 306.289 348.683C306.289 348.807 306.256 348.921 306.202 349.023C306.083 349.262 305.909 349.42 305.681 349.5C305.55 349.557 305.42 349.591 305.29 349.591C305.105 349.591 304.931 349.511 304.79 349.364C304.703 349.273 304.627 349.159 304.573 349.023C304.323 348.433 303.866 347.945 303.182 347.559C302.508 347.173 301.737 346.98 300.879 346.98C299.554 346.98 298.511 347.377 297.761 348.16C297.044 348.91 296.696 349.897 296.696 351.146V356.436C296.696 357.276 296.859 358.014 297.196 358.65C297.511 359.274 297.978 359.751 298.565 360.103C299.162 360.444 299.869 360.614 300.683 360.614C301.335 360.614 301.987 360.535 302.617 360.387C303.247 360.239 303.769 360.046 304.181 359.819V356.175H301.107C300.835 356.175 300.607 356.096 300.455 355.925C300.292 355.755 300.216 355.54 300.216 355.267C300.216 354.995 300.292 354.779 300.455 354.609C300.618 354.438 300.835 354.359 301.107 354.359H305.083C305.344 354.359 305.55 354.438 305.702 354.597C305.854 354.756 305.93 354.983 305.93 355.267V360.353C305.93 360.682 305.811 360.943 305.561 361.125L305.539 361.148C304.953 361.545 304.225 361.852 303.334 362.09C302.443 362.328 301.563 362.442 300.694 362.442L300.672 362.431Z" fill="black" stroke="black" stroke-width="0.272817" stroke-miterlimit="10"/>
<path d="M310.428 362.133C310.2 362.133 309.993 362.042 309.82 361.861C309.646 361.679 309.559 361.463 309.559 361.225V346.41C309.559 346.171 309.646 345.956 309.82 345.774C309.993 345.592 310.2 345.501 310.428 345.501H318.087C318.347 345.501 318.565 345.592 318.717 345.774C318.88 345.956 318.956 346.171 318.956 346.41C318.956 346.671 318.869 346.886 318.706 347.057C318.543 347.227 318.326 347.318 318.087 347.318H311.297V352.767H316.881C317.131 352.767 317.337 352.858 317.5 353.028C317.663 353.199 317.75 353.414 317.75 353.664C317.75 353.914 317.663 354.129 317.489 354.311C317.315 354.493 317.109 354.584 316.881 354.584H311.297V360.305H318.087C318.337 360.305 318.543 360.396 318.706 360.566C318.869 360.737 318.956 360.952 318.956 361.191C318.956 361.463 318.869 361.69 318.706 361.861C318.543 362.031 318.326 362.122 318.087 362.122H310.428V362.133Z" fill="black" stroke="black" stroke-width="0.272817" stroke-miterlimit="10"/>
</svg>
